CrimsonProS-W1000.ufo
<glyph name="ampersand" format="2">
  <advance width="814.0"/>
  <unicode hex="0026"/>
  <note>
ampersand
</note>
  <outline>
    <contour>
      <point x="267.0" y="-11.0" type="curve" smooth="yes"/>
      <point x="457.0" y="-11.0"/>
      <point x="610.0" y="85.0"/>
      <point x="700.0" y="283.0" type="curve"/>
      <point x="770.0" y="293.0" type="line"/>
      <point x="767.0" y="350.0" type="line"/>
      <point x="519.0" y="349.0" type="line"/>
      <point x="516.0" y="292.0" type="line"/>
      <point x="586.0" y="283.0" type="line"/>
      <point x="540.0" y="146.0"/>
      <point x="457.0" y="89.0"/>
      <point x="324.0" y="89.0" type="curve" smooth="yes"/>
      <point x="228.0" y="89.0"/>
      <point x="199.0" y="135.0"/>
      <point x="199.0" y="182.0" type="curve" smooth="yes"/>
      <point x="199.0" y="231.0"/>
      <point x="234.0" y="280.0"/>
      <point x="317.0" y="319.0" type="curve"/>
      <point x="446.0" y="357.0"/>
      <point x="521.0" y="432.0"/>
      <point x="521.0" y="518.0" type="curve" smooth="yes"/>
      <point x="521.0" y="611.0"/>
      <point x="461.0" y="668.0"/>
      <point x="348.0" y="668.0" type="curve" smooth="yes"/>
      <point x="230.0" y="668.0"/>
      <point x="137.0" y="599.0"/>
      <point x="137.0" y="469.0" type="curve" smooth="yes"/>
      <point x="137.0" y="402.0"/>
      <point x="174.0" y="326.0"/>
      <point x="257.0" y="216.0" type="curve" smooth="yes"/>
      <point x="366.0" y="71.0"/>
      <point x="459.0" y="-11.0"/>
      <point x="624.0" y="-11.0" type="curve" smooth="yes"/>
      <point x="710.0" y="-11.0"/>
      <point x="788.0" y="28.0"/>
      <point x="831.0" y="95.0" type="curve"/>
      <point x="791.0" y="137.0" type="line"/>
      <point x="761.0" y="110.0"/>
      <point x="718.0" y="97.0"/>
      <point x="686.0" y="97.0" type="curve" smooth="yes"/>
      <point x="600.0" y="97.0"/>
      <point x="550.0" y="130.0"/>
      <point x="443.0" y="257.0" type="curve" smooth="yes"/>
      <point x="302.0" y="424.0"/>
      <point x="288.0" y="483.0"/>
      <point x="288.0" y="531.0" type="curve" smooth="yes"/>
      <point x="288.0" y="573.0"/>
      <point x="309.0" y="599.0"/>
      <point x="340.0" y="599.0" type="curve" smooth="yes"/>
      <point x="368.0" y="599.0"/>
      <point x="386.0" y="579.0"/>
      <point x="386.0" y="534.0" type="curve" smooth="yes"/>
      <point x="386.0" y="458.0"/>
      <point x="369.0" y="422.0"/>
      <point x="256.0" y="343.0" type="curve"/>
      <point x="130.0" y="332.0"/>
      <point x="23.0" y="264.0"/>
      <point x="23.0" y="160.0" type="curve" smooth="yes"/>
      <point x="23.0" y="62.0"/>
      <point x="111.0" y="-11.0"/>
    </contour>
  </outline>
</glyph>
<glyph name="quotesingle" format="2">
  <advance width="319.0"/>
  <unicode hex="0027"/>
  <note>
    quotesingle
  </note>
  <outline>
    <contour>
      <point x="159.1" y="698.0" type="curve" smooth="yes"/>
      <point x="112.7" y="698.0"/>
      <point x="79.1" y="660.4000000000001"/>
      <point x="79.1" y="602.8000000000001" type="curve" smooth="yes"/>
      <point x="79.1" y="550.8000000000001"/>
      <point x="119.1" y="426.8"/>
      <point x="138.3" y="358.0" type="curve"/>
      <point x="180.7" y="358.0" type="line"/>
      <point x="199.89999999999998" y="426.8"/>
      <point x="239.89999999999998" y="550.8000000000001"/>
      <point x="239.89999999999998" y="602.8000000000001" type="curve" smooth="yes"/>
      <point x="239.89999999999998" y="660.4000000000001"/>
      <point x="204.7" y="698.0"/>
    </contour>
  </outline>
</glyph>
<glyph name="parenright" format="2">
  <advance width="409.0"/>
  <unicode hex="0029"/>
  <note>
parenright
</note>
  <outline>
    <contour>
      <point x="48.0" y="729.0" type="curve"/>
      <point x="0.0" y="692.0" type="line"/>
      <point x="92.0" y="600.0"/>
      <point x="145.0" y="439.0"/>
      <point x="145.0" y="250.0" type="curve" smooth="yes"/>
      <point x="145.0" y="61.0"/>
      <point x="92.0" y="-100.0"/>
      <point x="0.0" y="-192.0" type="curve"/>
      <point x="48.0" y="-229.0" type="line"/>
      <point x="227.0" y="-107.0"/>
      <point x="321.0" y="56.0"/>
      <point x="321.0" y="250.0" type="curve" smooth="yes"/>
      <point x="321.0" y="447.0"/>
      <point x="227.0" y="610.0"/>
    </contour>
  </outline>
</glyph>
<glyph name="period" format="2">
  <advance width="319.0"/>
  <unicode hex="002E"/>
  <note>
period
</note>
  <outline>
    <contour>
      <point x="159.0" y="-10.0" type="curve" smooth="yes"/>
      <point x="222.0" y="-10.0"/>
      <point x="273.0" y="38.0"/>
      <point x="273.0" y="100.0" type="curve" smooth="yes"/>
      <point x="273.0" y="163.0"/>
      <point x="222.0" y="214.0"/>
      <point x="159.0" y="214.0" type="curve" smooth="yes"/>
      <point x="98.0" y="214.0"/>
      <point x="46.0" y="163.0"/>
      <point x="46.0" y="100.0" type="curve" smooth="yes"/>
      <point x="46.0" y="38.0"/>
      <point x="98.0" y="-10.0"/>
    </contour>
  </outline>
</glyph>
<glyph name="slash" format="2">
  <advance width="448.0"/>
  <unicode hex="002F"/>
  <note>
slash
</note>
  <outline>
    <contour>
      <point x="36.0" y="-180.0" type="line"/>
      <point x="151.0" y="-180.0" type="line"/>
      <point x="452.0" y="728.0" type="line"/>
      <point x="337.0" y="728.0" type="line"/>
    </contour>
  </outline>
</glyph>
<glyph name="zero" format="2">
  <advance width="654.0"/>
  <unicode hex="0030"/>
  <note>
zero
</note>
  <outline>
    <contour>
      <point x="333.0" y="-9.0" type="curve" smooth="yes"/>
      <point x="481.0" y="-9.0"/>
      <point x="603.0" y="125.0"/>
      <point x="603.0" y="304.0" type="curve" smooth="yes"/>
      <point x="603.0" y="484.0"/>
      <point x="492.0" y="596.0"/>
      <point x="334.0" y="596.0" type="curve" smooth="yes"/>
      <point x="169.0" y="596.0"/>
      <point x="51.0" y="474.0"/>
      <point x="51.0" y="283.0" type="curve" smooth="yes"/>
      <point x="51.0" y="107.0"/>
      <point x="173.0" y="-9.0"/>
    </contour>
    <contour>
      <point x="346.0" y="76.0" type="curve" smooth="yes"/>
      <point x="281.0" y="76.0"/>
      <point x="230.0" y="174.0"/>
      <point x="230.0" y="319.0" type="curve" smooth="yes"/>
      <point x="230.0" y="455.0"/>
      <point x="270.0" y="522.0"/>
      <point x="323.0" y="522.0" type="curve" smooth="yes"/>
      <point x="383.0" y="522.0"/>
      <point x="427.0" y="426.0"/>
      <point x="427.0" y="277.0" type="curve" smooth="yes"/>
      <point x="427.0" y="128.0"/>
      <point x="400.0" y="76.0"/>
    </contour>
  </outline>
</glyph>
<glyph name="five" format="2">
  <advance width="519.0"/>
  <unicode hex="0035"/>
  <note>
    five
  </note>
  <outline>
    <contour>
      <point x="203.0" y="-9.0" type="curve" smooth="yes"/>
      <point x="377.0" y="-9.0"/>
      <point x="469.0" y="85.0"/>
      <point x="469.0" y="184.0" type="curve" smooth="yes"/>
      <point x="469.0" y="296.752381"/>
      <point x="372.57048675150253" y="363.63880261587985"/>
      <point x="188.01238096098655" y="377.164647223296" type="curve"/>
      <point x="197.0" y="458.0" type="line"/>
      <point x="426.0" y="458.0" type="line"/>
      <point x="437.0" y="587.0" type="line"/>
      <point x="138.0" y="587.0" type="line"/>
      <point x="100.0" y="247.0" type="line"/>
      <point x="236.0" y="241.0"/>
      <point x="302.0" y="209.0"/>
      <point x="302.0" y="140.0" type="curve" smooth="yes"/>
      <point x="302.0" y="94.0"/>
      <point x="270.29744784262857" y="64.41721232540658"/>
      <point x="235.88052191585825" y="64.41721232540658" type="curve" smooth="yes"/>
      <point x="231.6511241111964" y="64.41721232540658"/>
      <point x="224.26256074168737" y="64.93833871553466"/>
      <point x="218.77711217947603" y="66.50560973330948" type="curve"/>
      <point x="192.02367768904833" y="84.33998607478043"/>
      <point x="163.27605113793857" y="117.76745880862927"/>
      <point x="145.22521586166022" y="143.50661281369275" type="curve"/>
      <point x="134.19414985948993" y="148.1864589964316"/>
      <point x="121.82598494796594" y="151.0612216515426"/>
      <point x="104.71111890823522" y="151.0612216515426" type="curve" smooth="yes"/>
      <point x="64.27724788937167" y="151.0612216515426"/>
      <point x="37.837912135988745" y="123.43612809851038"/>
      <point x="37.837912135988745" y="89.43612809851038" type="curve" smooth="yes"/>
      <point x="37.837912135988745" y="33.43612809851038"/>
      <point x="108.0" y="-9.0"/>
    </contour>
  </outline>
</glyph>
<glyph name="seven" format="2">
  <advance width="516.0"/>
  <unicode hex="0037"/>
  <note>
seven
</note>
  <outline>
    <contour>
      <point x="265.0" y="0.0" type="line"/>
      <point x="477.0" y="528.0" type="line"/>
      <point x="473.0" y="588.0" type="line"/>
      <point x="448.0" y="588.0"/>
      <point x="421.0" y="587.0"/>
      <point x="399.0" y="587.0" type="curve" smooth="yes"/>
      <point x="225.0" y="587.0" type="line" smooth="yes"/>
      <point x="197.0" y="587.0"/>
      <point x="105.0" y="589.0"/>
      <point x="66.0" y="589.0" type="curve"/>
      <point x="49.0" y="396.0" type="line"/>
      <point x="121.0" y="390.0" type="line"/>
      <point x="133.0" y="451.0" type="line"/>
      <point x="153.0" y="453.0"/>
      <point x="180.0" y="454.0"/>
      <point x="196.0" y="454.0" type="curve" smooth="yes"/>
      <point x="388.0" y="454.0" type="line"/>
      <point x="388.0" y="498.0" type="line"/>
      <point x="138.0" y="44.0" type="line"/>
      <point x="138.0" y="0.0" type="line"/>
    </contour>
  </outline>
</glyph>
<glyph name="eight" format="2">
  <advance width="630.0"/>
  <unicode hex="0038"/>
  <note>
eight
</note>
  <outline>
    <contour>
      <point x="307.0" y="-9.0" type="curve" smooth="yes"/>
      <point x="470.0" y="-9.0"/>
      <point x="578.0" y="61.0"/>
      <point x="578.0" y="174.0" type="curve" smooth="yes"/>
      <point x="578.0" y="371.0"/>
      <point x="241.0" y="330.0"/>
      <point x="241.0" y="461.0" type="curve" smooth="yes"/>
      <point x="241.0" y="499.0"/>
      <point x="269.0" y="522.0"/>
      <point x="317.0" y="522.0" type="curve" smooth="yes"/>
      <point x="368.0" y="522.0"/>
      <point x="400.0" y="491.0"/>
      <point x="400.0" y="429.0" type="curve" smooth="yes"/>
      <point x="400.0" y="383.0"/>
      <point x="390.0" y="353.0"/>
      <point x="360.0" y="305.0" type="curve"/>
      <point x="366.0" y="294.0" type="line"/>
      <point x="484.0" y="308.0"/>
      <point x="551.0" y="362.0"/>
      <point x="551.0" y="438.0" type="curve" smooth="yes"/>
      <point x="551.0" y="531.0"/>
      <point x="479.0" y="596.0"/>
      <point x="331.0" y="596.0" type="curve" smooth="yes"/>
      <point x="174.0" y="596.0"/>
      <point x="77.0" y="523.0"/>
      <point x="77.0" y="419.0" type="curve" smooth="yes"/>
      <point x="77.0" y="206.0"/>
      <point x="412.0" y="248.0"/>
      <point x="412.0" y="129.0" type="curve" smooth="yes"/>
      <point x="412.0" y="96.0"/>
      <point x="377.0" y="72.0"/>
      <point x="324.0" y="72.0" type="curve" smooth="yes"/>
      <point x="266.0" y="72.0"/>
      <point x="219.0" y="99.0"/>
      <point x="219.0" y="161.0" type="curve" smooth="yes"/>
      <point x="219.0" y="194.0"/>
      <point x="227.0" y="223.0"/>
      <point x="247.0" y="270.0" type="curve"/>
      <point x="236.0" y="295.0" type="line"/>
      <point x="128.0" y="276.0"/>
      <point x="53.0" y="226.0"/>
      <point x="53.0" y="151.0" type="curve" smooth="yes"/>
      <point x="53.0" y="58.0"/>
      <point x="152.0" y="-9.0"/>
    </contour>
  </outline>
</glyph>
<glyph name="colon" format="2">
  <advance width="319.0"/>
  <unicode hex="003A"/>
  <note>
    colon
  </note>
  <outline>
    <contour>
      <point x="157.0" y="-10.0" type="curve" smooth="yes"/>
      <point x="220.0" y="-10.0"/>
      <point x="269.0" y="34.0"/>
      <point x="269.0" y="93.0" type="curve" smooth="yes"/>
      <point x="269.0" y="153.0"/>
      <point x="220.0" y="200.0"/>
      <point x="157.0" y="200.0" type="curve" smooth="yes"/>
      <point x="96.0" y="200.0"/>
      <point x="46.0" y="153.0"/>
      <point x="46.0" y="93.0" type="curve" smooth="yes"/>
      <point x="46.0" y="34.0"/>
      <point x="96.0" y="-10.0"/>
    </contour>
    <contour>
      <point x="157.0" y="246.0" type="curve" smooth="yes"/>
      <point x="220.0" y="246.0"/>
      <point x="269.0" y="290.0"/>
      <point x="269.0" y="348.0" type="curve" smooth="yes"/>
      <point x="269.0" y="409.0"/>
      <point x="220.0" y="456.0"/>
      <point x="157.0" y="456.0" type="curve" smooth="yes"/>
      <point x="96.0" y="456.0"/>
      <point x="46.0" y="409.0"/>
      <point x="46.0" y="348.0" type="curve" smooth="yes"/>
      <point x="46.0" y="290.0"/>
      <point x="96.0" y="246.0"/>
    </contour>
  </outline>
</glyph>
<glyph name="semicolon" format="2">
  <advance width="319.0"/>
  <unicode hex="003B"/>
  <note>
semicolon
</note>
  <outline>
    <contour>
      <point x="52.0" y="-233.0" type="line"/>
      <point x="213.0" y="-168.0"/>
      <point x="280.0" y="-67.0"/>
      <point x="280.0" y="59.0" type="curve" smooth="yes"/>
      <point x="280.0" y="169.0"/>
      <point x="214.0" y="204.0"/>
      <point x="155.0" y="204.0" type="curve" smooth="yes"/>
      <point x="92.0" y="204.0"/>
      <point x="44.0" y="165.0"/>
      <point x="44.0" y="108.0" type="curve" smooth="yes"/>
      <point x="44.0" y="18.0"/>
      <point x="150.0" y="26.0"/>
      <point x="150.0" y="-58.0" type="curve" smooth="yes"/>
      <point x="150.0" y="-103.0"/>
      <point x="123.0" y="-145.0"/>
      <point x="30.0" y="-183.0" type="curve"/>
    </contour>
    <contour>
      <point x="159.0" y="242.0" type="curve" smooth="yes"/>
      <point x="222.0" y="242.0"/>
      <point x="273.0" y="288.0"/>
      <point x="273.0" y="346.0" type="curve" smooth="yes"/>
      <point x="273.0" y="407.0"/>
      <point x="222.0" y="456.0"/>
      <point x="159.0" y="456.0" type="curve" smooth="yes"/>
      <point x="98.0" y="456.0"/>
      <point x="46.0" y="407.0"/>
      <point x="46.0" y="346.0" type="curve" smooth="yes"/>
      <point x="46.0" y="288.0"/>
      <point x="98.0" y="242.0"/>
    </contour>
  </outline>
</glyph>
<glyph name="greater" format="2">
  <advance width="540.0"/>
  <unicode hex="003E"/>
  <outline>
    <contour>
      <point x="487.0" y="201.0" type="line"/>
      <point x="487.0" y="313.0" type="line"/>
      <point x="53.0" y="484.0" type="line"/>
      <point x="53.0" y="373.0" type="line"/>
      <point x="451.0" y="218.0" type="line"/>
      <point x="451.0" y="291.0" type="line"/>
      <point x="53.0" y="138.0" type="line"/>
      <point x="53.0" y="29.0" type="line"/>
    </contour>
  </outline>
</glyph>
<glyph name="at" format="2">
  <advance width="1023.0"/>
  <unicode hex="0040"/>
  <note>
at
</note>
  <outline>
    <contour>
      <point x="527.0" y="-227.0" type="curve" smooth="yes"/>
      <point x="609.0" y="-227.0"/>
      <point x="678.0" y="-213.0"/>
      <point x="741.0" y="-188.0" type="curve"/>
      <point x="721.0" y="-128.0" type="line"/>
      <point x="665.0" y="-148.0"/>
      <point x="611.0" y="-158.0"/>
      <point x="537.0" y="-158.0" type="curve" smooth="yes"/>
      <point x="325.0" y="-158.0"/>
      <point x="191.0" y="-38.0"/>
      <point x="191.0" y="178.0" type="curve" smooth="yes"/>
      <point x="191.0" y="396.0"/>
      <point x="328.0" y="528.0"/>
      <point x="553.0" y="528.0" type="curve" smooth="yes"/>
      <point x="750.0" y="528.0"/>
      <point x="867.0" y="461.0"/>
      <point x="867.0" y="283.0" type="curve" smooth="yes"/>
      <point x="867.0" y="142.0"/>
      <point x="817.0" y="76.0"/>
      <point x="750.0" y="76.0" type="curve"/>
      <point x="743.0" y="89.0"/>
      <point x="741.0" y="103.0"/>
      <point x="741.0" y="168.0" type="curve"/>
      <point x="744.0" y="299.0" type="line"/>
      <point x="745.0" y="395.0"/>
      <point x="664.0" y="454.0"/>
      <point x="533.0" y="454.0" type="curve"/>
      <point x="480.0" y="448.0"/>
      <point x="332.0" y="382.0"/>
      <point x="332.0" y="323.0" type="curve" smooth="yes"/>
      <point x="332.0" y="286.0"/>
      <point x="365.0" y="264.0"/>
      <point x="417.0" y="264.0" type="curve" smooth="yes"/>
      <point x="431.0" y="264.0"/>
      <point x="446.0" y="266.0"/>
      <point x="462.0" y="269.0" type="curve"/>
      <point x="469.0" y="343.0" type="line" smooth="yes"/>
      <point x="471.0" y="363.0"/>
      <point x="477.0" y="371.0"/>
      <point x="492.0" y="371.0" type="curve" smooth="yes"/>
      <point x="534.0" y="371.0"/>
      <point x="578.0" y="330.0"/>
      <point x="578.0" y="291.0" type="curve" smooth="yes"/>
      <point x="578.0" y="266.0" type="line"/>
      <point x="418.0" y="223.0" type="line" smooth="yes"/>
      <point x="357.0" y="207.0"/>
      <point x="327.0" y="173.0"/>
      <point x="327.0" y="121.0" type="curve" smooth="yes"/>
      <point x="327.0" y="70.0"/>
      <point x="383.0" y="-8.0"/>
      <point x="482.0" y="-8.0" type="curve" smooth="yes"/>
      <point x="520.0" y="-8.0"/>
      <point x="568.0" y="26.0"/>
      <point x="608.0" y="80.0" type="curve"/>
      <point x="583.0" y="86.0" type="line"/>
      <point x="605.0" y="36.0" type="line" smooth="yes"/>
      <point x="618.0" y="6.0"/>
      <point x="640.0" y="-8.0"/>
      <point x="691.0" y="-8.0" type="curve" smooth="yes"/>
      <point x="835.0" y="-8.0"/>
      <point x="981.0" y="132.0"/>
      <point x="981.0" y="288.0" type="curve" smooth="yes"/>
      <point x="981.0" y="489.0"/>
      <point x="786.0" y="592.0"/>
      <point x="556.0" y="592.0" type="curve" smooth="yes"/>
      <point x="283.0" y="592.0"/>
      <point x="51.0" y="440.0"/>
      <point x="51.0" y="168.0" type="curve" smooth="yes"/>
      <point x="51.0" y="-75.0"/>
      <point x="259.0" y="-227.0"/>
    </contour>
    <contour>
      <point x="548.0" y="101.0" type="curve" smooth="yes"/>
      <point x="520.0" y="101.0"/>
      <point x="493.0" y="130.0"/>
      <point x="493.0" y="159.0" type="curve" smooth="yes"/>
      <point x="493.0" y="183.0"/>
      <point x="506.0" y="200.0"/>
      <point x="540.0" y="202.0" type="curve" smooth="yes"/>
      <point x="580.0" y="204.0" type="line"/>
      <point x="580.0" y="111.0" type="line"/>
      <point x="571.0" y="104.0"/>
      <point x="558.0" y="101.0"/>
    </contour>
  </outline>
</glyph>
<glyph name="B" format="2">
  <advance width="636.0"/>
  <unicode hex="0042"/>
  <note>
B
</note>
  <anchor x="325.0" y="0.0" name="bottom"/>
  <anchor x="325.0" y="587.0" name="top"/>
  <outline>
    <contour>
      <point x="96.0" y="76.0" type="curve"/>
      <point x="31.0" y="57.0" type="line"/>
      <point x="34.0" y="0.0" type="line"/>
      <point x="325.0" y="0.0" type="line" smooth="yes"/>
      <point x="497.0" y="0.0"/>
      <point x="593.0" y="62.0"/>
      <point x="593.0" y="174.0" type="curve" smooth="yes"/>
      <point x="593.0" y="260.0"/>
      <point x="521.0" y="315.0"/>
      <point x="394.0" y="322.0" type="curve"/>
      <point x="377.0" y="313.0" type="line"/>
      <point x="489.0" y="319.0"/>
      <point x="563.0" y="373.0"/>
      <point x="563.0" y="446.0" type="curve" smooth="yes"/>
      <point x="563.0" y="542.0"/>
      <point x="494.0" y="587.0"/>
      <point x="348.0" y="587.0" type="curve" smooth="yes"/>
      <point x="34.0" y="587.0" type="line"/>
      <point x="31.0" y="531.0" type="line"/>
      <point x="96.0" y="510.0" type="line"/>
      <point x="100.0" y="503.0"/>
      <point x="103.0" y="433.0"/>
      <point x="103.0" y="354.0" type="curve" smooth="yes"/>
      <point x="103.0" y="234.0" type="line" smooth="yes"/>
      <point x="103.0" y="152.0"/>
      <point x="100.0" y="82.0"/>
    </contour>
    <contour>
      <point x="269.0" y="177.0" type="curve" smooth="yes"/>
      <point x="269.0" y="407.0" type="line" smooth="yes"/>
      <point x="269.0" y="466.0"/>
      <point x="270.0" y="511.0"/>
      <point x="271.0" y="524.0" type="curve"/>
      <point x="289.0" y="524.0" type="line" smooth="yes"/>
      <point x="357.0" y="524.0"/>
      <point x="384.0" y="486.0"/>
      <point x="384.0" y="430.0" type="curve" smooth="yes"/>
      <point x="384.0" y="368.0"/>
      <point x="356.0" y="334.0"/>
      <point x="292.0" y="334.0" type="curve" smooth="yes"/>
      <point x="282.0" y="334.0"/>
      <point x="273.0" y="334.0"/>
      <point x="253.0" y="336.0" type="curve"/>
      <point x="253.0" y="259.0" type="line"/>
      <point x="271.0" y="261.0"/>
      <point x="286.0" y="262.0"/>
      <point x="297.0" y="262.0" type="curve" smooth="yes"/>
      <point x="381.0" y="262.0"/>
      <point x="414.0" y="230.0"/>
      <point x="414.0" y="157.0" type="curve" smooth="yes"/>
      <point x="414.0" y="102.0"/>
      <point x="379.0" y="66.0"/>
      <point x="325.0" y="66.0" type="curve" smooth="yes"/>
      <point x="305.0" y="66.0"/>
      <point x="284.0" y="69.0"/>
      <point x="272.0" y="75.0" type="curve"/>
      <point x="270.0" y="92.0"/>
      <point x="269.0" y="127.0"/>
    </contour>
  </outline>
</glyph>
<glyph name="C" format="2">
  <advance width="638.0"/>
  <unicode hex="0043"/>
  <note>
C
</note>
  <anchor x="356.0" y="0.0" name="bottom"/>
  <anchor x="356.0" y="587.0" name="top"/>
  <outline>
    <contour>
      <point x="380.0" y="-9.0" type="curve" smooth="yes"/>
      <point x="463.0" y="-9.0"/>
      <point x="545.0" y="15.0"/>
      <point x="587.0" y="46.0" type="curve"/>
      <point x="616.0" y="185.0" type="line"/>
      <point x="536.0" y="193.0" type="line"/>
      <point x="503.0" y="99.0" type="line"/>
      <point x="480.0" y="80.0"/>
      <point x="448.0" y="71.0"/>
      <point x="411.0" y="71.0" type="curve" smooth="yes"/>
      <point x="317.0" y="71.0"/>
      <point x="241.0" y="164.0"/>
      <point x="241.0" y="309.0" type="curve" smooth="yes"/>
      <point x="241.0" y="449.0"/>
      <point x="305.0" y="520.0"/>
      <point x="398.0" y="520.0" type="curve" smooth="yes"/>
      <point x="424.0" y="520.0"/>
      <point x="447.0" y="516.0"/>
      <point x="473.0" y="505.0" type="curve"/>
      <point x="513.0" y="393.0" type="line"/>
      <point x="585.0" y="397.0" type="line"/>
      <point x="578.0" y="560.0" type="line"/>
      <point x="539.0" y="580.0"/>
      <point x="472.0" y="596.0"/>
      <point x="407.0" y="596.0" type="curve" smooth="yes"/>
      <point x="208.0" y="596.0"/>
      <point x="43.0" y="491.0"/>
      <point x="43.0" y="280.0" type="curve" smooth="yes"/>
      <point x="43.0" y="101.0"/>
      <point x="171.0" y="-9.0"/>
    </contour>
  </outline>
</glyph>
<glyph name="E" format="2">
  <advance width="601.0"/>
  <unicode hex="0045"/>
  <note>
E
</note>
  <anchor x="304.0" y="0.0" name="bottom"/>
  <anchor x="546.0" y="0.0" name="ogonek"/>
  <anchor x="304.0" y="587.0" name="top"/>
  <anchor x="33.0" y="587.0" name="topleft"/>
  <outline>
    <contour>
      <point x="544.0" y="-7.0" type="curve"/>
      <point x="592.0" y="166.0" type="line"/>
      <point x="528.0" y="178.0" type="line"/>
      <point x="471.0" y="75.0" type="line"/>
      <point x="452.0" y="71.0"/>
      <point x="456.0" y="71.0"/>
      <point x="400.0" y="71.0" type="curve" smooth="yes"/>
      <point x="374.0" y="71.0" type="line" smooth="yes"/>
      <point x="324.0" y="71.0"/>
      <point x="299.0" y="72.0"/>
      <point x="272.0" y="76.0" type="curve"/>
      <point x="270.0" y="97.0"/>
      <point x="269.0" y="137.0"/>
      <point x="269.0" y="217.0" type="curve" smooth="yes"/>
      <point x="269.0" y="390.0" type="line" smooth="yes"/>
      <point x="269.0" y="468.0"/>
      <point x="270.0" y="499.0"/>
      <point x="272.0" y="519.0" type="curve"/>
      <point x="284.0" y="521.0"/>
      <point x="313.0" y="522.0"/>
      <point x="339.0" y="522.0" type="curve" smooth="yes"/>
      <point x="391.0" y="522.0" type="line" smooth="yes"/>
      <point x="407.0" y="522.0"/>
      <point x="419.0" y="521.0"/>
      <point x="441.0" y="517.0" type="curve"/>
      <point x="481.0" y="425.0" type="line"/>
      <point x="547.0" y="434.0" type="line"/>
      <point x="516.0" y="593.0" type="line"/>
      <point x="474.0" y="589.0"/>
      <point x="381.0" y="587.0"/>
      <point x="331.0" y="587.0" type="curve" smooth="yes"/>
      <point x="33.0" y="587.0" type="line"/>
      <point x="30.0" y="530.0" type="line"/>
      <point x="95.0" y="511.0" type="line"/>
      <point x="99.0" y="505.0"/>
      <point x="103.0" y="432.0"/>
      <point x="103.0" y="354.0" type="curve" smooth="yes"/>
      <point x="103.0" y="234.0" type="line" smooth="yes"/>
      <point x="103.0" y="157.0"/>
      <point x="99.0" y="83.0"/>
      <point x="95.0" y="76.0" type="curve"/>
      <point x="30.0" y="57.0" type="line"/>
      <point x="33.0" y="0.0" type="line"/>
      <point x="378.0" y="0.0" type="line"/>
      <point x="429.0" y="0.0"/>
      <point x="502.0" y="-4.0"/>
    </contour>
    <contour>
      <point x="407.0" y="196.0" type="line"/>
      <point x="471.0" y="196.0" type="line"/>
      <point x="471.0" y="404.0" type="line"/>
      <point x="407.0" y="404.0" type="line"/>
      <point x="398.0" y="339.0" type="line"/>
      <point x="388.0" y="339.0"/>
      <point x="363.0" y="338.0"/>
      <point x="335.0" y="338.0" type="curve" smooth="yes"/>
      <point x="296.0" y="338.0" type="line" smooth="yes"/>
      <point x="269.0" y="338.0"/>
      <point x="247.0" y="341.0"/>
      <point x="243.0" y="342.0" type="curve"/>
      <point x="243.0" y="261.0" type="line"/>
      <point x="247.0" y="262.0"/>
      <point x="269.0" y="264.0"/>
      <point x="296.0" y="264.0" type="curve" smooth="yes"/>
      <point x="335.0" y="264.0" type="line" smooth="yes"/>
      <point x="363.0" y="264.0"/>
      <point x="388.0" y="263.0"/>
      <point x="398.0" y="263.0" type="curve"/>
    </contour>
  </outline>
</glyph>
<glyph name="F" format="2">
  <advance width="566.0"/>
  <unicode hex="0046"/>
  <note>
F
</note>
  <anchor x="185.0" y="0.0" name="bottom"/>
  <anchor x="268.0" y="587.0" name="top"/>
  <outline>
    <contour>
      <point x="37.0" y="0.0" type="line"/>
      <point x="355.0" y="0.0" type="line"/>
      <point x="358.0" y="59.0" type="line"/>
      <point x="277.0" y="76.0" type="line"/>
      <point x="275.0" y="84.0"/>
      <point x="270.0" y="154.0"/>
      <point x="270.0" y="156.0" type="curve"/>
      <point x="269.0" y="400.0" type="line"/>
      <point x="269.0" y="517.0"/>
      <point x="268.0" y="501.0"/>
      <point x="269.0" y="516.0" type="curve"/>
      <point x="283.0" y="520.0"/>
      <point x="305.0" y="522.0"/>
      <point x="330.0" y="522.0" type="curve" smooth="yes"/>
      <point x="383.0" y="522.0" type="line" smooth="yes"/>
      <point x="399.0" y="522.0"/>
      <point x="411.0" y="521.0"/>
      <point x="433.0" y="517.0" type="curve"/>
      <point x="474.0" y="425.0" type="line"/>
      <point x="539.0" y="434.0" type="line"/>
      <point x="508.0" y="593.0" type="line"/>
      <point x="476.0" y="591.0"/>
      <point x="373.0" y="587.0"/>
      <point x="322.0" y="587.0" type="curve" smooth="yes"/>
      <point x="35.0" y="587.0" type="line"/>
      <point x="32.0" y="530.0" type="line"/>
      <point x="97.0" y="512.0" type="line"/>
      <point x="100.0" y="505.0"/>
      <point x="104.0" y="427.0"/>
      <point x="104.0" y="344.0" type="curve"/>
      <point x="103.0" y="236.0" type="line"/>
      <point x="103.0" y="161.0"/>
      <point x="99.0" y="84.0"/>
      <point x="96.0" y="76.0" type="curve"/>
      <point x="34.0" y="57.0" type="line"/>
    </contour>
    <contour>
      <point x="397.0" y="184.0" type="line"/>
      <point x="463.0" y="184.0" type="line"/>
      <point x="463.0" y="397.0" type="line"/>
      <point x="397.0" y="397.0" type="line"/>
      <point x="388.0" y="333.0" type="line"/>
      <point x="378.0" y="333.0"/>
      <point x="353.0" y="331.0"/>
      <point x="326.0" y="331.0" type="curve" smooth="yes"/>
      <point x="285.0" y="331.0" type="line" smooth="yes"/>
      <point x="258.0" y="331.0"/>
      <point x="235.0" y="334.0"/>
      <point x="222.0" y="335.0" type="curve"/>
      <point x="222.0" y="253.0" type="line"/>
      <point x="232.0" y="254.0"/>
      <point x="256.0" y="257.0"/>
      <point x="285.0" y="257.0" type="curve" smooth="yes"/>
      <point x="326.0" y="257.0" type="line" smooth="yes"/>
      <point x="341.0" y="257.0"/>
      <point x="366.0" y="256.0"/>
      <point x="388.0" y="254.0" type="curve"/>
    </contour>
  </outline>
</glyph>
<glyph name="H" format="2">
  <advance width="728.0"/>
  <unicode hex="0048"/>
  <note>
H
</note>
  <anchor x="363.0" y="0.0" name="bottom"/>
  <anchor x="363.0" y="434.0" name="center"/>
  <anchor x="363.0" y="587.0" name="top"/>
  <anchor x="33.0" y="587.0" name="topleft"/>
  <outline>
    <contour>
      <point x="391.0" y="0.0" type="line"/>
      <point x="694.0" y="0.0" type="line"/>
      <point x="697.0" y="57.0" type="line"/>
      <point x="632.0" y="76.0" type="line"/>
      <point x="629.0" y="87.0"/>
      <point x="624.0" y="182.0"/>
      <point x="624.0" y="234.0" type="curve" smooth="yes"/>
      <point x="624.0" y="354.0" type="line" smooth="yes"/>
      <point x="624.0" y="408.0"/>
      <point x="629.0" y="503.0"/>
      <point x="632.0" y="513.0" type="curve"/>
      <point x="697.0" y="530.0" type="line"/>
      <point x="694.0" y="587.0" type="line"/>
      <point x="391.0" y="587.0" type="line"/>
      <point x="388.0" y="530.0" type="line"/>
      <point x="450.0" y="513.0" type="line"/>
      <point x="453.0" y="503.0"/>
      <point x="457.0" y="422.0"/>
      <point x="457.0" y="354.0" type="curve" smooth="yes"/>
      <point x="457.0" y="234.0" type="line" smooth="yes"/>
      <point x="457.0" y="167.0"/>
      <point x="453.0" y="87.0"/>
      <point x="450.0" y="76.0" type="curve"/>
      <point x="388.0" y="57.0" type="line"/>
    </contour>
    <contour>
      <point x="33.0" y="0.0" type="line"/>
      <point x="336.0" y="0.0" type="line"/>
      <point x="339.0" y="57.0" type="line"/>
      <point x="277.0" y="76.0" type="line"/>
      <point x="273.0" y="87.0"/>
      <point x="270.0" y="167.0"/>
      <point x="270.0" y="234.0" type="curve" smooth="yes"/>
      <point x="270.0" y="354.0" type="line" smooth="yes"/>
      <point x="270.0" y="422.0"/>
      <point x="273.0" y="503.0"/>
      <point x="277.0" y="513.0" type="curve"/>
      <point x="339.0" y="530.0" type="line"/>
      <point x="336.0" y="587.0" type="line"/>
      <point x="33.0" y="587.0" type="line"/>
      <point x="30.0" y="530.0" type="line"/>
      <point x="95.0" y="513.0" type="line"/>
      <point x="99.0" y="507.0"/>
      <point x="103.0" y="431.0"/>
      <point x="103.0" y="354.0" type="curve" smooth="yes"/>
      <point x="103.0" y="234.0" type="line" smooth="yes"/>
      <point x="103.0" y="158.0"/>
      <point x="99.0" y="83.0"/>
      <point x="95.0" y="76.0" type="curve"/>
      <point x="30.0" y="57.0" type="line"/>
    </contour>
    <contour>
      <point x="239.0" y="255.0" type="line"/>
      <point x="267.0" y="255.0"/>
      <point x="303.0" y="259.0"/>
      <point x="363.0" y="259.0" type="curve" smooth="yes"/>
      <point x="423.0" y="259.0"/>
      <point x="461.0" y="255.0"/>
      <point x="487.0" y="255.0" type="curve"/>
      <point x="487.0" y="342.0" type="line"/>
      <point x="450.0" y="338.0"/>
      <point x="419.0" y="337.0"/>
      <point x="363.0" y="337.0" type="curve" smooth="yes"/>
      <point x="307.0" y="337.0"/>
      <point x="276.0" y="338.0"/>
      <point x="239.0" y="342.0" type="curve"/>
    </contour>
  </outline>
</glyph>
<glyph name="I" format="2">
  <advance width="374.0"/>
  <unicode hex="0049"/>
  <note>
I
</note>
  <anchor x="187.0" y="0.0" name="bottom"/>
  <anchor x="270.0" y="0.0" name="ogonek"/>
  <anchor x="187.0" y="587.0" name="top"/>
  <anchor x="33.0" y="587.0" name="topleft"/>
  <outline>
    <contour>
      <point x="33.0" y="0.0" type="line"/>
      <point x="339.0" y="0.0" type="line"/>
      <point x="342.0" y="57.0" type="line"/>
      <point x="277.0" y="76.0" type="line"/>
      <point x="273.0" y="87.0"/>
      <point x="270.0" y="167.0"/>
      <point x="270.0" y="234.0" type="curve" smooth="yes"/>
      <point x="270.0" y="354.0" type="line" smooth="yes"/>
      <point x="270.0" y="422.0"/>
      <point x="273.0" y="503.0"/>
      <point x="277.0" y="513.0" type="curve"/>
      <point x="342.0" y="530.0" type="line"/>
      <point x="339.0" y="587.0" type="line"/>
      <point x="33.0" y="587.0" type="line"/>
      <point x="30.0" y="530.0" type="line"/>
      <point x="95.0" y="513.0" type="line"/>
      <point x="99.0" y="507.0"/>
      <point x="103.0" y="431.0"/>
      <point x="103.0" y="354.0" type="curve" smooth="yes"/>
      <point x="103.0" y="234.0" type="line" smooth="yes"/>
      <point x="103.0" y="158.0"/>
      <point x="99.0" y="83.0"/>
      <point x="95.0" y="76.0" type="curve"/>
      <point x="30.0" y="57.0" type="line"/>
    </contour>
  </outline>
</glyph>
<glyph name="L" format="2">
  <advance width="581.0"/>
  <unicode hex="004C"/>
  <note>
L
</note>
  <anchor x="312.0" y="0.0" name="bottom"/>
  <anchor x="211.0" y="303.0" name="center"/>
  <anchor x="415.0" y="320.0" name="dotacc"/>
  <anchor x="186.0" y="587.0" name="top"/>
  <anchor x="395.0" y="587.0" name="topright"/>
  <outline>
    <contour>
      <point x="520.0" y="-8.0" type="curve"/>
      <point x="574.0" y="189.0" type="line"/>
      <point x="502.0" y="207.0" type="line"/>
      <point x="444.0" y="91.0" type="line"/>
      <point x="434.0" y="88.0"/>
      <point x="406.0" y="84.0"/>
      <point x="383.0" y="84.0" type="curve" smooth="yes"/>
      <point x="363.0" y="84.0" type="line" smooth="yes"/>
      <point x="325.0" y="84.0"/>
      <point x="301.0" y="85.0"/>
      <point x="276.0" y="89.0" type="curve"/>
      <point x="272.0" y="109.0"/>
      <point x="271.0" y="149.0"/>
      <point x="271.0" y="234.0" type="curve" smooth="yes"/>
      <point x="271.0" y="354.0" type="line" smooth="yes"/>
      <point x="271.0" y="428.0"/>
      <point x="275.0" y="503.0"/>
      <point x="278.0" y="510.0" type="curve"/>
      <point x="361.0" y="528.0" type="line"/>
      <point x="358.0" y="587.0" type="line"/>
      <point x="34.0" y="587.0" type="line"/>
      <point x="31.0" y="530.0" type="line"/>
      <point x="96.0" y="512.0" type="line"/>
      <point x="100.0" y="502.0"/>
      <point x="103.0" y="423.0"/>
      <point x="103.0" y="354.0" type="curve" smooth="yes"/>
      <point x="103.0" y="234.0" type="line" smooth="yes"/>
      <point x="103.0" y="168.0"/>
      <point x="100.0" y="86.0"/>
      <point x="96.0" y="76.0" type="curve"/>
      <point x="31.0" y="57.0" type="line"/>
      <point x="34.0" y="0.0" type="line"/>
      <point x="326.0" y="0.0" type="line"/>
      <point x="362.0" y="0.0"/>
      <point x="458.0" y="-2.0"/>
    </contour>
  </outline>
</glyph>
<glyph name="M" format="2">
  <advance width="922.0"/>
  <unicode hex="004D"/>
  <note>
M
</note>
  <anchor x="424.0" y="0.0" name="bottom"/>
  <anchor x="424.0" y="587.0" name="top"/>
  <outline>
    <contour>
      <point x="45.0" y="587.0" type="line"/>
      <point x="42.0" y="530.0" type="line"/>
      <point x="107.0" y="511.0" type="line"/>
      <point x="107.0" y="496.0"/>
      <point x="107.0" y="453.0"/>
      <point x="106.0" y="390.0" type="curve" smooth="yes"/>
      <point x="104.0" y="213.0" type="line" smooth="yes"/>
      <point x="103.0" y="160.0"/>
      <point x="102.0" y="85.0"/>
      <point x="100.0" y="76.0" type="curve"/>
      <point x="29.0" y="57.0" type="line"/>
      <point x="32.0" y="0.0" type="line"/>
      <point x="265.0" y="0.0" type="line"/>
      <point x="268.0" y="57.0" type="line"/>
      <point x="197.0" y="76.0" type="line"/>
      <point x="195.0" y="80.0"/>
      <point x="194.0" y="114.0"/>
      <point x="194.0" y="210.0" type="curve" smooth="yes"/>
      <point x="193.0" y="558.0" type="line"/>
      <point x="106.0" y="558.0" type="line"/>
      <point x="386.0" y="-3.0" type="line"/>
      <point x="467.0" y="-3.0" type="line"/>
      <point x="703.0" y="558.0" type="line"/>
      <point x="644.0" y="558.0" type="line"/>
      <point x="648.0" y="231.0" type="line" smooth="yes"/>
      <point x="649.0" y="155.0"/>
      <point x="648.0" y="82.0"/>
      <point x="645.0" y="76.0" type="curve"/>
      <point x="580.0" y="57.0" type="line"/>
      <point x="583.0" y="0.0" type="line"/>
      <point x="892.0" y="0.0" type="line"/>
      <point x="895.0" y="57.0" type="line"/>
      <point x="830.0" y="76.0" type="line"/>
      <point x="828.0" y="80.0"/>
      <point x="821.0" y="149.0"/>
      <point x="818.0" y="223.0" type="curve" smooth="yes"/>
      <point x="811.0" y="393.0" type="line" smooth="yes"/>
      <point x="809.0" y="449.0"/>
      <point x="808.0" y="485.0"/>
      <point x="809.0" y="512.0" type="curve"/>
      <point x="874.0" y="530.0" type="line"/>
      <point x="871.0" y="587.0" type="line"/>
      <point x="629.0" y="587.0" type="line"/>
      <point x="451.0" y="166.0" type="line"/>
      <point x="487.0" y="166.0" type="line"/>
      <point x="278.0" y="587.0" type="line"/>
    </contour>
  </outline>
</glyph>
<glyph name="O" format="2">
  <advance width="726.0"/>
  <unicode hex="004F"/>
  <note>
O
</note>
  <anchor x="363.0" y="0.0" name="bottom"/>
  <anchor x="363.0" y="294.0" name="center"/>
  <anchor x="438.0" y="0.0" name="ogonek"/>
  <anchor x="363.0" y="587.0" name="top"/>
  <anchor x="17.0" y="587.0" name="topleft"/>
  <anchor x="708.0" y="587.0" name="topright"/>
  <outline>
    <contour>
      <point x="370.0" y="-9.0" type="curve" smooth="yes"/>
      <point x="490.0" y="-9.0"/>
      <point x="684.0" y="80.0"/>
      <point x="684.0" y="304.0" type="curve" smooth="yes"/>
      <point x="684.0" y="476.0"/>
      <point x="554.0" y="596.0"/>
      <point x="369.0" y="596.0" type="curve" smooth="yes"/>
      <point x="178.0" y="596.0"/>
      <point x="41.0" y="464.0"/>
      <point x="41.0" y="283.0" type="curve" smooth="yes"/>
      <point x="41.0" y="114.0"/>
      <point x="180.0" y="-9.0"/>
    </contour>
    <contour>
      <point x="376.0" y="78.0" type="curve" smooth="yes"/>
      <point x="291.0" y="78.0"/>
      <point x="234.0" y="177.0"/>
      <point x="234.0" y="319.0" type="curve" smooth="yes"/>
      <point x="234.0" y="445.0"/>
      <point x="281.0" y="519.0"/>
      <point x="357.0" y="519.0" type="curve" smooth="yes"/>
      <point x="440.0" y="519.0"/>
      <point x="492.0" y="426.0"/>
      <point x="492.0" y="277.0" type="curve" smooth="yes"/>
      <point x="492.0" y="147.0"/>
      <point x="457.0" y="78.0"/>
    </contour>
  </outline>
</glyph>
<glyph name="V" format="2">
  <advance width="637.0"/>
  <unicode hex="0056"/>
  <note>
V
</note>
  <anchor x="313.0" y="0.0" name="bottom"/>
  <anchor x="313.0" y="587.0" name="top"/>
  <outline>
    <contour>
      <point x="286.0" y="-3.0" type="line"/>
      <point x="347.0" y="-3.0" type="line"/>
      <point x="592.0" y="511.0" type="line"/>
      <point x="645.0" y="532.0" type="line"/>
      <point x="640.0" y="587.0" type="line"/>
      <point x="422.0" y="587.0" type="line"/>
      <point x="419.0" y="530.0" type="line"/>
      <point x="489.0" y="511.0" type="line"/>
      <point x="344.0" y="154.0" type="line"/>
      <point x="395.0" y="154.0" type="line"/>
      <point x="234.0" y="511.0" type="line"/>
      <point x="297.0" y="530.0" type="line"/>
      <point x="294.0" y="587.0" type="line"/>
      <point x="-4.0" y="587.0" type="line"/>
      <point x="-7.0" y="532.0" type="line"/>
      <point x="46.0" y="511.0" type="line"/>
    </contour>
  </outline>
</glyph>
<glyph name="X" format="2">
  <advance width="628.0"/>
  <unicode hex="0058"/>
  <note>
X
</note>
  <anchor x="310.0" y="0.0" name="bottom"/>
  <anchor x="310.0" y="587.0" name="top"/>
  <outline>
    <contour>
      <point x="624.0" y="0.0" type="line"/>
      <point x="627.0" y="57.0" type="line"/>
      <point x="576.0" y="75.0" type="line"/>
      <point x="392.0" y="341.0" type="line"/>
      <point x="348.0" y="405.0" type="line"/>
      <point x="275.0" y="511.0" type="line"/>
      <point x="316.0" y="530.0" type="line"/>
      <point x="313.0" y="587.0" type="line"/>
      <point x="35.0" y="587.0" type="line"/>
      <point x="32.0" y="530.0" type="line"/>
      <point x="83.0" y="511.0" type="line"/>
      <point x="239.0" y="282.0" type="line"/>
      <point x="287.0" y="217.0" type="line"/>
      <point x="381.0" y="75.0" type="line"/>
      <point x="319.0" y="57.0" type="line"/>
      <point x="322.0" y="0.0" type="line"/>
    </contour>
    <contour>
      <point x="420.0" y="511.0" type="line"/>
      <point x="348.0" y="405.0" type="line"/>
      <point x="239.0" y="282.0" type="line"/>
      <point x="79.0" y="75.0" type="line"/>
      <point x="28.0" y="57.0" type="line"/>
      <point x="31.0" y="0.0" type="line"/>
      <point x="252.0" y="0.0" type="line"/>
      <point x="255.0" y="57.0" type="line"/>
      <point x="190.0" y="75.0" type="line"/>
      <point x="287.0" y="217.0" type="line"/>
      <point x="392.0" y="341.0" type="line"/>
      <point x="532.0" y="511.0" type="line"/>
      <point x="583.0" y="530.0" type="line"/>
      <point x="580.0" y="587.0" type="line"/>
      <point x="382.0" y="587.0" type="line"/>
      <point x="379.0" y="530.0" type="line"/>
    </contour>
  </outline>
</glyph>
<glyph name="Y" format="2">
  <advance width="622.0"/>
  <unicode hex="0059"/>
  <note>
Y
</note>
  <anchor x="311.0" y="0.0" name="bottom"/>
  <anchor x="311.0" y="587.0" name="top"/>
  <anchor x="28.0" y="587.0" name="topleft"/>
  <outline>
    <contour>
      <point x="555.0" y="511.0" type="line"/>
      <point x="606.0" y="530.0" type="line"/>
      <point x="603.0" y="587.0" type="line"/>
      <point x="393.0" y="587.0" type="line"/>
      <point x="390.0" y="530.0" type="line"/>
      <point x="460.0" y="511.0" type="line"/>
      <point x="344.0" y="305.0" type="line"/>
      <point x="373.0" y="305.0" type="line"/>
      <point x="258.0" y="511.0" type="line"/>
      <point x="323.0" y="530.0" type="line"/>
      <point x="320.0" y="587.0" type="line"/>
      <point x="19.0" y="587.0" type="line"/>
      <point x="16.0" y="530.0" type="line"/>
      <point x="67.0" y="511.0" type="line"/>
      <point x="268.0" y="160.0" type="line"/>
      <point x="228.0" y="281.0" type="line"/>
      <point x="228.0" y="178.0" type="line" smooth="yes"/>
      <point x="228.0" y="163.0"/>
      <point x="227.0" y="84.0"/>
      <point x="223.0" y="76.0" type="curve"/>
      <point x="153.0" y="58.0" type="line"/>
      <point x="156.0" y="0.0" type="line"/>
      <point x="466.0" y="0.0" type="line"/>
      <point x="469.0" y="58.0" type="line"/>
      <point x="399.0" y="76.0" type="line"/>
      <point x="394.0" y="84.0"/>
      <point x="393.0" y="163.0"/>
      <point x="393.0" y="178.0" type="curve" smooth="yes"/>
      <point x="393.0" y="281.0" type="line"/>
      <point x="337.0" y="160.0" type="line"/>
    </contour>
  </outline>
</glyph>
<glyph name="bracketright" format="2">
  <advance width="361.0"/>
  <unicode hex="005D"/>
  <note>
bracketright
</note>
  <outline>
    <contour>
      <point x="21.0" y="-220.0" type="line"/>
      <point x="280.0" y="-220.0" type="line"/>
      <point x="280.0" y="722.0" type="line"/>
      <point x="21.0" y="722.0" type="line"/>
      <point x="21.0" y="655.0" type="line"/>
      <point x="124.0" y="655.0" type="line"/>
      <point x="124.0" y="-153.0" type="line"/>
      <point x="21.0" y="-153.0" type="line"/>
    </contour>
  </outline>
</glyph>
<glyph name="a" format="2">
  <advance width="523.0"/>
  <unicode hex="0061"/>
  <note>
a
</note>
  <anchor x="260.0" y="0.0" name="bottom"/>
  <anchor x="473.0" y="0.0" name="ogonek"/>
  <anchor x="260.0" y="446.0" name="top"/>
  <outline>
    <contour>
      <point x="188.0" y="-8.0" type="curve" smooth="yes"/>
      <point x="226.0" y="-8.0"/>
      <point x="274.0" y="26.0"/>
      <point x="314.0" y="80.0" type="curve"/>
      <point x="289.0" y="86.0" type="line"/>
      <point x="311.0" y="36.0" type="line" smooth="yes"/>
      <point x="324.0" y="6.0"/>
      <point x="344.0" y="-8.0"/>
      <point x="375.0" y="-8.0" type="curve" smooth="yes"/>
      <point x="398.0" y="-8.0"/>
      <point x="421.0" y="-2.0"/>
      <point x="447.0" y="10.0" type="curve" smooth="yes"/>
      <point x="523.0" y="44.0" type="line"/>
      <point x="523.0" y="94.0" type="line"/>
      <point x="456.0" y="106.0" type="line"/>
      <point x="449.0" y="119.0"/>
      <point x="447.0" y="133.0"/>
      <point x="447.0" y="178.0" type="curve"/>
      <point x="450.0" y="299.0" type="line"/>
      <point x="451.0" y="395.0"/>
      <point x="370.0" y="454.0"/>
      <point x="239.0" y="454.0" type="curve"/>
      <point x="186.0" y="448.0"/>
      <point x="38.0" y="382.0"/>
      <point x="38.0" y="323.0" type="curve" smooth="yes"/>
      <point x="38.0" y="276.0"/>
      <point x="91.0" y="254.0"/>
      <point x="168.0" y="269.0" type="curve"/>
      <point x="175.0" y="343.0" type="line" smooth="yes"/>
      <point x="177.0" y="363.0"/>
      <point x="183.0" y="371.0"/>
      <point x="198.0" y="371.0" type="curve" smooth="yes"/>
      <point x="240.0" y="371.0"/>
      <point x="284.0" y="330.0"/>
      <point x="284.0" y="291.0" type="curve" smooth="yes"/>
      <point x="284.0" y="266.0" type="line"/>
      <point x="124.0" y="223.0" type="line" smooth="yes"/>
      <point x="63.0" y="207.0"/>
      <point x="33.0" y="173.0"/>
      <point x="33.0" y="121.0" type="curve" smooth="yes"/>
      <point x="33.0" y="70.0"/>
      <point x="89.0" y="-8.0"/>
    </contour>
    <contour>
      <point x="254.0" y="101.0" type="curve" smooth="yes"/>
      <point x="226.0" y="101.0"/>
      <point x="199.0" y="130.0"/>
      <point x="199.0" y="159.0" type="curve" smooth="yes"/>
      <point x="199.0" y="183.0"/>
      <point x="212.0" y="200.0"/>
      <point x="246.0" y="202.0" type="curve" smooth="yes"/>
      <point x="286.0" y="204.0" type="line"/>
      <point x="286.0" y="111.0" type="line"/>
      <point x="277.0" y="104.0"/>
      <point x="264.0" y="101.0"/>
    </contour>
  </outline>
</glyph>
<glyph name="b" format="2">
  <advance width="580.0"/>
  <unicode hex="0062"/>
  <note>
b
</note>
  <anchor x="288.0" y="0.0" name="bottom"/>
  <anchor x="288.0" y="660.0" name="top"/>
  <outline>
    <contour>
      <point x="62.0" y="30.0" type="curve"/>
      <point x="134.0" y="3.0"/>
      <point x="193.0" y="-9.0"/>
      <point x="261.0" y="-9.0" type="curve" smooth="yes"/>
      <point x="448.0" y="-9.0"/>
      <point x="549.0" y="115.0"/>
      <point x="549.0" y="249.0" type="curve" smooth="yes"/>
      <point x="549.0" y="377.0"/>
      <point x="458.0" y="454.0"/>
      <point x="359.0" y="454.0" type="curve" smooth="yes"/>
      <point x="308.0" y="454.0"/>
      <point x="253.0" y="415.0"/>
      <point x="228.0" y="377.0" type="curve"/>
      <point x="225.0" y="378.0" type="line"/>
      <point x="229.0" y="534.0"/>
      <point x="232.0" y="597.0"/>
      <point x="238.0" y="680.0" type="curve"/>
      <point x="205.0" y="700.0" type="line"/>
      <point x="-14.0" y="645.0" type="line"/>
      <point x="-12.0" y="594.0" type="line"/>
      <point x="62.0" y="584.0" type="line"/>
      <point x="64.0" y="551.0"/>
      <point x="67.0" y="503.0"/>
      <point x="67.0" y="360.0" type="curve"/>
      <point x="67.0" y="271.0" type="line"/>
      <point x="67.0" y="189.0"/>
      <point x="66.0" y="94.0"/>
    </contour>
    <contour>
      <point x="288.0" y="83.0" type="curve" smooth="yes"/>
      <point x="269.0" y="83.0"/>
      <point x="244.0" y="92.0"/>
      <point x="228.0" y="104.0" type="curve"/>
      <point x="228.0" y="319.0" type="line"/>
      <point x="242.0" y="330.0"/>
      <point x="263.0" y="340.0"/>
      <point x="287.0" y="340.0" type="curve" smooth="yes"/>
      <point x="331.0" y="340.0"/>
      <point x="375.0" y="306.0"/>
      <point x="376.0" y="213.0" type="curve" smooth="yes"/>
      <point x="377.0" y="113.0"/>
      <point x="338.0" y="83.0"/>
    </contour>
  </outline>
</glyph>
<glyph name="e" format="2">
  <advance width="497.0"/>
  <unicode hex="0065"/>
  <note>
    e
  </note>
  <anchor x="263.0" y="0.0" name="bottom"/>
  <anchor x="410.0" y="0.0" name="ogonek"/>
  <anchor x="263.0" y="446.0" name="top"/>
  <outline>
    <contour>
      <point x="265.0" y="-8.0" type="curve" smooth="yes"/>
      <point x="358.0" y="-8.0"/>
      <point x="437.0" y="39.0"/>
      <point x="474.0" y="126.0" type="curve"/>
      <point x="440.0" y="159.0" type="line"/>
      <point x="406.0" y="122.0"/>
      <point x="369.0" y="106.0"/>
      <point x="324.0" y="106.0" type="curve" smooth="yes"/>
      <point x="241.0" y="106.0"/>
      <point x="190.0" y="167.0"/>
      <point x="190.0" y="250.0" type="curve" smooth="yes"/>
      <point x="190.0" y="276.0" type="line" smooth="yes"/>
      <point x="190.0" y="353.0"/>
      <point x="219.0" y="389.0"/>
      <point x="263.0" y="389.0" type="curve" smooth="yes"/>
      <point x="305.0" y="389.0"/>
      <point x="327.0" y="347.4842452981429"/>
      <point x="327.0" y="298.0" type="curve" smooth="yes"/>
      <point x="327.0" y="255.0" type="line"/>
      <point x="346.0" y="286.0" type="line"/>
      <point x="177.0" y="286.0" type="line"/>
      <point x="177.0" y="229.0" type="line"/>
      <point x="467.0" y="229.0" type="line"/>
      <point x="467.0" y="257.0" type="line" smooth="yes"/>
      <point x="467.0" y="374.0"/>
      <point x="392.0" y="454.0"/>
      <point x="271.0" y="454.0" type="curve" smooth="yes"/>
      <point x="147.0" y="453.0"/>
      <point x="32.0" y="354.0"/>
      <point x="32.0" y="217.0" type="curve" smooth="yes"/>
      <point x="32.0" y="96.0"/>
      <point x="127.0" y="-8.0"/>
    </contour>
  </outline>
</glyph>
<glyph name="f" format="2">
  <advance width="366.28661519430193"/>
  <unicode hex="0066"/>
  <note>
    f
  </note>
  <outline>
    <contour>
      <point x="326.0" y="0.0" type="line"/>
      <point x="329.0" y="51.0" type="line"/>
      <point x="247.0" y="70.0" type="line"/>
      <point x="241.0" y="129.0"/>
      <point x="240.0" y="211.0"/>
      <point x="240.0" y="283.0" type="curve"/>
      <point x="239.0" y="372.0" type="line"/>
      <point x="237.0" y="444.0" type="line"/>
      <point x="237.0" y="513.0" type="line" smooth="yes"/>
      <point x="237.0" y="566.2456957624886"/>
      <point x="243.6964863448202" y="636.8861272256236"/>
      <point x="272.2547690616018" y="636.8861272256236" type="curve" smooth="yes"/>
      <point x="294.46874121982046" y="636.8861272256236"/>
      <point x="316.93514487983657" y="612.6527030530217"/>
      <point x="323.93254610967574" y="566.2578124745755" type="curve"/>
      <point x="331.4942158898673" y="561.5255632542044"/>
      <point x="352.4993777298091" y="556.6129096538796"/>
      <point x="368.4311712466158" y="556.6129096538796" type="curve" smooth="yes"/>
      <point x="410.0823690432769" y="556.6129096538796"/>
      <point x="431.28661519430193" y="578.5744503103001"/>
      <point x="431.28661519430193" y="611.1381140422341" type="curve" smooth="yes"/>
      <point x="431.28661519430193" y="662.6341404090131"/>
      <point x="377.16206997542577" y="698.0"/>
      <point x="303.3038437827481" y="698.0" type="curve" smooth="yes"/>
      <point x="173.04918885501252" y="698.0"/>
      <point x="76.0" y="617.2812870699881"/>
      <point x="76.0" y="458.0" type="curve" smooth="yes"/>
      <point x="76.0" y="372.0" type="line"/>
      <point x="77.0" y="285.0" type="line"/>
      <point x="77.0" y="149.0"/>
      <point x="77.0" y="142.0"/>
      <point x="75.0" y="70.0" type="curve"/>
      <point x="13.0" y="52.0" type="line"/>
      <point x="16.0" y="0.0" type="line"/>
    </contour>
    <contour>
      <point x="4.0" y="372.0" type="line"/>
      <point x="341.0" y="372.0" type="line"/>
      <point x="341.0" y="444.0" type="line"/>
      <point x="125.0" y="444.0" type="line"/>
      <point x="76.0" y="449.0" type="line"/>
      <point x="4.0" y="427.0" type="line"/>
    </contour>
  </outline>
</glyph>
<glyph name="g" format="2">
  <advance width="539.0"/>
  <unicode hex="0067"/>
  <note>
g
</note>
  <anchor x="270.0" y="-220.0" name="bottom"/>
  <anchor x="264.0" y="446.0" name="top"/>
  <outline>
    <contour>
      <point x="253.0" y="-228.0" type="curve" smooth="yes"/>
      <point x="409.0" y="-228.0"/>
      <point x="522.0" y="-152.0"/>
      <point x="522.0" y="-56.0" type="curve" smooth="yes"/>
      <point x="522.0" y="12.0"/>
      <point x="477.0" y="61.0"/>
      <point x="377.0" y="71.0" type="curve" smooth="yes"/>
      <point x="202.0" y="88.0" type="line" smooth="yes"/>
      <point x="190.0" y="89.0"/>
      <point x="184.0" y="94.0"/>
      <point x="184.0" y="107.0" type="curve" smooth="yes"/>
      <point x="184.0" y="118.0"/>
      <point x="192.0" y="127.0"/>
      <point x="202.0" y="132.0" type="curve"/>
      <point x="184.0" y="147.0" type="line"/>
      <point x="102.0" y="127.0"/>
      <point x="52.0" y="87.0"/>
      <point x="52.0" y="40.0" type="curve" smooth="yes"/>
      <point x="52.0" y="-3.0"/>
      <point x="92.0" y="-31.0"/>
      <point x="171.0" y="-31.0" type="curve"/>
      <point x="177.0" y="-36.0" type="line"/>
      <point x="322.0" y="-50.0" type="line" smooth="yes"/>
      <point x="365.0" y="-54.0"/>
      <point x="381.0" y="-67.0"/>
      <point x="381.0" y="-93.0" type="curve" smooth="yes"/>
      <point x="381.0" y="-132.0"/>
      <point x="331.0" y="-162.0"/>
      <point x="267.0" y="-162.0" type="curve" smooth="yes"/>
      <point x="196.0" y="-162.0"/>
      <point x="161.0" y="-140.0"/>
      <point x="161.0" y="-100.0" type="curve" smooth="yes"/>
      <point x="161.0" y="-74.0"/>
      <point x="178.0" y="-44.0"/>
      <point x="202.0" y="-24.0" type="curve"/>
      <point x="157.0" y="-23.0" type="line"/>
      <point x="74.0" y="-34.0"/>
      <point x="12.0" y="-76.0"/>
      <point x="12.0" y="-120.0" type="curve" smooth="yes"/>
      <point x="12.0" y="-188.0"/>
      <point x="100.0" y="-228.0"/>
    </contour>
    <contour>
      <point x="255.0" y="115.0" type="curve" smooth="yes"/>
      <point x="386.0" y="115.0"/>
      <point x="473.0" y="182.0"/>
      <point x="473.0" y="280.0" type="curve" smooth="yes"/>
      <point x="473.0" y="378.0"/>
      <point x="382.0" y="457.0"/>
      <point x="263.0" y="457.0" type="curve" smooth="yes"/>
      <point x="137.0" y="457.0"/>
      <point x="41.0" y="386.0"/>
      <point x="41.0" y="286.0" type="curve" smooth="yes"/>
      <point x="41.0" y="182.0"/>
      <point x="124.0" y="115.0"/>
    </contour>
    <contour>
      <point x="265.0" y="184.0" type="curve" smooth="yes"/>
      <point x="232.0" y="184.0"/>
      <point x="209.0" y="226.0"/>
      <point x="209.0" y="287.0" type="curve" smooth="yes"/>
      <point x="209.0" y="347.0"/>
      <point x="230.0" y="388.0"/>
      <point x="262.0" y="388.0" type="curve" smooth="yes"/>
      <point x="295.0" y="388.0"/>
      <point x="317.0" y="345.0"/>
      <point x="317.0" y="281.0" type="curve" smooth="yes"/>
      <point x="317.0" y="221.0"/>
      <point x="296.0" y="184.0"/>
    </contour>
    <contour>
      <point x="524.0" y="352.0" type="line"/>
      <point x="524.0" y="443.0" type="line"/>
      <point x="362.0" y="421.0" type="line"/>
      <point x="380.0" y="369.0" type="line"/>
    </contour>
  </outline>
</glyph>
<glyph name="n" format="2">
  <advance width="614.0"/>
  <unicode hex="006E"/>
  <note>
n
</note>
  <anchor x="310.0" y="0.0" name="bottom"/>
  <anchor x="310.0" y="446.0" name="top"/>
  <outline>
    <contour>
      <point x="12.0" y="0.0" type="line"/>
      <point x="298.0" y="0.0" type="line"/>
      <point x="301.0" y="52.0" type="line"/>
      <point x="243.0" y="70.0" type="line"/>
      <point x="241.0" y="81.0"/>
      <point x="239.0" y="128.0"/>
      <point x="239.0" y="163.0" type="curve" smooth="yes"/>
      <point x="239.0" y="308.0" type="line"/>
      <point x="258.0" y="330.0"/>
      <point x="282.0" y="341.0"/>
      <point x="308.0" y="341.0" type="curve" smooth="yes"/>
      <point x="351.0" y="341.0"/>
      <point x="381.0" y="312.0"/>
      <point x="381.0" y="242.0" type="curve" smooth="yes"/>
      <point x="381.0" y="173.0" type="line" smooth="yes"/>
      <point x="381.0" y="148.0"/>
      <point x="379.0" y="95.0"/>
      <point x="376.0" y="70.0" type="curve"/>
      <point x="322.0" y="52.0" type="line"/>
      <point x="325.0" y="0.0" type="line"/>
      <point x="605.0" y="0.0" type="line"/>
      <point x="608.0" y="52.0" type="line"/>
      <point x="546.0" y="70.0" type="line"/>
      <point x="543.0" y="80.0"/>
      <point x="542.0" y="126.0"/>
      <point x="542.0" y="169.0" type="curve" smooth="yes"/>
      <point x="542.0" y="270.0" type="line" smooth="yes"/>
      <point x="542.0" y="382.0"/>
      <point x="480.0" y="454.0"/>
      <point x="388.0" y="454.0" type="curve" smooth="yes"/>
      <point x="330.0" y="454.0"/>
      <point x="276.0" y="425.0"/>
      <point x="237.0" y="368.0" type="curve"/>
      <point x="234.0" y="369.0" type="line"/>
      <point x="240.0" y="434.0" type="line"/>
      <point x="206.0" y="452.0" type="line"/>
      <point x="5.0" y="401.0" type="line"/>
      <point x="5.0" y="349.0" type="line"/>
      <point x="69.0" y="335.0" type="line"/>
      <point x="76.0" y="295.0"/>
      <point x="77.0" y="281.0"/>
      <point x="77.0" y="242.0" type="curve"/>
      <point x="76.0" y="167.0" type="line" smooth="yes"/>
      <point x="75.0" y="134.0"/>
      <point x="72.0" y="80.0"/>
      <point x="71.0" y="70.0" type="curve"/>
      <point x="9.0" y="52.0" type="line"/>
    </contour>
  </outline>
</glyph>
<glyph name="o" format="2">
  <advance width="551.0"/>
  <unicode hex="006F"/>
  <note>
o
</note>
  <anchor x="277.0" y="0.0" name="bottom"/>
  <anchor x="277.0" y="223.0" name="center"/>
  <anchor x="347.0" y="0.0" name="ogonek"/>
  <anchor x="277.0" y="446.0" name="top"/>
  <anchor x="533.0" y="446.0" name="topright"/>
  <outline>
    <contour>
      <point x="279.0" y="-8.0" type="curve" smooth="yes"/>
      <point x="412.0" y="-8.0"/>
      <point x="520.0" y="95.0"/>
      <point x="520.0" y="229.0" type="curve" smooth="yes"/>
      <point x="520.0" y="360.0"/>
      <point x="422.0" y="454.0"/>
      <point x="284.0" y="454.0" type="curve" smooth="yes"/>
      <point x="156.0" y="454.0"/>
      <point x="31.0" y="371.0"/>
      <point x="31.0" y="216.0" type="curve" smooth="yes"/>
      <point x="31.0" y="85.0"/>
      <point x="134.0" y="-8.0"/>
    </contour>
    <contour>
      <point x="290.0" y="67.0" type="curve" smooth="yes"/>
      <point x="242.0" y="67.0"/>
      <point x="206.0" y="149.0"/>
      <point x="206.0" y="254.0" type="curve" smooth="yes"/>
      <point x="206.0" y="335.0"/>
      <point x="228.0" y="384.0"/>
      <point x="265.0" y="384.0" type="curve" smooth="yes"/>
      <point x="314.0" y="384.0"/>
      <point x="347.0" y="305.0"/>
      <point x="347.0" y="189.0" type="curve" smooth="yes"/>
      <point x="347.0" y="108.0"/>
      <point x="329.0" y="67.0"/>
    </contour>
  </outline>
</glyph>
<glyph name="q" format="2">
  <advance width="571.0"/>
  <unicode hex="0071"/>
  <note>
q
</note>
  <anchor x="289.0" y="446.0" name="top"/>
  <outline>
    <contour>
      <point x="271.0" y="-220.0" type="line"/>
      <point x="563.0" y="-220.0" type="line"/>
      <point x="566.0" y="-168.0" type="line"/>
      <point x="504.0" y="-150.0" type="line"/>
      <point x="502.0" y="-140.0"/>
      <point x="500.0" y="-91.0"/>
      <point x="499.0" y="-14.0" type="curve" smooth="yes"/>
      <point x="498.0" y="270.0" type="line" smooth="yes"/>
      <point x="497.0" y="330.0"/>
      <point x="500.0" y="430.0"/>
      <point x="501.0" y="475.0" type="curve"/>
      <point x="457.0" y="475.0" type="line"/>
      <point x="404.0" y="431.0" type="line"/>
      <point x="374.0" y="444.0"/>
      <point x="336.0" y="452.0"/>
      <point x="293.0" y="452.0" type="curve" smooth="yes"/>
      <point x="155.0" y="452.0"/>
      <point x="32.0" y="359.0"/>
      <point x="32.0" y="208.0" type="curve" smooth="yes"/>
      <point x="32.0" y="75.0"/>
      <point x="129.0" y="-11.0"/>
      <point x="228.0" y="-11.0" type="curve" smooth="yes"/>
      <point x="267.0" y="-11.0"/>
      <point x="309.0" y="7.0"/>
      <point x="340.0" y="73.0" type="curve"/>
      <point x="343.0" y="70.0" type="line"/>
      <point x="341.0" y="-57.0" type="line" smooth="yes"/>
      <point x="341.0" y="-100.0"/>
      <point x="341.0" y="-138.0"/>
      <point x="340.0" y="-150.0" type="curve"/>
      <point x="268.0" y="-168.0" type="line"/>
    </contour>
    <contour>
      <point x="289.0" y="105.0" type="curve" smooth="yes"/>
      <point x="247.0" y="105.0"/>
      <point x="203.0" y="155.0"/>
      <point x="203.0" y="250.0" type="curve" smooth="yes"/>
      <point x="203.0" y="332.0"/>
      <point x="237.0" y="383.0"/>
      <point x="291.0" y="383.0" type="curve" smooth="yes"/>
      <point x="307.0" y="383.0"/>
      <point x="326.0" y="377.0"/>
      <point x="339.0" y="366.0" type="curve"/>
      <point x="338.0" y="138.0" type="line"/>
      <point x="329.0" y="115.0"/>
      <point x="297.0" y="105.0"/>
    </contour>
  </outline>
</glyph>
<glyph name="r" format="2">
  <advance width="444.0"/>
  <unicode hex="0072"/>
  <note>
    r
  </note>
  <anchor x="161.0" y="0.0" name="bottom"/>
  <anchor x="211.0" y="446.0" name="top"/>
  <outline>
    <contour>
      <point x="355.0" y="450.0" type="curve" smooth="yes"/>
      <point x="309.0" y="450.0"/>
      <point x="272.0" y="428.0"/>
      <point x="236.0" y="353.0" type="curve"/>
      <point x="233.0" y="354.0" type="line"/>
      <point x="237.0" y="433.0" type="line"/>
      <point x="203.0" y="452.0" type="line"/>
      <point x="6.0" y="401.0" type="line"/>
      <point x="6.0" y="349.0" type="line"/>
      <point x="70.0" y="335.0" type="line"/>
      <point x="77.0" y="293.0"/>
      <point x="78.0" y="277.0"/>
      <point x="78.0" y="241.0" type="curve"/>
      <point x="77.0" y="167.0" type="line" smooth="yes"/>
      <point x="76.0" y="136.0"/>
      <point x="73.0" y="80.0"/>
      <point x="72.0" y="70.0" type="curve"/>
      <point x="10.0" y="52.0" type="line"/>
      <point x="13.0" y="0.0" type="line"/>
      <point x="331.0" y="0.0" type="line"/>
      <point x="334.0" y="54.0" type="line"/>
      <point x="247.0" y="71.0" type="line"/>
      <point x="246.0" y="77.0"/>
      <point x="244.0" y="128.0"/>
      <point x="243.0" y="215.0" type="curve" smooth="yes"/>
      <point x="242.0" y="287.42758885592207" type="line"/>
      <point x="249.93251344496184" y="300.48597619847465"/>
      <point x="260.81583566535755" y="307.759625406515"/>
      <point x="271.15239287661007" y="311.5039905187534" type="curve" smooth="yes"/>
      <point x="284.4828299554656" y="316.33287333813473"/>
      <point x="299.2863024281077" y="315.078375646838"/>
      <point x="312.75967954681823" y="311.9447110915646" type="curve" smooth="yes"/>
      <point x="328.69091210473266" y="308.2393936831154"/>
      <point x="345.431764677885" y="297.20701513675954"/>
      <point x="358.124517174846" y="282.82189564020337" type="curve"/>
      <point x="390.2794901671475" y="289.5913636385826"/>
      <point x="432.96098589692906" y="318.23975220772377"/>
      <point x="432.96098589692906" y="369.41693027547126" type="curve" smooth="yes"/>
      <point x="432.96098589692906" y="420.41693027547126"/>
      <point x="394.0" y="450.0"/>
    </contour>
  </outline>
</glyph>
<glyph name="s" format="2">
  <advance width="434.0"/>
  <unicode hex="0073"/>
  <note>
s
</note>
  <anchor x="214.0" y="0.0" name="bottom"/>
  <anchor x="215.0" y="446.0" name="top"/>
  <outline>
    <contour>
      <point x="196.0" y="-8.0" type="curve" smooth="yes"/>
      <point x="328.0" y="-8.0"/>
      <point x="415.0" y="51.0"/>
      <point x="415.0" y="143.0" type="curve" smooth="yes"/>
      <point x="415.0" y="206.0"/>
      <point x="380.0" y="246.0"/>
      <point x="292.0" y="279.0" type="curve" smooth="yes"/>
      <point x="214.0" y="308.0"/>
      <point x="191.0" y="323.0"/>
      <point x="191.0" y="350.0" type="curve" smooth="yes"/>
      <point x="191.0" y="376.0"/>
      <point x="215.0" y="391.0"/>
      <point x="250.0" y="391.0" type="curve" smooth="yes"/>
      <point x="265.0" y="391.0"/>
      <point x="287.0" y="387.0"/>
      <point x="301.0" y="378.0" type="curve"/>
      <point x="322.0" y="306.0" type="line"/>
      <point x="397.0" y="306.0" type="line"/>
      <point x="384.0" y="430.0" type="line"/>
      <point x="354.0" y="443.0"/>
      <point x="303.0" y="454.0"/>
      <point x="256.0" y="454.0" type="curve" smooth="yes"/>
      <point x="127.0" y="454.0"/>
      <point x="38.0" y="392.0"/>
      <point x="38.0" y="303.0" type="curve" smooth="yes"/>
      <point x="38.0" y="236.0"/>
      <point x="72.0" y="194.0"/>
      <point x="171.0" y="159.0" type="curve" smooth="yes"/>
      <point x="242.0" y="134.0"/>
      <point x="258.0" y="121.0"/>
      <point x="258.0" y="94.0" type="curve" smooth="yes"/>
      <point x="258.0" y="72.0"/>
      <point x="241.0" y="59.0"/>
      <point x="204.0" y="59.0" type="curve" smooth="yes"/>
      <point x="179.0" y="59.0"/>
      <point x="152.0" y="66.0"/>
      <point x="125.0" y="80.0" type="curve"/>
      <point x="104.0" y="152.0" type="line"/>
      <point x="29.0" y="152.0" type="line"/>
      <point x="34.0" y="28.0" type="line"/>
      <point x="74.0" y="7.0"/>
      <point x="136.0" y="-8.0"/>
    </contour>
  </outline>
</glyph>
<glyph name="u" format="2">
  <advance width="609.0"/>
  <unicode hex="0075"/>
  <note>
u
</note>
  <anchor x="302.0" y="0.0" name="bottom"/>
  <anchor x="449.0" y="0.0" name="ogonek"/>
  <anchor x="302.0" y="446.0" name="top"/>
  <anchor x="502.0" y="446.0" name="topright"/>
  <outline>
    <contour>
      <point x="536.0" y="103.0" type="line"/>
      <point x="532.0" y="164.0"/>
      <point x="532.0" y="187.0"/>
      <point x="532.0" y="193.0" type="curve" smooth="yes"/>
      <point x="532.0" y="279.0" type="line" smooth="yes"/>
      <point x="532.0" y="367.0"/>
      <point x="532.0" y="416.0"/>
      <point x="536.0" y="433.0" type="curve"/>
      <point x="501.0" y="452.0" type="line"/>
      <point x="299.0" y="401.0" type="line"/>
      <point x="299.0" y="349.0" type="line"/>
      <point x="367.0" y="335.0" type="line"/>
      <point x="371.0" y="293.0"/>
      <point x="371.0" y="279.0"/>
      <point x="371.0" y="219.0" type="curve" smooth="yes"/>
      <point x="371.0" y="143.0" type="line"/>
      <point x="355.0" y="117.0"/>
      <point x="330.0" y="105.0"/>
      <point x="308.0" y="105.0" type="curve" smooth="yes"/>
      <point x="259.0" y="105.0"/>
      <point x="232.0" y="135.0"/>
      <point x="232.0" y="197.0" type="curve"/>
      <point x="233.0" y="265.0" type="line"/>
      <point x="233.0" y="326.0"/>
      <point x="236.0" y="395.0"/>
      <point x="239.0" y="434.0" type="curve"/>
      <point x="204.0" y="452.0" type="line"/>
      <point x="-2.0" y="401.0" type="line"/>
      <point x="-2.0" y="349.0" type="line"/>
      <point x="66.0" y="335.0" type="line"/>
      <point x="69.0" y="319.0"/>
      <point x="69.0" y="297.0"/>
      <point x="69.0" y="264.0" type="curve" smooth="yes"/>
      <point x="69.0" y="179.0" type="line" smooth="yes"/>
      <point x="69.0" y="53.0"/>
      <point x="134.0" y="-11.0"/>
      <point x="236.0" y="-11.0" type="curve" smooth="yes"/>
      <point x="284.0" y="-11.0"/>
      <point x="335.0" y="11.0"/>
      <point x="373.0" y="80.0" type="curve"/>
      <point x="376.0" y="79.0" type="line"/>
      <point x="375.0" y="2.0" type="line"/>
      <point x="410.0" y="-14.0" type="line"/>
      <point x="604.0" y="40.0" type="line"/>
      <point x="604.0" y="90.0" type="line"/>
    </contour>
  </outline>
</glyph>
<glyph name="v" format="2">
  <advance width="518.0"/>
  <unicode hex="0076"/>
  <note>
v
</note>
  <anchor x="260.0" y="0.0" name="bottom"/>
  <anchor x="260.0" y="446.0" name="top"/>
  <outline>
    <contour>
      <point x="230.0" y="-4.0" type="line"/>
      <point x="282.0" y="-4.0" type="line"/>
      <point x="480.0" y="376.0" type="line"/>
      <point x="527.0" y="394.0" type="line"/>
      <point x="524.0" y="446.0" type="line"/>
      <point x="332.0" y="446.0" type="line"/>
      <point x="329.0" y="394.0" type="line"/>
      <point x="391.0" y="376.0" type="line"/>
      <point x="302.0" y="170.0" type="line"/>
      <point x="331.0" y="169.0" type="line"/>
      <point x="233.0" y="376.0" type="line"/>
      <point x="295.0" y="394.0" type="line"/>
      <point x="292.0" y="446.0" type="line"/>
      <point x="-3.0" y="446.0" type="line"/>
      <point x="-6.0" y="394.0" type="line"/>
      <point x="41.0" y="376.0" type="line"/>
    </contour>
  </outline>
</glyph>
<glyph name="w" format="2">
  <advance width="856.0"/>
  <unicode hex="0077"/>
  <note>
w
</note>
  <anchor x="423.0" y="0.0" name="bottom"/>
  <anchor x="472.0" y="446.0" name="top"/>
  <outline>
    <contour>
      <point x="564.0" y="-4.0" type="line"/>
      <point x="616.0" y="-4.0" type="line"/>
      <point x="819.0" y="376.0" type="line"/>
      <point x="866.0" y="394.0" type="line"/>
      <point x="863.0" y="446.0" type="line"/>
      <point x="683.0" y="446.0" type="line"/>
      <point x="680.0" y="394.0" type="line"/>
      <point x="732.0" y="376.0" type="line"/>
      <point x="637.0" y="170.0" type="line"/>
      <point x="661.0" y="169.0" type="line"/>
      <point x="569.0" y="376.0" type="line"/>
      <point x="621.0" y="394.0" type="line"/>
      <point x="618.0" y="446.0" type="line"/>
      <point x="337.0" y="446.0" type="line"/>
      <point x="334.0" y="394.0" type="line"/>
      <point x="379.0" y="376.0" type="line"/>
    </contour>
    <contour>
      <point x="231.0" y="-4.0" type="line"/>
      <point x="283.0" y="-4.0" type="line"/>
      <point x="447.0" y="303.0" type="line"/>
      <point x="405.0" y="373.0" type="line"/>
      <point x="303.0" y="170.0" type="line"/>
      <point x="330.0" y="169.0" type="line"/>
      <point x="234.0" y="376.0" type="line"/>
      <point x="278.0" y="394.0" type="line"/>
      <point x="275.0" y="446.0" type="line"/>
      <point x="-1.0" y="446.0" type="line"/>
      <point x="-5.0" y="394.0" type="line"/>
      <point x="42.0" y="376.0" type="line"/>
    </contour>
  </outline>
</glyph>
<glyph name="x" format="2">
  <advance width="552.0"/>
  <unicode hex="0078"/>
  <note>
x
</note>
  <anchor x="283.0" y="0.0" name="bottom"/>
  <anchor x="283.0" y="446.0" name="top"/>
  <outline>
    <contour>
      <point x="546.0" y="0.0" type="line"/>
      <point x="549.0" y="52.0" type="line"/>
      <point x="502.0" y="70.0" type="line"/>
      <point x="357.0" y="246.0" type="line"/>
      <point x="318.0" y="296.0" type="line"/>
      <point x="252.0" y="376.0" type="line"/>
      <point x="294.0" y="394.0" type="line"/>
      <point x="291.0" y="446.0" type="line"/>
      <point x="16.0" y="446.0" type="line"/>
      <point x="13.0" y="394.0" type="line"/>
      <point x="60.0" y="376.0" type="line"/>
      <point x="188.0" y="219.0" type="line"/>
      <point x="228.0" y="170.0" type="line"/>
      <point x="311.0" y="70.0" type="line"/>
      <point x="264.0" y="52.0" type="line"/>
      <point x="267.0" y="0.0" type="line"/>
    </contour>
    <contour>
      <point x="376.0" y="376.0" type="line"/>
      <point x="318.0" y="296.0" type="line"/>
      <point x="188.0" y="219.0" type="line"/>
      <point x="57.0" y="70.0" type="line"/>
      <point x="10.0" y="52.0" type="line"/>
      <point x="13.0" y="0.0" type="line"/>
      <point x="202.0" y="0.0" type="line"/>
      <point x="205.0" y="52.0" type="line"/>
      <point x="158.0" y="70.0" type="line"/>
      <point x="228.0" y="170.0" type="line"/>
      <point x="357.0" y="246.0" type="line"/>
      <point x="475.0" y="376.0" type="line"/>
      <point x="522.0" y="394.0" type="line"/>
      <point x="519.0" y="446.0" type="line"/>
      <point x="337.0" y="446.0" type="line"/>
      <point x="334.0" y="394.0" type="line"/>
    </contour>
  </outline>
</glyph>
<glyph name="y" format="2">
  <advance width="518.0"/>
  <unicode hex="0079"/>
  <note>
    y
  </note>
  <anchor x="344.0" y="0.0" name="bottom"/>
  <anchor x="312.0" y="446.0" name="top"/>
  <outline>
    <contour>
      <point x="229.0" y="-4.0" type="line"/>
      <point x="330.0" y="169.0" type="line"/>
      <point x="233.0" y="376.0" type="line"/>
      <point x="295.0" y="394.0" type="line"/>
      <point x="292.0" y="446.0" type="line"/>
      <point x="-3.0" y="446.0" type="line"/>
      <point x="-6.0" y="394.0" type="line"/>
      <point x="41.0" y="376.0" type="line"/>
    </contour>
    <contour>
      <point x="102.0" y="-228.0" type="curve" smooth="yes"/>
      <point x="144.0" y="-228.0"/>
      <point x="185.0" y="-209.0"/>
      <point x="224.0" y="-127.0" type="curve" smooth="yes"/>
      <point x="303.0" y="38.0" type="line"/>
      <point x="480.0" y="376.0" type="line"/>
      <point x="527.0" y="394.0" type="line"/>
      <point x="524.0" y="446.0" type="line"/>
      <point x="332.0" y="446.0" type="line"/>
      <point x="329.0" y="394.0" type="line"/>
      <point x="391.0" y="376.0" type="line"/>
      <point x="300.0" y="170.0" type="line"/>
      <point x="285.0" y="143.0" type="line"/>
      <point x="170.13472232900904" y="-66.93196459648243" type="line" smooth="yes"/>
      <point x="158.83722072458036" y="-87.5796899573431"/>
      <point x="137.038386746068" y="-98.51718727456227"/>
      <point x="94.07537278432733" y="-98.51718727456227" type="curve" smooth="yes"/>
      <point x="65.92719122318681" y="-98.51718727456227"/>
      <point x="54.81606692273681" y="-97.77644565453215"/>
      <point x="36.297526421986504" y="-94.81347917441212" type="curve"/>
      <point x="22.964177261446252" y="-113.33201967516243"/>
      <point x="18.0" y="-130.36907693585215"/>
      <point x="18.0" y="-151.85058391672305" type="curve" smooth="yes"/>
      <point x="18.0" y="-200.73953083870379"/>
      <point x="49.0" y="-228.0"/>
    </contour>
  </outline>
</glyph>
<glyph name="bar" format="2">
  <advance width="264.0"/>
  <unicode hex="007C"/>
  <note>
bar
</note>
  <outline>
    <contour>
      <point x="81.0" y="-220.0" type="line"/>
      <point x="183.0" y="-220.0" type="line"/>
      <point x="183.0" y="722.0" type="line"/>
      <point x="81.0" y="722.0" type="line"/>
    </contour>
  </outline>
</glyph>
<glyph name="cent" format="2">
  <advance width="481.0"/>
  <unicode hex="00A2"/>
  <note>
    cent
  </note>
  <outline>
    <contour>
      <point x="295.0" y="454.0" type="curve" smooth="yes"/>
      <point x="138.0" y="454.0"/>
      <point x="31.0" y="336.0"/>
      <point x="31.0" y="210.0" type="curve" smooth="yes"/>
      <point x="31.0" y="88.0"/>
      <point x="134.0" y="-8.0"/>
      <point x="268.0" y="-8.0" type="curve" smooth="yes"/>
      <point x="347.0" y="-8.0"/>
      <point x="427.0" y="39.0"/>
      <point x="465.0" y="130.0" type="curve"/>
      <point x="431.0" y="162.0" type="line"/>
      <point x="394.0" y="120.0"/>
      <point x="357.0" y="108.0"/>
      <point x="328.0" y="108.0" type="curve" smooth="yes"/>
      <point x="258.0" y="108.0"/>
      <point x="205.0" y="157.0"/>
      <point x="205.0" y="255.0" type="curve" smooth="yes"/>
      <point x="205.0" y="346.0"/>
      <point x="257.4192455542966" y="387.5941560183537"/>
      <point x="306.76477623089545" y="387.5941560183537" type="curve" smooth="yes"/>
      <point x="316.6717399041385" y="387.5941560183537"/>
      <point x="321.405724399276" y="383.24722001684097"/>
      <point x="323.4114612784226" y="376.29819116467456" type="curve" smooth="yes"/>
      <point x="327.1864163946075" y="363.2195703890736"/>
      <point x="331.73480380218643" y="326.9526604880757"/>
      <point x="332.92385273415266" y="304.9552552467003" type="curve"/>
      <point x="346.59791545176427" y="296.6319127229367"/>
      <point x="365.5627572663798" y="291.28119252908846"/>
      <point x="382.86390787673463" y="291.28119252908846" type="curve" smooth="yes"/>
      <point x="427.35258087478974" y="291.28119252908846"/>
      <point x="464.0" y="314.0"/>
      <point x="464.0" y="353.0" type="curve" smooth="yes"/>
      <point x="464.0" y="414.0"/>
      <point x="383.0" y="454.0"/>
    </contour>
    <contour>
      <point x="264.0" y="-141.0" type="line"/>
      <point x="346.0" y="-141.0" type="line"/>
      <point x="346.0" y="587.0" type="line"/>
      <point x="264.0" y="587.0" type="line"/>
    </contour>
  </outline>
</glyph>
<glyph name="sterling" format="2">
  <advance width="605.0"/>
  <unicode hex="00A3"/>
  <note>
    sterling
  </note>
  <outline>
    <contour>
      <point x="26.0" y="271.0" type="line"/>
      <point x="465.0" y="271.0" type="line"/>
      <point x="465.0" y="340.0" type="line"/>
      <point x="26.0" y="340.0" type="line"/>
    </contour>
    <contour>
      <point x="52.0" y="-15.0" type="line"/>
      <point x="168.0" y="21.0"/>
      <point x="188.0" y="22.0"/>
      <point x="213.0" y="22.0" type="curve" smooth="yes"/>
      <point x="293.0" y="22.0"/>
      <point x="295.0" y="-10.0"/>
      <point x="422.0" y="-10.0" type="curve" smooth="yes"/>
      <point x="512.0" y="-10.0"/>
      <point x="578.0" y="67.0"/>
      <point x="605.0" y="161.0" type="curve"/>
      <point x="554.0" y="185.0" type="line"/>
      <point x="532.0" y="142.0"/>
      <point x="520.0" y="125.0"/>
      <point x="467.0" y="125.0" type="curve" smooth="yes"/>
      <point x="417.0" y="125.0"/>
      <point x="374.0" y="147.0"/>
      <point x="330.0" y="147.0" type="curve" smooth="yes"/>
      <point x="280.0" y="147.0"/>
      <point x="247.0" y="119.0"/>
      <point x="153.0" y="49.0" type="curve"/>
      <point x="163.0" y="32.0" type="line"/>
      <point x="298.0" y="161.0"/>
      <point x="309.0" y="185.0"/>
      <point x="309.0" y="268.0" type="curve" smooth="yes"/>
      <point x="309.0" y="339.0"/>
      <point x="265.0" y="389.0"/>
      <point x="265.0" y="444.0" type="curve" smooth="yes"/>
      <point x="265.0" y="490.0"/>
      <point x="292.49061194739784" y="534.7460778674135"/>
      <point x="335.0667732821396" y="534.7460778674135" type="curve" smooth="yes"/>
      <point x="356.8717589596561" y="534.7460778674135"/>
      <point x="372.93351490496804" y="524.5410148798497"/>
      <point x="384.7569068439469" y="509.0155518364515" type="curve" smooth="yes"/>
      <point x="397.6687479791209" y="492.0608307715517"/>
      <point x="405.5259468107703" y="468.7610390252022"/>
      <point x="410.28841281842506" y="445.47787187666745" type="curve"/>
      <point x="423.1945463799914" y="439.611447530501"/>
      <point x="443.64579575702305" y="435.40170141969156"/>
      <point x="473.64579575702305" y="435.40170141969156" type="curve" smooth="yes"/>
      <point x="527.0302573071383" y="435.40170141969156"/>
      <point x="555.0" y="466.0"/>
      <point x="555.0" y="499.0" type="curve" smooth="yes"/>
      <point x="555.0" y="560.0"/>
      <point x="483.0" y="596.0"/>
      <point x="372.0" y="596.0" type="curve" smooth="yes"/>
      <point x="201.0" y="596.0"/>
      <point x="89.0" y="513.0"/>
      <point x="89.0" y="395.0" type="curve" smooth="yes"/>
      <point x="89.0" y="351.0"/>
      <point x="155.0" y="273.0"/>
      <point x="155.0" y="173.0" type="curve" smooth="yes"/>
      <point x="155.0" y="101.0"/>
      <point x="128.0" y="70.0"/>
      <point x="41.0" y="47.0" type="curve"/>
    </contour>
  </outline>
</glyph>
<glyph name="plusminus" format="2">
  <advance width="540.0"/>
  <unicode hex="00B1"/>
  <outline>
    <contour>
      <point x="487.0" y="351.0" type="line"/>
      <point x="53.0" y="351.0" type="line"/>
      <point x="53.0" y="254.0" type="line"/>
      <point x="487.0" y="254.0" type="line"/>
    </contour>
    <contour>
      <point x="220.0" y="473.0" type="line"/>
      <point x="220.0" y="130.0" type="line"/>
      <point x="320.0" y="130.0" type="line"/>
      <point x="320.0" y="473.0" type="line"/>
    </contour>
    <contour>
      <point x="487.0" y="100.0" type="line"/>
      <point x="53.0" y="100.0" type="line"/>
      <point x="53.0" y="0.0" type="line"/>
      <point x="487.0" y="0.0" type="line"/>
    </contour>
  </outline>
</glyph>
<glyph name="periodcentered" format="2">
  <advance width="331.0"/>
  <unicode hex="00B7"/>
  <note>
periodcentered
</note>
  <outline>
    <contour>
      <point x="165.0" y="113.0" type="curve" smooth="yes"/>
      <point x="228.0" y="113.0"/>
      <point x="279.0" y="161.0"/>
      <point x="279.0" y="223.0" type="curve" smooth="yes"/>
      <point x="279.0" y="286.0"/>
      <point x="228.0" y="338.0"/>
      <point x="165.0" y="338.0" type="curve" smooth="yes"/>
      <point x="104.0" y="338.0"/>
      <point x="52.0" y="286.0"/>
      <point x="52.0" y="223.0" type="curve" smooth="yes"/>
      <point x="52.0" y="161.0"/>
      <point x="104.0" y="113.0"/>
    </contour>
  </outline>
</glyph>
<glyph name="ordmasculine" format="2">
  <advance width="460.0"/>
  <unicode hex="00BA"/>
  <note>
ordmasculine
</note>
  <outline>
    <contour>
      <point x="233.0" y="217.0" type="curve" smooth="yes"/>
      <point x="346.0" y="217.0"/>
      <point x="435.0" y="303.0"/>
      <point x="435.0" y="412.0" type="curve" smooth="yes"/>
      <point x="435.0" y="517.0"/>
      <point x="352.0" y="595.0"/>
      <point x="237.0" y="595.0" type="curve" smooth="yes"/>
      <point x="108.0" y="595.0"/>
      <point x="25.0" y="509.0"/>
      <point x="25.0" y="397.0" type="curve" smooth="yes"/>
      <point x="25.0" y="293.0"/>
      <point x="112.0" y="217.0"/>
    </contour>
    <contour>
      <point x="244.0" y="287.0" type="curve" smooth="yes"/>
      <point x="213.0" y="287.0"/>
      <point x="184.0" y="359.0"/>
      <point x="184.0" y="440.0" type="curve" smooth="yes"/>
      <point x="184.0" y="500.0"/>
      <point x="195.0" y="530.0"/>
      <point x="217.0" y="530.0" type="curve" smooth="yes"/>
      <point x="252.0" y="530.0"/>
      <point x="277.0" y="461.0"/>
      <point x="277.0" y="367.0" type="curve" smooth="yes"/>
      <point x="277.0" y="307.0"/>
      <point x="268.0" y="287.0"/>
    </contour>
  </outline>
</glyph>
<glyph name="Thorn" format="2">
  <advance width="612.0"/>
  <unicode hex="00DE"/>
  <note>
Thorn
</note>
  <outline>
    <contour>
      <point x="35.0" y="0.0" type="line"/>
      <point x="348.0" y="0.0" type="line"/>
      <point x="351.0" y="59.0" type="line"/>
      <point x="270.0" y="76.0" type="line"/>
      <point x="270.0" y="82.0"/>
      <point x="270.0" y="105.0"/>
      <point x="270.0" y="137.0" type="curve" smooth="yes"/>
      <point x="270.0" y="432.0" type="line"/>
      <point x="283.0" y="432.0" type="line" smooth="yes"/>
      <point x="362.0" y="432.0"/>
      <point x="402.0" y="394.0"/>
      <point x="402.0" y="307.0" type="curve" smooth="yes"/>
      <point x="402.0" y="236.0"/>
      <point x="372.0" y="191.0"/>
      <point x="308.0" y="191.0" type="curve" smooth="yes"/>
      <point x="286.0" y="191.0"/>
      <point x="264.0" y="197.0"/>
      <point x="257.0" y="205.0" type="curve"/>
      <point x="257.0" y="128.0" type="line"/>
      <point x="276.0" y="124.0"/>
      <point x="299.0" y="121.0"/>
      <point x="316.0" y="121.0" type="curve" smooth="yes"/>
      <point x="493.0" y="121.0"/>
      <point x="580.0" y="211.0"/>
      <point x="580.0" y="321.0" type="curve" smooth="yes"/>
      <point x="580.0" y="434.0"/>
      <point x="497.0" y="495.0"/>
      <point x="313.0" y="495.0" type="curve" smooth="yes"/>
      <point x="225.0" y="495.0" type="line"/>
      <point x="269.0" y="456.0" type="line"/>
      <point x="269.0" y="479.0" type="line" smooth="yes"/>
      <point x="269.0" y="491.0"/>
      <point x="270.0" y="508.0"/>
      <point x="271.0" y="514.0" type="curve"/>
      <point x="336.0" y="530.0" type="line"/>
      <point x="333.0" y="587.0" type="line"/>
      <point x="33.0" y="587.0" type="line"/>
      <point x="30.0" y="530.0" type="line"/>
      <point x="95.0" y="514.0" type="line"/>
      <point x="99.0" y="507.0"/>
      <point x="103.0" y="437.0"/>
      <point x="103.0" y="354.0" type="curve" smooth="yes"/>
      <point x="103.0" y="234.0" type="line" smooth="yes"/>
      <point x="103.0" y="152.0"/>
      <point x="99.0" y="83.0"/>
      <point x="94.0" y="76.0" type="curve"/>
      <point x="32.0" y="57.0" type="line"/>
    </contour>
  </outline>
</glyph>
<glyph name="germandbls" format="2">
  <advance width="666.0"/>
  <unicode hex="00DF"/>
  <note>
germandbls
</note>
  <outline>
    <contour>
      <point x="455.0" y="-8.0" type="curve" smooth="yes"/>
      <point x="576.0" y="-8.0"/>
      <point x="653.0" y="51.0"/>
      <point x="653.0" y="149.0" type="curve" smooth="yes"/>
      <point x="653.0" y="307.0"/>
      <point x="448.0" y="290.0"/>
      <point x="448.0" y="372.0" type="curve" smooth="yes"/>
      <point x="448.0" y="426.0"/>
      <point x="535.0" y="475.0"/>
      <point x="536.0" y="549.0" type="curve" smooth="yes"/>
      <point x="538.0" y="642.0"/>
      <point x="454.0" y="698.0"/>
      <point x="334.0" y="698.0" type="curve" smooth="yes"/>
      <point x="175.0" y="698.0"/>
      <point x="75.0" y="600.0"/>
      <point x="75.0" y="465.0" type="curve" smooth="yes"/>
      <point x="75.0" y="372.0" type="line"/>
      <point x="77.0" y="213.0" type="line" smooth="yes"/>
      <point x="78.0" y="170.0"/>
      <point x="75.0" y="99.0"/>
      <point x="72.0" y="70.0" type="curve"/>
      <point x="20.0" y="52.0" type="line"/>
      <point x="23.0" y="0.0" type="line"/>
      <point x="289.0" y="0.0" type="line"/>
      <point x="292.0" y="52.0" type="line"/>
      <point x="244.0" y="70.0" type="line"/>
      <point x="244.0" y="70.0"/>
      <point x="242.0" y="103.0"/>
      <point x="241.0" y="257.0" type="curve" smooth="yes"/>
      <point x="239.0" y="525.0" type="line"/>
      <point x="239.0" y="597.0"/>
      <point x="271.0" y="633.0"/>
      <point x="321.0" y="633.0" type="curve" smooth="yes"/>
      <point x="372.0" y="633.0"/>
      <point x="397.0" y="599.0"/>
      <point x="397.0" y="532.0" type="curve" smooth="yes"/>
      <point x="397.0" y="429.0"/>
      <point x="305.0" y="397.0"/>
      <point x="305.0" y="320.0" type="curve" smooth="yes"/>
      <point x="305.0" y="172.0"/>
      <point x="506.0" y="201.0"/>
      <point x="506.0" y="104.0" type="curve" smooth="yes"/>
      <point x="506.0" y="77.0"/>
      <point x="489.0" y="59.0"/>
      <point x="460.0" y="59.0" type="curve" smooth="yes"/>
      <point x="443.0" y="59.0"/>
      <point x="416.0" y="61.0"/>
      <point x="392.0" y="78.0" type="curve"/>
      <point x="377.0" y="150.0" type="line"/>
      <point x="308.0" y="150.0" type="line"/>
      <point x="314.0" y="28.0" type="line"/>
      <point x="353.0" y="8.0"/>
      <point x="403.0" y="-8.0"/>
    </contour>
    <contour>
      <point x="-1.0" y="372.0" type="line"/>
      <point x="144.0" y="372.0" type="line"/>
      <point x="144.0" y="444.0" type="line"/>
      <point x="75.0" y="449.0" type="line"/>
      <point x="-1.0" y="427.0" type="line"/>
    </contour>
  </outline>
</glyph>
<glyph name="ae" format="2">
  <advance width="751.0"/>
  <unicode hex="00E6"/>
  <note>
ae
</note>
  <anchor x="376.0" y="0.0" name="bottom"/>
  <anchor x="376.0" y="446.0" name="top"/>
  <outline>
    <contour>
      <point x="217.0" y="-8.0" type="curve" smooth="yes"/>
      <point x="245.0" y="-8.0"/>
      <point x="305.0" y="18.0"/>
      <point x="369.0" y="90.0" type="curve"/>
      <point x="336.0" y="141.0" type="line"/>
      <point x="313.0" y="114.0"/>
      <point x="297.0" y="101.0"/>
      <point x="266.0" y="101.0" type="curve" smooth="yes"/>
      <point x="235.0" y="101.0"/>
      <point x="200.0" y="121.0"/>
      <point x="200.0" y="150.0" type="curve" smooth="yes"/>
      <point x="200.0" y="171.0"/>
      <point x="214.0" y="186.0"/>
      <point x="255.0" y="191.0" type="curve" smooth="yes"/>
      <point x="719.0" y="249.0" type="line"/>
      <point x="719.0" y="369.0"/>
      <point x="653.0" y="454.0"/>
      <point x="540.0" y="454.0" type="curve" smooth="yes"/>
      <point x="471.0" y="454.0"/>
      <point x="415.0" y="420.0"/>
      <point x="377.0" y="366.0" type="curve"/>
      <point x="439.0" y="366.0" type="line"/>
      <point x="403.0" y="425.0"/>
      <point x="337.0" y="454.0"/>
      <point x="242.0" y="454.0" type="curve"/>
      <point x="192.0" y="448.0"/>
      <point x="44.0" y="382.0"/>
      <point x="44.0" y="323.0" type="curve" smooth="yes"/>
      <point x="44.0" y="279.0"/>
      <point x="93.0" y="253.0"/>
      <point x="175.0" y="269.0" type="curve"/>
      <point x="181.0" y="343.0" type="line" smooth="yes"/>
      <point x="183.0" y="366.0"/>
      <point x="192.0" y="371.0"/>
      <point x="204.0" y="371.0" type="curve" smooth="yes"/>
      <point x="252.0" y="371.0"/>
      <point x="293.0" y="329.0"/>
      <point x="293.0" y="265.0" type="curve" smooth="yes"/>
      <point x="293.0" y="221.0" type="line" smooth="yes"/>
      <point x="293.0" y="95.0"/>
      <point x="396.0" y="-8.0"/>
      <point x="525.0" y="-8.0" type="curve" smooth="yes"/>
      <point x="616.0" y="-8.0"/>
      <point x="694.0" y="39.0"/>
      <point x="727.0" y="126.0" type="curve"/>
      <point x="693.0" y="158.0" type="line"/>
      <point x="662.0" y="122.0"/>
      <point x="626.0" y="106.0"/>
      <point x="584.0" y="106.0" type="curve" smooth="yes"/>
      <point x="504.0" y="106.0"/>
      <point x="457.0" y="170.0"/>
      <point x="457.0" y="250.0" type="curve" smooth="yes"/>
      <point x="457.0" y="273.0" type="line" smooth="yes"/>
      <point x="457.0" y="362.0"/>
      <point x="483.0" y="389.0"/>
      <point x="522.0" y="389.0" type="curve" smooth="yes"/>
      <point x="557.0" y="389.0"/>
      <point x="578.0" y="359.0"/>
      <point x="578.0" y="296.0" type="curve" smooth="yes"/>
      <point x="578.0" y="255.0" type="line"/>
      <point x="603.0" y="292.0" type="line"/>
      <point x="190.0" y="241.0" type="line" smooth="yes"/>
      <point x="76.0" y="227.0"/>
      <point x="34.0" y="185.0"/>
      <point x="34.0" y="121.0" type="curve" smooth="yes"/>
      <point x="34.0" y="76.0"/>
      <point x="92.0" y="-8.0"/>
    </contour>
  </outline>
</glyph>
<glyph name="divide" format="2">
  <advance width="540.0"/>
  <unicode hex="00F7"/>
  <outline>
    <contour>
      <point x="487.0" y="306.0" type="line"/>
      <point x="53.0" y="306.0" type="line"/>
      <point x="53.0" y="205.0" type="line"/>
      <point x="487.0" y="205.0" type="line"/>
    </contour>
    <contour>
      <point x="264.0" y="9.0" type="curve" smooth="yes"/>
      <point x="305.0" y="9.0"/>
      <point x="339.0" y="42.0"/>
      <point x="339.0" y="83.0" type="curve" smooth="yes"/>
      <point x="339.0" y="126.0"/>
      <point x="305.0" y="162.0"/>
      <point x="264.0" y="162.0" type="curve" smooth="yes"/>
      <point x="224.0" y="162.0"/>
      <point x="189.0" y="126.0"/>
      <point x="189.0" y="83.0" type="curve" smooth="yes"/>
      <point x="189.0" y="42.0"/>
      <point x="224.0" y="9.0"/>
    </contour>
    <contour>
      <point x="264.0" y="350.0" type="curve" smooth="yes"/>
      <point x="305.0" y="350.0"/>
      <point x="339.0" y="382.0"/>
      <point x="339.0" y="424.0" type="curve" smooth="yes"/>
      <point x="339.0" y="467.0"/>
      <point x="305.0" y="502.0"/>
      <point x="264.0" y="502.0" type="curve" smooth="yes"/>
      <point x="224.0" y="502.0"/>
      <point x="189.0" y="467.0"/>
      <point x="189.0" y="424.0" type="curve" smooth="yes"/>
      <point x="189.0" y="382.0"/>
      <point x="224.0" y="350.0"/>
    </contour>
  </outline>
</glyph>
<glyph name="Aogonek" format="2">
  <advance width="633.0"/>
  <unicode hex="0104"/>
  <note>
Aogonek
</note>
  <anchor x="270.0" y="0.0" name="bottom"/>
  <anchor x="301.0" y="587.0" name="top"/>
  <outline>
    <contour>
      <point x="530.0" y="-223.0" type="curve" smooth="yes"/>
      <point x="578.0" y="-223.0"/>
      <point x="622.0" y="-206.0"/>
      <point x="651.0" y="-173.0" type="curve"/>
      <point x="619.0" y="-127.0" type="line"/>
      <point x="594.0" y="-151.0"/>
      <point x="572.0" y="-161.0"/>
      <point x="552.0" y="-161.0" type="curve" smooth="yes"/>
      <point x="522.0" y="-161.0"/>
      <point x="503.0" y="-139.0"/>
      <point x="503.0" y="-108.0" type="curve" smooth="yes"/>
      <point x="503.0" y="-60.0"/>
      <point x="557.0" y="-16.0"/>
      <point x="639.0" y="0.0" type="curve"/>
      <point x="642.0" y="57.0" type="line"/>
      <point x="589.0" y="76.0" type="line"/>
      <point x="351.0" y="605.0" type="line"/>
      <point x="252.0" y="550.0" type="line"/>
      <point x="50.0" y="76.0" type="line"/>
      <point x="-3.0" y="57.0" type="line"/>
      <point x="0.0" y="0.0" type="line"/>
      <point x="210.0" y="0.0" type="line"/>
      <point x="213.0" y="57.0" type="line"/>
      <point x="147.0" y="76.0" type="line"/>
      <point x="191.0" y="203.0" type="line"/>
      <point x="200.0" y="233.0" type="line"/>
      <point x="274.0" y="433.0" type="line"/>
      <point x="236.0" y="439.0" type="line"/>
      <point x="331.0" y="228.0" type="line"/>
      <point x="342.0" y="191.0" type="line"/>
      <point x="391.0" y="76.0" type="line"/>
      <point x="325.0" y="57.0" type="line"/>
      <point x="330.0" y="0.0" type="line"/>
      <point x="548.0" y="0.0" type="line"/>
      <point x="536.0" y="9.0" type="line"/>
      <point x="461.0" y="-4.0"/>
      <point x="391.0" y="-61.0"/>
      <point x="391.0" y="-116.0" type="curve" smooth="yes"/>
      <point x="391.0" y="-177.0"/>
      <point x="454.0" y="-223.0"/>
    </contour>
    <contour>
      <point x="162.0" y="160.0" type="line"/>
      <point x="172.0" y="161.0"/>
      <point x="199.0" y="163.0"/>
      <point x="264.0" y="163.0" type="curve" smooth="yes"/>
      <point x="327.0" y="163.0"/>
      <point x="356.0" y="161.0"/>
      <point x="367.0" y="161.0" type="curve"/>
      <point x="367.0" y="238.0" type="line"/>
      <point x="340.0" y="237.0"/>
      <point x="313.0" y="233.0"/>
      <point x="264.0" y="233.0" type="curve" smooth="yes"/>
      <point x="213.0" y="233.0"/>
      <point x="190.0" y="237.0"/>
      <point x="162.0" y="238.0" type="curve"/>
    </contour>
  </outline>
</glyph>
<glyph name="aogonek" format="2">
  <advance width="523.0"/>
  <unicode hex="0105"/>
  <note>
aogonek
</note>
  <anchor x="260.0" y="446.0" name="top"/>
  <outline>
    <contour>
      <point x="417.0" y="-223.0" type="curve" smooth="yes"/>
      <point x="467.0" y="-223.0"/>
      <point x="507.0" y="-206.0"/>
      <point x="538.0" y="-173.0" type="curve"/>
      <point x="507.0" y="-127.0" type="line"/>
      <point x="481.0" y="-151.0"/>
      <point x="459.0" y="-161.0"/>
      <point x="439.0" y="-161.0" type="curve" smooth="yes"/>
      <point x="412.0" y="-161.0"/>
      <point x="391.0" y="-142.0"/>
      <point x="391.0" y="-108.0" type="curve" smooth="yes"/>
      <point x="391.0" y="-71.0"/>
      <point x="413.0" y="-37.0"/>
      <point x="523.0" y="44.0" type="curve"/>
      <point x="523.0" y="94.0" type="line"/>
      <point x="456.0" y="106.0" type="line"/>
      <point x="448.0" y="123.0"/>
      <point x="446.0" y="140.0"/>
      <point x="447.0" y="178.0" type="curve" smooth="yes"/>
      <point x="450.0" y="299.0" type="line"/>
      <point x="451.0" y="395.0"/>
      <point x="370.0" y="454.0"/>
      <point x="239.0" y="454.0" type="curve"/>
      <point x="186.0" y="448.0"/>
      <point x="38.0" y="382.0"/>
      <point x="38.0" y="323.0" type="curve" smooth="yes"/>
      <point x="38.0" y="276.0"/>
      <point x="91.0" y="254.0"/>
      <point x="168.0" y="269.0" type="curve"/>
      <point x="175.0" y="343.0" type="line" smooth="yes"/>
      <point x="177.0" y="365.0"/>
      <point x="184.0" y="371.0"/>
      <point x="198.0" y="371.0" type="curve" smooth="yes"/>
      <point x="240.0" y="371.0"/>
      <point x="284.0" y="330.0"/>
      <point x="284.0" y="291.0" type="curve" smooth="yes"/>
      <point x="284.0" y="266.0" type="line"/>
      <point x="124.0" y="223.0" type="line" smooth="yes"/>
      <point x="65.0" y="207.0"/>
      <point x="33.0" y="174.0"/>
      <point x="33.0" y="121.0" type="curve" smooth="yes"/>
      <point x="33.0" y="70.0"/>
      <point x="89.0" y="-8.0"/>
      <point x="188.0" y="-8.0" type="curve" smooth="yes"/>
      <point x="226.0" y="-8.0"/>
      <point x="274.0" y="26.0"/>
      <point x="314.0" y="80.0" type="curve"/>
      <point x="289.0" y="86.0" type="line"/>
      <point x="311.0" y="36.0" type="line" smooth="yes"/>
      <point x="331.0" y="-9.0"/>
      <point x="365.0" y="-11.0"/>
      <point x="415.0" y="-4.0" type="curve"/>
      <point x="398.0" y="5.0" type="line"/>
      <point x="315.0" y="-31.0"/>
      <point x="278.0" y="-73.0"/>
      <point x="278.0" y="-116.0" type="curve" smooth="yes"/>
      <point x="278.0" y="-180.0"/>
      <point x="344.0" y="-223.0"/>
    </contour>
    <contour>
      <point x="254.0" y="101.0" type="curve" smooth="yes"/>
      <point x="225.0" y="101.0"/>
      <point x="199.0" y="131.0"/>
      <point x="199.0" y="159.0" type="curve" smooth="yes"/>
      <point x="199.0" y="183.0"/>
      <point x="212.0" y="200.0"/>
      <point x="246.0" y="202.0" type="curve" smooth="yes"/>
      <point x="286.0" y="204.0" type="line"/>
      <point x="286.0" y="111.0" type="line"/>
      <point x="279.0" y="108.0"/>
      <point x="266.0" y="101.0"/>
    </contour>
  </outline>
</glyph>
<glyph name="idotless" format="2">
  <advance width="319.0"/>
  <unicode hex="0131"/>
  <note>
dotlessi
</note>
  <anchor x="160.0" y="0.0" name="bottom"/>
  <anchor x="218.0" y="0.0" name="ogonek"/>
  <anchor x="160.0" y="446.0" name="top"/>
  <outline>
    <contour>
      <point x="10.0" y="0.0" type="line"/>
      <point x="307.0" y="0.0" type="line"/>
      <point x="310.0" y="54.0" type="line"/>
      <point x="245.0" y="70.0" type="line"/>
      <point x="243.0" y="81.0"/>
      <point x="241.0" y="129.0"/>
      <point x="241.0" y="163.0" type="curve" smooth="yes"/>
      <point x="241.0" y="291.0" type="line" smooth="yes"/>
      <point x="241.0" y="346.0"/>
      <point x="243.0" y="389.0"/>
      <point x="247.0" y="434.0" type="curve"/>
      <point x="212.0" y="452.0" type="line"/>
      <point x="4.0" y="401.0" type="line"/>
      <point x="4.0" y="349.0" type="line"/>
      <point x="70.0" y="335.0" type="line"/>
      <point x="77.0" y="295.0"/>
      <point x="78.0" y="278.0"/>
      <point x="78.0" y="241.0" type="curve"/>
      <point x="77.0" y="167.0" type="line"/>
      <point x="76.0" y="135.0"/>
      <point x="73.0" y="80.0"/>
      <point x="72.0" y="70.0" type="curve"/>
      <point x="7.0" y="54.0" type="line"/>
    </contour>
  </outline>
</glyph>
<glyph name="Eng" format="2">
  <advance width="719.0"/>
  <unicode hex="014A"/>
  <note>
    Eng
  </note>
  <outline>
    <contour>
      <point x="416.0" y="-203.0" type="curve" smooth="yes"/>
      <point x="557.0" y="-203.0"/>
      <point x="614.0" y="-121.0"/>
      <point x="614.0" y="65.0" type="curve" smooth="yes"/>
      <point x="614.0" y="320.0" type="line" smooth="yes"/>
      <point x="614.0" y="431.0"/>
      <point x="617.0" y="502.0"/>
      <point x="621.0" y="511.0" type="curve"/>
      <point x="686.0" y="530.0" type="line"/>
      <point x="683.0" y="587.0" type="line"/>
      <point x="456.0" y="587.0" type="line"/>
      <point x="452.0" y="530.0" type="line"/>
      <point x="523.0" y="511.0" type="line"/>
      <point x="527.0" y="502.0"/>
      <point x="530.0" y="420.0"/>
      <point x="530.0" y="320.0" type="curve" smooth="yes"/>
      <point x="530.0" y="210.0" type="line"/>
      <point x="585.0" y="210.0" type="line"/>
      <point x="207.0" y="587.0" type="line"/>
      <point x="35.0" y="587.0" type="line"/>
      <point x="32.0" y="530.0" type="line"/>
      <point x="97.0" y="511.0" type="line"/>
      <point x="99.0" y="495.0"/>
      <point x="104.0" y="436.0"/>
      <point x="104.0" y="394.0" type="curve" smooth="yes"/>
      <point x="104.0" y="286.0" type="line" smooth="yes"/>
      <point x="104.0" y="174.0"/>
      <point x="101.0" y="87.0"/>
      <point x="97.0" y="76.0" type="curve"/>
      <point x="32.0" y="57.0" type="line"/>
      <point x="35.0" y="0.0" type="line"/>
      <point x="268.0" y="0.0" type="line"/>
      <point x="271.0" y="57.0" type="line"/>
      <point x="200.0" y="76.0" type="line"/>
      <point x="193.0" y="90.0"/>
      <point x="192.0" y="178.0"/>
      <point x="192.0" y="286.0" type="curve" smooth="yes"/>
      <point x="192.0" y="442.0" type="line"/>
      <point x="118.0" y="442.0" type="line"/>
      <point x="542.0" y="-6.0" type="line"/>
      <point x="530.0" y="89.0" type="line"/>
      <point x="530.0" y="-10.0" type="line" smooth="yes"/>
      <point x="530.0" y="-96.0"/>
      <point x="493.41853252273677" y="-134.0"/>
      <point x="431.0" y="-134.0" type="curve" smooth="yes"/>
      <point x="413.5237139104089" y="-134.0"/>
      <point x="382.7311016251824" y="-77.22347124546968"/>
      <point x="376.88555744617634" y="-49.94274517449389" type="curve"/>
      <point x="365.63220094556345" y="-39.03592639432077"/>
      <point x="346.79175669741505" y="-29.85085291991436"/>
      <point x="317.7917566974136" y="-29.85085291991436" type="curve" smooth="yes"/>
      <point x="287.0629803080569" y="-29.85085291991436"/>
      <point x="258.6979559486506" y="-48.760869159518506"/>
      <point x="258.6979559486506" y="-93.67215772857844" type="curve" smooth="yes"/>
      <point x="258.6979559486506" y="-155.12971050729163"/>
      <point x="335.0" y="-203.0"/>
    </contour>
  </outline>
</glyph>
<glyph name="eng" format="2">
  <advance width="605.0"/>
  <unicode hex="014B"/>
  <note>
    eng
  </note>
  <outline>
    <contour>
      <point x="538.0" y="270.0" type="line"/>
      <point x="538.0" y="382.0"/>
      <point x="476.0" y="454.0"/>
      <point x="386.0" y="454.0" type="curve" smooth="yes"/>
      <point x="334.0" y="454.0"/>
      <point x="278.0" y="427.0"/>
      <point x="237.0" y="368.0" type="curve"/>
      <point x="234.0" y="369.0" type="line"/>
      <point x="240.0" y="434.0" type="line"/>
      <point x="206.0" y="452.0" type="line"/>
      <point x="5.0" y="401.0" type="line"/>
      <point x="5.0" y="349.0" type="line"/>
      <point x="69.0" y="334.0" type="line"/>
      <point x="76.0" y="294.0"/>
      <point x="77.0" y="278.0"/>
      <point x="77.0" y="241.0" type="curve" smooth="yes"/>
      <point x="76.0" y="167.0" type="line" smooth="yes"/>
      <point x="75.0" y="135.0"/>
      <point x="72.0" y="80.0"/>
      <point x="71.0" y="70.0" type="curve"/>
      <point x="9.0" y="52.0" type="line"/>
      <point x="12.0" y="0.0" type="line"/>
      <point x="307.0" y="0.0" type="line"/>
      <point x="310.0" y="52.0" type="line"/>
      <point x="243.0" y="70.0" type="line"/>
      <point x="241.0" y="81.0"/>
      <point x="239.0" y="129.0"/>
      <point x="239.0" y="163.0" type="curve" smooth="yes"/>
      <point x="239.0" y="308.0" type="line"/>
      <point x="256.0" y="328.0"/>
      <point x="281.0" y="341.0"/>
      <point x="306.0" y="341.0" type="curve" smooth="yes"/>
      <point x="347.0" y="341.0"/>
      <point x="377.0" y="312.0"/>
      <point x="377.0" y="242.0" type="curve" smooth="yes"/>
      <point x="374.0" y="-22.0" type="line"/>
      <point x="374.0" y="-92.0"/>
      <point x="362.6693877329001" y="-179.71460761245203"/>
      <point x="346.9979435147234" y="-179.71460761245203" type="curve"/>
      <point x="332.0727585450311" y="-179.71460761245203"/>
      <point x="320.1326105692774" y="-132.70027495792147"/>
      <point x="314.16253658140045" y="-112.55127524883687" type="curve"/>
      <point x="294.7597961208005" y="-99.11860877611389"/>
      <point x="274.96927820566225" y="-89.41723854581392"/>
      <point x="252.96927820566225" y="-89.41723854581392" type="curve" smooth="yes"/>
      <point x="217.96927820566225" y="-89.41723854581392"/>
      <point x="191.77601982992405" y="-110.64042293367515"/>
      <point x="191.77601982992405" y="-144.64042293367515" type="curve" smooth="yes"/>
      <point x="191.77601982992405" y="-193.64042293367515"/>
      <point x="252.0" y="-228.0"/>
      <point x="328.0" y="-228.0" type="curve" smooth="yes"/>
      <point x="448.0" y="-228.0"/>
      <point x="536.0" y="-124.0"/>
      <point x="536.0" y="12.0" type="curve"/>
    </contour>
  </outline>
</glyph>
<glyph name="OE" format="2">
  <advance width="934.0"/>
  <unicode hex="0152"/>
  <note>
OE
</note>
  <anchor x="533.0" y="0.0" name="bottom"/>
  <anchor x="533.0" y="587.0" name="top"/>
  <outline>
    <contour>
      <point x="374.0" y="-9.0" type="curve" smooth="yes"/>
      <point x="419.0" y="-9.0"/>
      <point x="455.0" y="0.0"/>
      <point x="518.0" y="0.0" type="curve" smooth="yes"/>
      <point x="708.0" y="0.0" type="line" smooth="yes"/>
      <point x="759.0" y="0.0"/>
      <point x="844.0" y="-4.0"/>
      <point x="876.0" y="-7.0" type="curve"/>
      <point x="924.0" y="166.0" type="line"/>
      <point x="860.0" y="178.0" type="line"/>
      <point x="803.0" y="75.0" type="line"/>
      <point x="783.0" y="71.0"/>
      <point x="786.0" y="71.0"/>
      <point x="732.0" y="71.0" type="curve" smooth="yes"/>
      <point x="721.0" y="71.0" type="line" smooth="yes"/>
      <point x="674.0" y="71.0"/>
      <point x="648.0" y="72.0"/>
      <point x="620.0" y="77.0" type="curve"/>
      <point x="617.0" y="97.0"/>
      <point x="616.0" y="135.0"/>
      <point x="616.0" y="217.0" type="curve" smooth="yes"/>
      <point x="616.0" y="390.0" type="line" smooth="yes"/>
      <point x="616.0" y="468.0"/>
      <point x="617.0" y="499.0"/>
      <point x="620.0" y="518.0" type="curve"/>
      <point x="628.0" y="521.0"/>
      <point x="652.0" y="522.0"/>
      <point x="687.0" y="522.0" type="curve" smooth="yes"/>
      <point x="722.0" y="522.0" type="line" smooth="yes"/>
      <point x="739.0" y="522.0"/>
      <point x="750.0" y="521.0"/>
      <point x="773.0" y="517.0" type="curve"/>
      <point x="813.0" y="425.0" type="line"/>
      <point x="879.0" y="434.0" type="line"/>
      <point x="848.0" y="593.0" type="line"/>
      <point x="815.0" y="591.0"/>
      <point x="713.0" y="587.0"/>
      <point x="663.0" y="587.0" type="curve" smooth="yes"/>
      <point x="529.0" y="587.0" type="line" smooth="yes"/>
      <point x="477.0" y="587.0"/>
      <point x="435.0" y="592.0"/>
      <point x="405.0" y="592.0" type="curve" smooth="yes"/>
      <point x="134.0" y="592.0"/>
      <point x="42.0" y="431.0"/>
      <point x="42.0" y="286.0" type="curve" smooth="yes"/>
      <point x="42.0" y="111.0"/>
      <point x="177.0" y="-9.0"/>
    </contour>
    <contour>
      <point x="393.0" y="76.0" type="curve" smooth="yes"/>
      <point x="296.0" y="76.0"/>
      <point x="236.0" y="166.0"/>
      <point x="236.0" y="309.0" type="curve" smooth="yes"/>
      <point x="236.0" y="436.0"/>
      <point x="301.0" y="517.0"/>
      <point x="397.0" y="517.0" type="curve" smooth="yes"/>
      <point x="414.0" y="517.0"/>
      <point x="436.0" y="515.0"/>
      <point x="444.0" y="512.0" type="curve"/>
      <point x="447.0" y="498.0"/>
      <point x="450.0" y="417.0"/>
      <point x="450.0" y="363.0" type="curve" smooth="yes"/>
      <point x="450.0" y="238.0" type="line" smooth="yes"/>
      <point x="450.0" y="200.0"/>
      <point x="448.0" y="109.0"/>
      <point x="446.0" y="84.0" type="curve"/>
      <point x="427.0" y="78.0"/>
      <point x="408.0" y="76.0"/>
    </contour>
    <contour>
      <point x="738.0" y="196.0" type="line"/>
      <point x="802.0" y="196.0" type="line"/>
      <point x="802.0" y="404.0" type="line"/>
      <point x="738.0" y="404.0" type="line"/>
      <point x="730.0" y="339.0" type="line"/>
      <point x="720.0" y="341.0"/>
      <point x="695.0" y="338.0"/>
      <point x="666.0" y="338.0" type="curve" smooth="yes"/>
      <point x="644.0" y="338.0" type="line" smooth="yes"/>
      <point x="616.0" y="338.0"/>
      <point x="595.0" y="341.0"/>
      <point x="590.0" y="342.0" type="curve"/>
      <point x="590.0" y="261.0" type="line"/>
      <point x="595.0" y="262.0"/>
      <point x="616.0" y="264.0"/>
      <point x="644.0" y="264.0" type="curve" smooth="yes"/>
      <point x="666.0" y="264.0" type="line" smooth="yes"/>
      <point x="695.0" y="264.0"/>
      <point x="720.0" y="262.0"/>
      <point x="730.0" y="263.0" type="curve"/>
    </contour>
  </outline>
</glyph>
<glyph name="Uogonek" format="2">
  <advance width="733.0"/>
  <unicode hex="0172"/>
  <note>
Uogonek
</note>
  <anchor x="402.0" y="587.0" name="top"/>
  <anchor x="702.0" y="587.0" name="topright"/>
  <outline>
    <contour>
      <point x="702.0" y="587.0" type="line"/>
      <point x="462.0" y="587.0" type="line"/>
      <point x="459.0" y="530.0" type="line"/>
      <point x="529.0" y="512.0" type="line"/>
      <point x="533.0" y="508.0"/>
      <point x="536.0" y="423.0"/>
      <point x="536.0" y="336.0" type="curve" smooth="yes"/>
      <point x="536.0" y="279.0" type="line" smooth="yes"/>
      <point x="536.0" y="160.0"/>
      <point x="493.0" y="103.0"/>
      <point x="403.0" y="103.0" type="curve" smooth="yes"/>
      <point x="313.0" y="103.0"/>
      <point x="268.0" y="164.0"/>
      <point x="269.0" y="282.0" type="curve"/>
      <point x="269.0" y="354.0" type="line"/>
      <point x="269.0" y="419.0"/>
      <point x="273.0" y="483.0"/>
      <point x="275.0" y="512.0" type="curve"/>
      <point x="340.0" y="530.0" type="line"/>
      <point x="337.0" y="587.0" type="line"/>
      <point x="32.0" y="587.0" type="line"/>
      <point x="29.0" y="530.0" type="line"/>
      <point x="94.0" y="512.0" type="line"/>
      <point x="98.0" y="506.0"/>
      <point x="101.0" y="432.0"/>
      <point x="101.0" y="354.0" type="curve" smooth="yes"/>
      <point x="101.0" y="262.0" type="line" smooth="yes"/>
      <point x="101.0" y="87.0"/>
      <point x="200.0" y="-9.0"/>
      <point x="379.0" y="-9.0" type="curve" smooth="yes"/>
      <point x="410.0" y="-9.0" type="line"/>
      <point x="437.0" y="27.0" type="line"/>
      <point x="334.0" y="-2.0"/>
      <point x="267.0" y="-58.0"/>
      <point x="267.0" y="-116.0" type="curve" smooth="yes"/>
      <point x="267.0" y="-176.0"/>
      <point x="328.0" y="-223.0"/>
      <point x="406.0" y="-223.0" type="curve" smooth="yes"/>
      <point x="455.0" y="-223.0"/>
      <point x="496.0" y="-207.0"/>
      <point x="527.0" y="-173.0" type="curve"/>
      <point x="495.0" y="-127.0" type="line"/>
      <point x="471.0" y="-150.0"/>
      <point x="449.0" y="-161.0"/>
      <point x="428.0" y="-161.0" type="curve" smooth="yes"/>
      <point x="399.0" y="-161.0"/>
      <point x="379.0" y="-139.0"/>
      <point x="379.0" y="-108.0" type="curve" smooth="yes"/>
      <point x="379.0" y="-60.0"/>
      <point x="415.0" y="-22.0"/>
      <point x="487.0" y="9.0" type="curve" smooth="yes"/>
      <point x="581.0" y="49.0"/>
      <point x="632.0" y="136.0"/>
      <point x="632.0" y="255.0" type="curve" smooth="yes"/>
      <point x="632.0" y="336.0" type="line" smooth="yes"/>
      <point x="632.0" y="422.0"/>
      <point x="635.0" y="508.0"/>
      <point x="640.0" y="512.0" type="curve"/>
      <point x="705.0" y="530.0" type="line"/>
    </contour>
  </outline>
</glyph>
<glyph name="uogonek" format="2">
  <advance width="609.0"/>
  <unicode hex="0173"/>
  <note>
uogonek
</note>
  <anchor x="302.0" y="446.0" name="top"/>
  <anchor x="502.0" y="446.0" name="topright"/>
  <outline>
    <contour>
      <point x="499.0" y="-223.0" type="curve" smooth="yes"/>
      <point x="549.0" y="-223.0"/>
      <point x="589.0" y="-206.0"/>
      <point x="620.0" y="-173.0" type="curve"/>
      <point x="589.0" y="-127.0" type="line"/>
      <point x="563.0" y="-151.0"/>
      <point x="541.0" y="-161.0"/>
      <point x="521.0" y="-161.0" type="curve" smooth="yes"/>
      <point x="494.0" y="-161.0"/>
      <point x="473.0" y="-142.0"/>
      <point x="473.0" y="-113.0" type="curve" smooth="yes"/>
      <point x="473.0" y="-72.0"/>
      <point x="511.0" y="-23.0"/>
      <point x="604.0" y="40.0" type="curve"/>
      <point x="604.0" y="90.0" type="line"/>
      <point x="536.0" y="103.0" type="line"/>
      <point x="532.0" y="164.0"/>
      <point x="532.0" y="187.0"/>
      <point x="532.0" y="193.0" type="curve" smooth="yes"/>
      <point x="532.0" y="279.0" type="line" smooth="yes"/>
      <point x="532.0" y="367.0"/>
      <point x="532.0" y="416.0"/>
      <point x="536.0" y="433.0" type="curve"/>
      <point x="501.0" y="452.0" type="line"/>
      <point x="299.0" y="401.0" type="line"/>
      <point x="299.0" y="349.0" type="line"/>
      <point x="367.0" y="335.0" type="line"/>
      <point x="371.0" y="293.0"/>
      <point x="371.0" y="279.0"/>
      <point x="371.0" y="219.0" type="curve" smooth="yes"/>
      <point x="371.0" y="143.0" type="line"/>
      <point x="355.0" y="117.0"/>
      <point x="330.0" y="105.0"/>
      <point x="308.0" y="105.0" type="curve" smooth="yes"/>
      <point x="259.0" y="105.0"/>
      <point x="232.0" y="135.0"/>
      <point x="232.0" y="197.0" type="curve"/>
      <point x="233.0" y="265.0" type="line"/>
      <point x="233.0" y="326.0"/>
      <point x="236.0" y="395.0"/>
      <point x="239.0" y="434.0" type="curve"/>
      <point x="204.0" y="452.0" type="line"/>
      <point x="-2.0" y="401.0" type="line"/>
      <point x="-2.0" y="349.0" type="line"/>
      <point x="66.0" y="335.0" type="line"/>
      <point x="69.0" y="319.0"/>
      <point x="69.0" y="297.0"/>
      <point x="69.0" y="264.0" type="curve" smooth="yes"/>
      <point x="69.0" y="179.0" type="line" smooth="yes"/>
      <point x="69.0" y="53.0"/>
      <point x="134.0" y="-11.0"/>
      <point x="236.0" y="-11.0" type="curve" smooth="yes"/>
      <point x="284.0" y="-11.0"/>
      <point x="335.0" y="11.0"/>
      <point x="373.0" y="80.0" type="curve"/>
      <point x="376.0" y="79.0" type="line"/>
      <point x="375.0" y="2.0" type="line"/>
      <point x="410.0" y="-14.0" type="line"/>
      <point x="505.0" y="13.0" type="line"/>
      <point x="484.0" y="13.0" type="line"/>
      <point x="411.0" y="-25.0"/>
      <point x="360.0" y="-71.0"/>
      <point x="360.0" y="-116.0" type="curve" smooth="yes"/>
      <point x="360.0" y="-180.0"/>
      <point x="426.0" y="-223.0"/>
    </contour>
  </outline>
</glyph>
<glyph name="florin" format="2">
  <advance width="429.0"/>
  <unicode hex="0192"/>
  <outline>
    <contour>
      <point x="89.0" y="-231.0" type="curve" smooth="yes"/>
      <point x="201.0" y="-231.0"/>
      <point x="292.0" y="-132.0"/>
      <point x="292.0" y="79.0" type="curve" smooth="yes"/>
      <point x="292.0" y="372.0" type="line"/>
      <point x="290.0" y="444.0" type="line"/>
      <point x="290.0" y="513.0" type="line" smooth="yes"/>
      <point x="290.0" y="575.0"/>
      <point x="296.8424427398229" y="629.0"/>
      <point x="318.04947971227784" y="629.0" type="curve" smooth="yes"/>
      <point x="330.25959190853996" y="629.0"/>
      <point x="338.9033791983936" y="601.6274097253024"/>
      <point x="348.2313908063504" y="573.6433749014316" type="curve"/>
      <point x="363.6767410772568" y="562.6763806542463"/>
      <point x="381.6705906296429" y="555.6073683300947"/>
      <point x="408.66136495822207" y="555.6073683300947" type="curve" smooth="yes"/>
      <point x="442.66136495822207" y="555.6073683300947"/>
      <point x="471.6398383915732" y="579.7300168593631"/>
      <point x="471.6398383915732" y="614.7300168593631" type="curve" smooth="yes"/>
      <point x="471.6398383915732" y="663.7300168593631"/>
      <point x="414.0" y="698.0"/>
      <point x="340.0" y="698.0" type="curve" smooth="yes"/>
      <point x="224.0" y="698.0"/>
      <point x="128.0" y="599.0"/>
      <point x="128.0" y="458.0" type="curve" smooth="yes"/>
      <point x="128.0" y="-7.0" type="line"/>
      <point x="128.0" y="-108.0"/>
      <point x="121.17880764686711" y="-163.0"/>
      <point x="100.2981946290463" y="-163.0" type="curve" smooth="yes"/>
      <point x="91.04421485924786" y="-163.0"/>
      <point x="73.46165329663063" y="-123.40339727887317"/>
      <point x="69.76006138871116" y="-105.82083571625594" type="curve"/>
      <point x="59.580683641932865" y="-95.64145796947741"/>
      <point x="46.71396860877894" y="-88.23827415363871"/>
      <point x="20.71396860877894" y="-88.23827415363871" type="curve" smooth="yes"/>
      <point x="-12.286031391221059" y="-88.23827415363871"/>
      <point x="-37.58610394095194" y="-114.0"/>
      <point x="-37.58610394095194" y="-149.0" type="curve" smooth="yes"/>
      <point x="-37.58610394095194" y="-198.0"/>
      <point x="15.0" y="-231.0"/>
    </contour>
    <contour>
      <point x="53.0" y="372.0" type="line"/>
      <point x="393.0" y="372.0" type="line"/>
      <point x="393.0" y="444.0" type="line"/>
      <point x="178.0" y="444.0" type="line"/>
      <point x="128.0" y="449.0" type="line"/>
      <point x="103.0" y="438.0"/>
      <point x="78.0" y="431.0"/>
      <point x="53.0" y="427.0" type="curve"/>
    </contour>
  </outline>
</glyph>
<glyph name="ohorn" format="2">
  <advance width="551.0"/>
  <unicode hex="01A1"/>
  <note>
ohorn
</note>
  <anchor x="277.0" y="0.0" name="bottom"/>
  <anchor x="277.0" y="223.0" name="center"/>
  <anchor x="277.0" y="446.0" name="top"/>
  <outline>
    <contour>
      <point x="548.0" y="484.0" type="curve" smooth="yes"/>
      <point x="548.0" y="530.0"/>
      <point x="499.0" y="558.0"/>
      <point x="418.0" y="547.0" type="curve"/>
      <point x="411.0" y="469.0" type="line" smooth="yes"/>
      <point x="409.0" y="448.0"/>
      <point x="404.0" y="439.0"/>
      <point x="376.0" y="439.0" type="curve" smooth="yes"/>
      <point x="351.0" y="439.0"/>
      <point x="336.0" y="454.0"/>
      <point x="273.0" y="454.0" type="curve" smooth="yes"/>
      <point x="156.0" y="454.0"/>
      <point x="31.0" y="371.0"/>
      <point x="31.0" y="216.0" type="curve" smooth="yes"/>
      <point x="31.0" y="85.0"/>
      <point x="134.0" y="-8.0"/>
      <point x="279.0" y="-8.0" type="curve" smooth="yes"/>
      <point x="412.0" y="-8.0"/>
      <point x="520.0" y="95.0"/>
      <point x="520.0" y="229.0" type="curve" smooth="yes"/>
      <point x="520.0" y="306.0"/>
      <point x="485.0" y="373.0"/>
      <point x="429.0" y="412.0" type="curve"/>
      <point x="409.0" y="385.0" type="line"/>
      <point x="438.0" y="386.0"/>
      <point x="548.0" y="417.0"/>
    </contour>
    <contour>
      <point x="290.0" y="67.0" type="curve" smooth="yes"/>
      <point x="242.0" y="67.0"/>
      <point x="206.0" y="149.0"/>
      <point x="206.0" y="254.0" type="curve" smooth="yes"/>
      <point x="206.0" y="335.0"/>
      <point x="228.0" y="384.0"/>
      <point x="265.0" y="384.0" type="curve" smooth="yes"/>
      <point x="314.0" y="384.0"/>
      <point x="347.0" y="305.0"/>
      <point x="347.0" y="189.0" type="curve" smooth="yes"/>
      <point x="347.0" y="108.0"/>
      <point x="329.0" y="67.0"/>
    </contour>
  </outline>
</glyph>
<glyph name="uhorn" format="2">
  <advance width="609.0"/>
  <unicode hex="01B0"/>
  <note>
uhorn
</note>
  <anchor x="302.0" y="0.0" name="bottom"/>
  <anchor x="449.0" y="0.0" name="ogonek"/>
  <anchor x="302.0" y="446.0" name="top"/>
  <outline>
    <contour>
      <point x="410.0" y="-14.0" type="line"/>
      <point x="604.0" y="40.0" type="line"/>
      <point x="604.0" y="90.0" type="line"/>
      <point x="536.0" y="103.0" type="line"/>
      <point x="532.0" y="164.0"/>
      <point x="532.0" y="187.0"/>
      <point x="532.0" y="193.0" type="curve" smooth="yes"/>
      <point x="532.0" y="439.0" type="line"/>
      <point x="492.0" y="382.0" type="line"/>
      <point x="587.0" y="407.0"/>
      <point x="639.0" y="447.0"/>
      <point x="639.0" y="498.0" type="curve" smooth="yes"/>
      <point x="639.0" y="539.0"/>
      <point x="590.0" y="565.0"/>
      <point x="509.0" y="553.0" type="curve"/>
      <point x="503.0" y="488.0" type="line" smooth="yes"/>
      <point x="501.0" y="463.0"/>
      <point x="478.0" y="447.0"/>
      <point x="440.0" y="437.0" type="curve" smooth="yes"/>
      <point x="299.0" y="401.0" type="line"/>
      <point x="299.0" y="349.0" type="line"/>
      <point x="367.0" y="335.0" type="line"/>
      <point x="371.0" y="293.0"/>
      <point x="371.0" y="279.0"/>
      <point x="371.0" y="219.0" type="curve" smooth="yes"/>
      <point x="371.0" y="143.0" type="line"/>
      <point x="355.0" y="117.0"/>
      <point x="330.0" y="105.0"/>
      <point x="308.0" y="105.0" type="curve" smooth="yes"/>
      <point x="259.0" y="105.0"/>
      <point x="232.0" y="135.0"/>
      <point x="232.0" y="197.0" type="curve"/>
      <point x="233.0" y="265.0" type="line"/>
      <point x="233.0" y="326.0"/>
      <point x="236.0" y="395.0"/>
      <point x="239.0" y="434.0" type="curve"/>
      <point x="204.0" y="452.0" type="line"/>
      <point x="-2.0" y="401.0" type="line"/>
      <point x="-2.0" y="349.0" type="line"/>
      <point x="66.0" y="335.0" type="line"/>
      <point x="69.0" y="319.0"/>
      <point x="69.0" y="297.0"/>
      <point x="69.0" y="264.0" type="curve" smooth="yes"/>
      <point x="69.0" y="179.0" type="line" smooth="yes"/>
      <point x="69.0" y="53.0"/>
      <point x="134.0" y="-11.0"/>
      <point x="236.0" y="-11.0" type="curve" smooth="yes"/>
      <point x="284.0" y="-11.0"/>
      <point x="335.0" y="11.0"/>
      <point x="373.0" y="80.0" type="curve"/>
      <point x="376.0" y="79.0" type="line"/>
      <point x="375.0" y="2.0" type="line"/>
    </contour>
  </outline>
</glyph>
<glyph name="jdotless" format="2">
  <advance width="316.0"/>
  <unicode hex="0237"/>
  <note>
uni0237
</note>
  <anchor x="160.0" y="446.0" name="top"/>
  <outline>
    <contour>
      <point x="18.0" y="-229.0" type="line"/>
      <point x="131.0" y="-195.0"/>
      <point x="246.0" y="-77.0"/>
      <point x="246.0" y="44.0" type="curve"/>
      <point x="244.0" y="275.0" type="line"/>
      <point x="244.0" y="349.0"/>
      <point x="246.0" y="392.0"/>
      <point x="250.0" y="434.0" type="curve"/>
      <point x="214.0" y="452.0" type="line"/>
      <point x="5.0" y="401.0" type="line"/>
      <point x="5.0" y="349.0" type="line"/>
      <point x="71.0" y="334.0" type="line"/>
      <point x="77.0" y="294.0"/>
      <point x="79.0" y="274.0"/>
      <point x="79.0" y="235.0" type="curve"/>
      <point x="78.0" y="-8.0" type="line"/>
      <point x="78.0" y="-84.0"/>
      <point x="53.0" y="-138.0"/>
      <point x="-10.0" y="-178.0" type="curve"/>
    </contour>
  </outline>
</glyph>
<glyph name="schwa" format="2">
  <advance width="502.0"/>
  <unicode hex="0259"/>
  <outline>
    <contour>
      <point x="242.0" y="454.0" type="curve" smooth="yes"/>
      <point x="138.0" y="454.0"/>
      <point x="62.0" y="406.0"/>
      <point x="23.0" y="319.0" type="curve"/>
      <point x="57.0" y="287.0" type="line"/>
      <point x="92.0" y="326.0"/>
      <point x="130.0" y="342.0"/>
      <point x="184.0" y="342.0" type="curve" smooth="yes"/>
      <point x="261.0" y="342.0"/>
      <point x="312.0" y="283.0"/>
      <point x="312.0" y="195.0" type="curve" smooth="yes"/>
      <point x="312.0" y="169.0" type="line" smooth="yes"/>
      <point x="312.0" y="98.0"/>
      <point x="289.0" y="55.0"/>
      <point x="247.0" y="55.0" type="curve" smooth="yes"/>
      <point x="200.0" y="55.0"/>
      <point x="174.0" y="89.0"/>
      <point x="174.0" y="148.0" type="curve" smooth="yes"/>
      <point x="174.0" y="191.0" type="line"/>
      <point x="154.0" y="159.0" type="line"/>
      <point x="316.0" y="159.0" type="line"/>
      <point x="316.0" y="217.0" type="line"/>
      <point x="30.0" y="217.0" type="line"/>
      <point x="30.0" y="189.0" type="line" smooth="yes"/>
      <point x="30.0" y="70.0"/>
      <point x="114.0" y="-9.0"/>
      <point x="244.0" y="-8.0" type="curve" smooth="yes"/>
      <point x="367.0" y="-7.0"/>
      <point x="470.0" y="91.0"/>
      <point x="470.0" y="229.0" type="curve" smooth="yes"/>
      <point x="470.0" y="355.0"/>
      <point x="372.0" y="454.0"/>
    </contour>
  </outline>
</glyph>
<glyph name="primemod" format="2">
  <advance width="600.0"/>
  <unicode hex="02B9"/>
  <note>
acutecomb
</note>
  <anchor x="300.0" y="446.0" name="_top"/>
  <anchor x="300.0" y="687.0" name="top"/>
  <outline>
    <contour>
      <point x="336.0" y="484.0" type="line"/>
      <point x="507.0" y="654.0" type="line"/>
      <point x="363.0" y="677.0" type="line"/>
      <point x="264.0" y="509.0" type="line"/>
    </contour>
  </outline>
</glyph>
<glyph name="commaturnedmod" format="2">
  <advance width="600.0"/>
  <unicode hex="02BB"/>
  <note>
uni02BB
</note>
  <anchor x="300.0" y="446.0" name="_top"/>
  <anchor x="300.0" y="659.0" name="top"/>
  <outline>
    <contour>
      <point x="385.0" y="745.0" type="line"/>
      <point x="262.0" y="722.0"/>
      <point x="211.0" y="645.0"/>
      <point x="211.0" y="586.0" type="curve" smooth="yes"/>
      <point x="211.0" y="520.0"/>
      <point x="262.0" y="498.0"/>
      <point x="305.0" y="498.0" type="curve" smooth="yes"/>
      <point x="355.0" y="498.0"/>
      <point x="389.0" y="526.0"/>
      <point x="389.0" y="561.0" type="curve" smooth="yes"/>
      <point x="389.0" y="633.0"/>
      <point x="310.0" y="618.0"/>
      <point x="310.0" y="652.0" type="curve" smooth="yes"/>
      <point x="310.0" y="669.0"/>
      <point x="325.0" y="690.0"/>
      <point x="402.0" y="705.0" type="curve"/>
    </contour>
  </outline>
</glyph>
<glyph name="apostrophemod" format="2">
  <advance width="600.0"/>
  <unicode hex="02BC"/>
  <note>
uni02BB
</note>
  <anchor x="300.0" y="446.0" name="_top"/>
  <anchor x="300.0" y="659.0" name="top"/>
  <outline>
    <contour>
      <point x="228.0" y="498.0" type="line"/>
      <point x="351.0" y="521.0"/>
      <point x="402.0" y="597.0"/>
      <point x="402.0" y="657.0" type="curve" smooth="yes"/>
      <point x="402.0" y="723.0"/>
      <point x="351.0" y="745.0"/>
      <point x="307.0" y="745.0" type="curve" smooth="yes"/>
      <point x="257.0" y="745.0"/>
      <point x="223.0" y="717.0"/>
      <point x="223.0" y="682.0" type="curve" smooth="yes"/>
      <point x="223.0" y="610.0"/>
      <point x="303.0" y="625.0"/>
      <point x="303.0" y="591.0" type="curve" smooth="yes"/>
      <point x="303.0" y="574.0"/>
      <point x="287.0" y="552.0"/>
      <point x="211.0" y="538.0" type="curve"/>
    </contour>
  </outline>
</glyph>
<glyph name="verticallinelowmod" format="2">
  <advance width="600.0"/>
  <unicode hex="02CC"/>
  <anchor x="300.0" y="0.0" name="_bottom"/>
  <anchor x="300.0" y="-220.0" name="bottom"/>
  <outline>
    <contour>
      <point x="259.0" y="-220.0" type="line"/>
      <point x="342.0" y="-220.0" type="line"/>
      <point x="342.0" y="-100.0" type="line"/>
      <point x="259.0" y="-100.0" type="line"/>
    </contour>
  </outline>
</glyph>
<glyph name="acutecomb" format="2">
  <unicode hex="0301"/>
  <note>
acutecomb
</note>
  <anchor x="300.0" y="446.0" name="_top"/>
  <anchor x="300.0" y="687.0" name="top"/>
  <outline>
    <contour>
      <point x="336.0" y="484.0" type="line"/>
      <point x="507.0" y="654.0" type="line"/>
      <point x="363.0" y="677.0" type="line"/>
      <point x="264.0" y="509.0" type="line"/>
    </contour>
  </outline>
</glyph>
<glyph name="dieresiscomb" format="2">
  <unicode hex="0308"/>
  <note>
uni0308
</note>
  <anchor x="300.0" y="446.0" name="_top"/>
  <anchor x="300.0" y="659.0" name="top"/>
  <outline>
    <contour>
      <point x="197.0" y="501.0" type="curve" smooth="yes"/>
      <point x="250.0" y="501.0"/>
      <point x="279.0" y="540.0"/>
      <point x="279.0" y="578.0" type="curve" smooth="yes"/>
      <point x="279.0" y="617.0"/>
      <point x="250.0" y="655.0"/>
      <point x="197.0" y="655.0" type="curve" smooth="yes"/>
      <point x="142.0" y="655.0"/>
      <point x="114.0" y="617.0"/>
      <point x="114.0" y="578.0" type="curve" smooth="yes"/>
      <point x="114.0" y="540.0"/>
      <point x="142.0" y="501.0"/>
    </contour>
    <contour>
      <point x="405.0" y="501.0" type="curve" smooth="yes"/>
      <point x="457.0" y="501.0"/>
      <point x="486.0" y="540.0"/>
      <point x="486.0" y="578.0" type="curve" smooth="yes"/>
      <point x="486.0" y="617.0"/>
      <point x="457.0" y="655.0"/>
      <point x="405.0" y="655.0" type="curve" smooth="yes"/>
      <point x="349.0" y="655.0"/>
      <point x="321.0" y="617.0"/>
      <point x="321.0" y="578.0" type="curve" smooth="yes"/>
      <point x="321.0" y="540.0"/>
      <point x="349.0" y="501.0"/>
    </contour>
  </outline>
</glyph>
<glyph name="ringcomb" format="2">
  <unicode hex="030A"/>
  <note>
uni030A
</note>
  <anchor x="300.0" y="446.0" name="_top"/>
  <anchor x="300.0" y="648.0" name="top"/>
  <outline>
    <contour>
      <point x="301.0" y="479.0" type="curve" smooth="yes"/>
      <point x="371.0" y="479.0"/>
      <point x="420.0" y="526.0"/>
      <point x="420.0" y="591.0" type="curve" smooth="yes"/>
      <point x="420.0" y="655.0"/>
      <point x="371.0" y="702.0"/>
      <point x="301.0" y="702.0" type="curve" smooth="yes"/>
      <point x="231.0" y="702.0"/>
      <point x="180.0" y="654.0"/>
      <point x="180.0" y="591.0" type="curve" smooth="yes"/>
      <point x="180.0" y="527.0"/>
      <point x="231.0" y="479.0"/>
    </contour>
    <contour>
      <point x="302.0" y="532.0" type="curve" smooth="yes"/>
      <point x="267.0" y="532.0"/>
      <point x="243.0" y="557.0"/>
      <point x="243.0" y="592.0" type="curve" smooth="yes"/>
      <point x="243.0" y="625.0"/>
      <point x="267.0" y="651.0"/>
      <point x="302.0" y="651.0" type="curve" smooth="yes"/>
      <point x="335.0" y="651.0"/>
      <point x="359.0" y="626.0"/>
      <point x="359.0" y="592.0" type="curve" smooth="yes"/>
      <point x="359.0" y="557.0"/>
      <point x="335.0" y="532.0"/>
    </contour>
  </outline>
</glyph>
<glyph name="commaturnedabovecomb" format="2">
  <unicode hex="0312"/>
  <note>
uni02BB
</note>
  <anchor x="300.0" y="446.0" name="_top"/>
  <anchor x="300.0" y="659.0" name="top"/>
  <outline>
    <contour>
      <point x="385.0" y="737.0" type="line"/>
      <point x="262.0" y="714.0"/>
      <point x="211.0" y="638.0"/>
      <point x="211.0" y="578.0" type="curve" smooth="yes"/>
      <point x="211.0" y="512.0"/>
      <point x="262.0" y="490.0"/>
      <point x="305.0" y="490.0" type="curve" smooth="yes"/>
      <point x="355.0" y="490.0"/>
      <point x="389.0" y="518.0"/>
      <point x="389.0" y="553.0" type="curve" smooth="yes"/>
      <point x="389.0" y="625.0"/>
      <point x="310.0" y="610.0"/>
      <point x="310.0" y="644.0" type="curve" smooth="yes"/>
      <point x="310.0" y="661.0"/>
      <point x="325.0" y="683.0"/>
      <point x="402.0" y="697.0" type="curve"/>
    </contour>
  </outline>
</glyph>
<glyph name="slashshortcomb" format="2">
  <unicode hex="0337"/>
  <anchor x="132.0" y="330.0" name="_center"/>
  <outline>
    <contour>
      <point x="-13.0" y="194.0" type="line"/>
      <point x="313.0" y="416.0" type="line"/>
      <point x="277.0" y="466.0" type="line"/>
      <point x="-48.0" y="244.0" type="line"/>
    </contour>
  </outline>
</glyph>
<glyph name="Delta" format="2">
  <advance width="683.0"/>
  <unicode hex="0394"/>
  <note>
uni2206
</note>
  <outline>
    <contour>
      <point x="2.0" y="0.0" type="line"/>
      <point x="681.0" y="0.0" type="line"/>
      <point x="343.0" y="607.0" type="line"/>
    </contour>
    <contour>
      <point x="117.0" y="45.0" type="line"/>
      <point x="318.0" y="412.0" type="line"/>
      <point x="280.0" y="419.0" type="line"/>
      <point x="487.0" y="45.0" type="line"/>
      <point x="500.0" y="110.0" type="line"/>
      <point x="124.0" y="110.0" type="line"/>
    </contour>
  </outline>
</glyph>
<glyph name="mu" format="2">
  <advance width="614.0"/>
  <unicode hex="03BC"/>
  <outline>
    <contour>
      <point x="541.0" y="103.0" type="line"/>
      <point x="538.0" y="146.0"/>
      <point x="537.0" y="171.0"/>
      <point x="537.0" y="193.0" type="curve" smooth="yes"/>
      <point x="537.0" y="279.0" type="line" smooth="yes"/>
      <point x="537.0" y="332.0"/>
      <point x="537.0" y="391.0"/>
      <point x="541.0" y="433.0" type="curve"/>
      <point x="506.0" y="452.0" type="line"/>
      <point x="304.0" y="401.0" type="line"/>
      <point x="304.0" y="349.0" type="line"/>
      <point x="372.0" y="335.0" type="line"/>
      <point x="375.0" y="295.0"/>
      <point x="376.0" y="280.0"/>
      <point x="376.0" y="219.0" type="curve" smooth="yes"/>
      <point x="376.0" y="143.0" type="line"/>
      <point x="360.0" y="117.0"/>
      <point x="335.0" y="105.0"/>
      <point x="313.0" y="105.0" type="curve" smooth="yes"/>
      <point x="264.0" y="105.0"/>
      <point x="237.0" y="135.0"/>
      <point x="237.0" y="197.0" type="curve"/>
      <point x="238.0" y="265.0" type="line"/>
      <point x="239.0" y="323.0"/>
      <point x="241.0" y="392.0"/>
      <point x="244.0" y="434.0" type="curve"/>
      <point x="209.0" y="452.0" type="line"/>
      <point x="3.0" y="401.0" type="line"/>
      <point x="3.0" y="349.0" type="line"/>
      <point x="71.0" y="335.0" type="line"/>
      <point x="75.0" y="295.0"/>
      <point x="74.0" y="280.0"/>
      <point x="74.0" y="275.0" type="curve" smooth="yes"/>
      <point x="71.0" y="74.0"/>
      <point x="57.0" y="-19.0"/>
      <point x="57.0" y="-118.0" type="curve" smooth="yes"/>
      <point x="57.0" y="-196.0"/>
      <point x="108.0" y="-231.0"/>
      <point x="163.0" y="-231.0" type="curve" smooth="yes"/>
      <point x="217.0" y="-231.0"/>
      <point x="250.870114999341" y="-188.10443027547103"/>
      <point x="250.870114999341" y="-114.10443027547103" type="curve"/>
      <point x="211.83850665612226" y="-62.06228581784603"/>
      <point x="200.68661855806" y="-24.88932549097126"/>
      <point x="197.0" y="36.0" type="curve"/>
      <point x="174.0" y="39.0" type="line"/>
      <point x="188.0" y="25.0"/>
      <point x="242.0" y="-11.0"/>
      <point x="273.0" y="-11.0" type="curve" smooth="yes"/>
      <point x="305.0" y="-11.0"/>
      <point x="346.0" y="11.0"/>
      <point x="378.0" y="79.0" type="curve"/>
      <point x="381.0" y="78.0" type="line"/>
      <point x="380.0" y="2.0" type="line"/>
      <point x="415.0" y="-14.0" type="line"/>
      <point x="609.0" y="40.0" type="line"/>
      <point x="609.0" y="90.0" type="line"/>
    </contour>
  </outline>
</glyph>
<glyph name="Germandbls" format="2">
  <advance width="764.0"/>
  <unicode hex="1E9E"/>
  <outline>
    <contour>
      <point x="25.0" y="0.0" type="line"/>
      <point x="323.0" y="0.0" type="line"/>
      <point x="326.0" y="57.0" type="line"/>
      <point x="269.0" y="76.0" type="line"/>
      <point x="266.0" y="84.0"/>
      <point x="262.0" y="149.0"/>
      <point x="261.0" y="234.0" type="curve"/>
      <point x="258.0" y="358.0" type="line"/>
      <point x="257.0" y="465.0"/>
      <point x="305.0" y="524.0"/>
      <point x="394.0" y="524.0" type="curve" smooth="yes"/>
      <point x="447.0" y="524.0"/>
      <point x="486.0" y="504.0"/>
      <point x="507.0" y="465.0" type="curve"/>
      <point x="606.0" y="465.0" type="line"/>
      <point x="569.0" y="550.0"/>
      <point x="490.0" y="599.0"/>
      <point x="382.0" y="599.0" type="curve" smooth="yes"/>
      <point x="205.0" y="599.0"/>
      <point x="93.0" y="489.0"/>
      <point x="93.0" y="322.0" type="curve"/>
      <point x="94.0" y="234.0" type="line"/>
      <point x="94.0" y="151.0"/>
      <point x="91.0" y="82.0"/>
      <point x="87.0" y="76.0" type="curve"/>
      <point x="22.0" y="57.0" type="line"/>
    </contour>
    <contour>
      <point x="506.0" y="-9.0" type="curve" smooth="yes"/>
      <point x="632.0" y="-9.0"/>
      <point x="736.0" y="60.0"/>
      <point x="736.0" y="151.0" type="curve" smooth="yes"/>
      <point x="736.0" y="314.0"/>
      <point x="498.0" y="295.0"/>
      <point x="498.0" y="377.0" type="curve" smooth="yes"/>
      <point x="498.0" y="416.0"/>
      <point x="533.0" y="430.0"/>
      <point x="565.0" y="430.0" type="curve" smooth="yes"/>
      <point x="572.0" y="430.0"/>
      <point x="587.0" y="429.0"/>
      <point x="597.0" y="427.0" type="curve"/>
      <point x="629.0" y="331.0" type="line"/>
      <point x="701.0" y="335.0" type="line"/>
      <point x="689.0" y="476.0" type="line"/>
      <point x="656.0" y="489.0"/>
      <point x="587.0" y="497.0"/>
      <point x="556.0" y="497.0" type="curve" smooth="yes"/>
      <point x="447.0" y="497.0"/>
      <point x="345.0" y="423.0"/>
      <point x="345.0" y="326.0" type="curve" smooth="yes"/>
      <point x="345.0" y="156.0"/>
      <point x="580.0" y="207.0"/>
      <point x="580.0" y="107.0" type="curve" smooth="yes"/>
      <point x="580.0" y="68.0"/>
      <point x="540.0" y="61.0"/>
      <point x="510.0" y="61.0" type="curve" smooth="yes"/>
      <point x="487.0" y="61.0"/>
      <point x="466.0" y="67.0"/>
      <point x="452.0" y="74.0" type="curve"/>
      <point x="420.0" y="157.0" type="line"/>
      <point x="347.0" y="153.0" type="line"/>
      <point x="350.0" y="21.0" type="line"/>
      <point x="393.0" y="0.0"/>
      <point x="466.0" y="-9.0"/>
    </contour>
  </outline>
</glyph>
<glyph name="quoteright" format="2">
  <advance width="329.0"/>
  <unicode hex="2019"/>
  <note>
quoteright
</note>
  <outline>
    <contour>
      <point x="57.0" y="251.0" type="line"/>
      <point x="218.0" y="316.0"/>
      <point x="285.0" y="417.0"/>
      <point x="285.0" y="543.0" type="curve" smooth="yes"/>
      <point x="285.0" y="658.0"/>
      <point x="219.0" y="698.0"/>
      <point x="160.0" y="698.0" type="curve" smooth="yes"/>
      <point x="97.0" y="698.0"/>
      <point x="49.0" y="654.0"/>
      <point x="49.0" y="597.0" type="curve" smooth="yes"/>
      <point x="49.0" y="502.0"/>
      <point x="155.0" y="510.0"/>
      <point x="155.0" y="426.0" type="curve" smooth="yes"/>
      <point x="155.0" y="381.0"/>
      <point x="128.0" y="339.0"/>
      <point x="35.0" y="301.0" type="curve"/>
    </contour>
  </outline>
</glyph>
<glyph name="quotesinglbase" format="2">
  <advance width="329.0"/>
  <unicode hex="201A"/>
  <note>
quotesinglbase
</note>
  <outline>
    <contour>
      <point x="57.0" y="-233.0" type="line"/>
      <point x="218.0" y="-168.0"/>
      <point x="285.0" y="-67.0"/>
      <point x="285.0" y="59.0" type="curve" smooth="yes"/>
      <point x="285.0" y="174.0"/>
      <point x="219.0" y="214.0"/>
      <point x="160.0" y="214.0" type="curve" smooth="yes"/>
      <point x="97.0" y="214.0"/>
      <point x="49.0" y="170.0"/>
      <point x="49.0" y="113.0" type="curve" smooth="yes"/>
      <point x="49.0" y="18.0"/>
      <point x="155.0" y="26.0"/>
      <point x="155.0" y="-58.0" type="curve" smooth="yes"/>
      <point x="155.0" y="-103.0"/>
      <point x="128.0" y="-145.0"/>
      <point x="35.0" y="-183.0" type="curve"/>
    </contour>
  </outline>
</glyph>
<glyph name="dagger" format="2">
  <advance width="529.0"/>
  <unicode hex="2020"/>
  <note>
dagger
</note>
  <outline>
    <contour>
      <point x="438.0" y="526.0" type="curve" smooth="yes"/>
      <point x="403.0" y="526.0"/>
      <point x="344.0" y="497.0"/>
      <point x="297.0" y="485.0" type="curve"/>
      <point x="309.0" y="533.0"/>
      <point x="338.0" y="591.0"/>
      <point x="338.0" y="626.0" type="curve" smooth="yes"/>
      <point x="338.0" y="677.0"/>
      <point x="306.0" y="698.0"/>
      <point x="265.0" y="698.0" type="curve" smooth="yes"/>
      <point x="223.0" y="698.0"/>
      <point x="191.0" y="677.0"/>
      <point x="191.0" y="626.0" type="curve" smooth="yes"/>
      <point x="191.0" y="591.0"/>
      <point x="220.0" y="533.0"/>
      <point x="232.0" y="485.0" type="curve"/>
      <point x="185.0" y="497.0"/>
      <point x="126.0" y="526.0"/>
      <point x="91.0" y="526.0" type="curve" smooth="yes"/>
      <point x="40.0" y="526.0"/>
      <point x="19.0" y="494.0"/>
      <point x="19.0" y="453.0" type="curve" smooth="yes"/>
      <point x="19.0" y="411.0"/>
      <point x="40.0" y="380.0"/>
      <point x="91.0" y="380.0" type="curve" smooth="yes"/>
      <point x="124.0" y="380.0"/>
      <point x="176.0" y="406.0"/>
      <point x="222.0" y="419.0" type="curve"/>
      <point x="210.0" y="394.0"/>
      <point x="195.0" y="367.0"/>
      <point x="176.0" y="320.0" type="curve"/>
      <point x="215.0" y="194.0"/>
      <point x="226.0" y="105.0"/>
      <point x="238.0" y="0.0" type="curve"/>
      <point x="295.0" y="0.0" type="line"/>
      <point x="307.0" y="105.0"/>
      <point x="314.0" y="194.0"/>
      <point x="353.0" y="320.0" type="curve"/>
      <point x="334.0" y="367.0"/>
      <point x="319.0" y="394.0"/>
      <point x="307.0" y="419.0" type="curve"/>
      <point x="353.0" y="406.0"/>
      <point x="405.0" y="380.0"/>
      <point x="438.0" y="380.0" type="curve" smooth="yes"/>
      <point x="489.0" y="380.0"/>
      <point x="510.0" y="411.0"/>
      <point x="510.0" y="453.0" type="curve" smooth="yes"/>
      <point x="510.0" y="494.0"/>
      <point x="489.0" y="526.0"/>
    </contour>
  </outline>
</glyph>
<glyph name="minute" format="2">
  <advance width="319.0"/>
  <unicode hex="2032"/>
  <note>
quotesingle
</note>
  <outline>
    <contour>
      <point x="159.0" y="598.0" type="curve" smooth="yes"/>
      <point x="101.0" y="598.0"/>
      <point x="59.0" y="552.0"/>
      <point x="59.0" y="479.0" type="curve" smooth="yes"/>
      <point x="59.0" y="415.0"/>
      <point x="109.0" y="259.0"/>
      <point x="133.0" y="173.0" type="curve"/>
      <point x="186.0" y="173.0" type="line"/>
      <point x="210.0" y="259.0"/>
      <point x="260.0" y="415.0"/>
      <point x="260.0" y="479.0" type="curve" smooth="yes"/>
      <point x="260.0" y="552.0"/>
      <point x="216.0" y="598.0"/>
    </contour>
  </outline>
</glyph>
<glyph name="second" format="2">
  <advance width="606.0"/>
  <unicode hex="2033"/>
  <note>
quotedbl
</note>
  <outline>
    <contour>
      <point x="159.0" y="598.0" type="curve" smooth="yes"/>
      <point x="101.0" y="598.0"/>
      <point x="59.0" y="552.0"/>
      <point x="59.0" y="479.0" type="curve" smooth="yes"/>
      <point x="59.0" y="415.0"/>
      <point x="109.0" y="259.0"/>
      <point x="133.0" y="173.0" type="curve"/>
      <point x="186.0" y="173.0" type="line"/>
      <point x="210.0" y="259.0"/>
      <point x="260.0" y="415.0"/>
      <point x="260.0" y="479.0" type="curve" smooth="yes"/>
      <point x="260.0" y="552.0"/>
      <point x="216.0" y="598.0"/>
    </contour>
    <contour>
      <point x="447.0" y="598.0" type="curve" smooth="yes"/>
      <point x="388.0" y="598.0"/>
      <point x="346.0" y="552.0"/>
      <point x="346.0" y="479.0" type="curve" smooth="yes"/>
      <point x="346.0" y="415.0"/>
      <point x="396.0" y="259.0"/>
      <point x="420.0" y="173.0" type="curve"/>
      <point x="473.0" y="173.0" type="line"/>
      <point x="497.0" y="259.0"/>
      <point x="547.0" y="415.0"/>
      <point x="547.0" y="479.0" type="curve" smooth="yes"/>
      <point x="547.0" y="552.0"/>
      <point x="503.0" y="598.0"/>
    </contour>
  </outline>
</glyph>
<glyph name="guilsinglright" format="2">
  <advance width="431.0"/>
  <unicode hex="203A"/>
  <note>
guilsinglright
</note>
  <outline>
    <contour>
      <point x="65.0" y="391.0" type="line"/>
      <point x="225.0" y="186.0" type="line"/>
      <point x="225.0" y="264.0" type="line"/>
      <point x="65.0" y="59.0" type="line"/>
      <point x="108.0" y="14.0" type="line"/>
      <point x="359.0" y="197.0" type="line"/>
      <point x="359.0" y="254.0" type="line"/>
      <point x="108.0" y="436.0" type="line"/>
    </contour>
  </outline>
</glyph>
<glyph name="sevensuperior" format="2">
  <advance width="400.0"/>
  <unicode hex="2077"/>
  <note>
uni2087
</note>
  <outline>
    <contour>
      <point x="106.0" y="199.0" type="line"/>
      <point x="210.0" y="199.0" type="line"/>
      <point x="362.0" y="540.0" type="line"/>
      <point x="358.0" y="588.0" type="line"/>
      <point x="340.0" y="588.0"/>
      <point x="322.0" y="587.0"/>
      <point x="305.0" y="587.0" type="curve"/>
      <point x="127.0" y="587.0" type="line" smooth="yes"/>
      <point x="113.0" y="587.0"/>
      <point x="76.0" y="586.0"/>
      <point x="55.0" y="587.0" type="curve"/>
      <point x="45.0" y="443.0" type="line"/>
      <point x="102.0" y="438.0" type="line"/>
      <point x="107.0" y="479.0" type="line"/>
      <point x="127.0" y="480.0"/>
      <point x="151.0" y="481.0"/>
      <point x="161.0" y="481.0" type="curve"/>
      <point x="286.0" y="481.0" type="line"/>
      <point x="285.0" y="513.0" type="line"/>
      <point x="106.0" y="232.0" type="line"/>
    </contour>
  </outline>
</glyph>
<glyph name="fiveinferior" format="2">
  <advance width="400.0"/>
  <unicode hex="2085"/>
  <note>
    uni2085
  </note>
  <outline>
    <contour>
      <point x="153.0" y="-6.0" type="curve" smooth="yes"/>
      <point x="301.0" y="-6.0"/>
      <point x="361.0" y="65.0"/>
      <point x="361.0" y="128.0" type="curve" smooth="yes"/>
      <point x="361.0" y="204.0"/>
      <point x="281.0" y="251.0"/>
      <point x="135.0" y="251.0" type="curve"/>
      <point x="140.0" y="235.0" type="line"/>
      <point x="146.0" y="286.0" type="line"/>
      <point x="333.0" y="286.0" type="line"/>
      <point x="341.0" y="388.0" type="line"/>
      <point x="97.0" y="388.0" type="line"/>
      <point x="70.0" y="148.0" type="line"/>
      <point x="170.0" y="150.0"/>
      <point x="213.0" y="129.00000000000009"/>
      <point x="213.0" y="91.0" type="curve" smooth="yes"/>
      <point x="213.0" y="61.77688475928835"/>
      <point x="187.24361290639536" y="52.83683541486198"/>
      <point x="169.75837462951836" y="52.83683541486198" type="curve" smooth="yes"/>
      <point x="159.514726901921" y="52.83683541486198"/>
      <point x="150.5784947120792" y="55.944190261821404"/>
      <point x="143.7802015139821" y="59.123102389186215" type="curve"/>
      <point x="127.81911345121011" y="73.6591816702769"/>
      <point x="115.30465969073293" y="91.00372494889484"/>
      <point x="107.7184278574664" y="110.80507583572603" type="curve"/>
      <point x="97.04627121066778" y="115.81970365771554"/>
      <point x="86.4742951511248" y="118.16976012395662"/>
      <point x="69.4742951511248" y="118.16976012395662" type="curve" smooth="yes"/>
      <point x="38.47429515112481" y="118.16976012395662"/>
      <point x="20.0" y="92.0"/>
      <point x="20.0" y="67.0" type="curve" smooth="yes"/>
      <point x="20.0" y="26.0"/>
      <point x="77.0" y="-6.0"/>
    </contour>
  </outline>
</glyph>
<glyph name="sixinferior" format="2">
  <advance width="400.0"/>
  <unicode hex="2086"/>
  <note>
uni2086
</note>
  <outline>
    <contour>
      <point x="151.0" y="180.0" type="curve"/>
      <point x="156.0" y="141.0" type="line"/>
      <point x="163.0" y="155.0"/>
      <point x="187.0" y="171.0"/>
      <point x="201.0" y="171.0" type="curve" smooth="yes"/>
      <point x="222.0" y="171.0"/>
      <point x="238.0" y="147.0"/>
      <point x="238.0" y="110.0" type="curve" smooth="yes"/>
      <point x="238.0" y="72.0"/>
      <point x="224.0" y="47.0"/>
      <point x="206.0" y="47.0" type="curve" smooth="yes"/>
      <point x="177.0" y="47.0"/>
      <point x="163.0" y="100.0"/>
      <point x="163.0" y="142.0" type="curve" smooth="yes"/>
      <point x="163.0" y="270.0"/>
      <point x="213.0" y="330.0"/>
      <point x="349.0" y="345.0" type="curve"/>
      <point x="337.0" y="400.0" type="line"/>
      <point x="155.0" y="404.0"/>
      <point x="21.0" y="299.0"/>
      <point x="21.0" y="166.0" type="curve" smooth="yes"/>
      <point x="21.0" y="72.0"/>
      <point x="89.0" y="-6.0"/>
      <point x="199.0" y="-6.0" type="curve" smooth="yes"/>
      <point x="288.0" y="-6.0"/>
      <point x="378.0" y="54.0"/>
      <point x="378.0" y="140.0" type="curve" smooth="yes"/>
      <point x="378.0" y="221.0"/>
      <point x="314.0" y="259.0"/>
      <point x="262.0" y="259.0" type="curve" smooth="yes"/>
      <point x="227.0" y="259.0"/>
      <point x="184.0" y="229.0"/>
    </contour>
  </outline>
</glyph>
<glyph name="nineinferior" format="2">
  <advance width="400.0"/>
  <unicode hex="2089"/>
  <note>
uni2089
</note>
  <outline>
    <contour>
      <point x="249.0" y="208.0" type="curve"/>
      <point x="244.0" y="247.0" type="line"/>
      <point x="237.0" y="233.0"/>
      <point x="213.0" y="217.0"/>
      <point x="199.0" y="217.0" type="curve" smooth="yes"/>
      <point x="178.0" y="217.0"/>
      <point x="162.0" y="241.0"/>
      <point x="162.0" y="278.0" type="curve" smooth="yes"/>
      <point x="162.0" y="316.0"/>
      <point x="176.0" y="341.0"/>
      <point x="194.0" y="341.0" type="curve" smooth="yes"/>
      <point x="223.0" y="341.0"/>
      <point x="237.0" y="288.0"/>
      <point x="237.0" y="246.0" type="curve" smooth="yes"/>
      <point x="237.0" y="118.0"/>
      <point x="187.0" y="58.0"/>
      <point x="51.0" y="43.0" type="curve"/>
      <point x="63.0" y="-12.0" type="line"/>
      <point x="245.0" y="-16.0"/>
      <point x="379.0" y="89.0"/>
      <point x="379.0" y="222.0" type="curve" smooth="yes"/>
      <point x="379.0" y="316.0"/>
      <point x="311.0" y="394.0"/>
      <point x="201.0" y="394.0" type="curve" smooth="yes"/>
      <point x="112.0" y="394.0"/>
      <point x="22.0" y="334.0"/>
      <point x="22.0" y="248.0" type="curve" smooth="yes"/>
      <point x="22.0" y="167.0"/>
      <point x="86.0" y="129.0"/>
      <point x="138.0" y="129.0" type="curve" smooth="yes"/>
      <point x="173.0" y="129.0"/>
      <point x="216.0" y="159.0"/>
    </contour>
  </outline>
</glyph>
<glyph name="franc" format="2">
  <advance width="566.0"/>
  <unicode hex="20A3"/>
  <outline>
    <contour>
      <point x="37.0" y="0.0" type="line"/>
      <point x="354.0" y="0.0" type="line"/>
      <point x="357.0" y="59.0" type="line"/>
      <point x="276.0" y="76.0" type="line"/>
      <point x="274.0" y="84.0"/>
      <point x="269.0" y="154.0"/>
      <point x="269.0" y="156.0" type="curve"/>
      <point x="268.0" y="400.0" type="line"/>
      <point x="268.0" y="531.0"/>
      <point x="267.0" y="503.0"/>
      <point x="268.0" y="516.0" type="curve"/>
      <point x="282.0" y="520.0"/>
      <point x="305.0" y="522.0"/>
      <point x="329.0" y="522.0" type="curve" smooth="yes"/>
      <point x="383.0" y="522.0" type="line" smooth="yes"/>
      <point x="399.0" y="522.0"/>
      <point x="409.0" y="521.0"/>
      <point x="432.0" y="517.0" type="curve"/>
      <point x="472.0" y="425.0" type="line"/>
      <point x="539.0" y="434.0" type="line"/>
      <point x="507.0" y="593.0" type="line"/>
      <point x="478.0" y="590.0"/>
      <point x="386.0" y="587.0"/>
      <point x="322.0" y="587.0" type="curve" smooth="yes"/>
      <point x="35.0" y="587.0" type="line"/>
      <point x="31.0" y="530.0" type="line"/>
      <point x="97.0" y="512.0" type="line"/>
      <point x="100.0" y="505.0"/>
      <point x="104.0" y="427.0"/>
      <point x="104.0" y="344.0" type="curve"/>
      <point x="103.0" y="236.0" type="line"/>
      <point x="103.0" y="163.0"/>
      <point x="99.0" y="84.0"/>
      <point x="96.0" y="76.0" type="curve"/>
      <point x="34.0" y="57.0" type="line"/>
    </contour>
    <contour>
      <point x="19.0" y="116.0" type="line"/>
      <point x="436.0" y="116.0" type="line"/>
      <point x="436.0" y="185.0" type="line"/>
      <point x="19.0" y="185.0" type="line"/>
    </contour>
    <contour>
      <point x="405.0" y="229.0" type="line"/>
      <point x="468.0" y="229.0" type="line"/>
      <point x="468.0" y="402.0" type="line"/>
      <point x="405.0" y="402.0" type="line"/>
      <point x="394.0" y="353.0" type="line"/>
      <point x="385.0" y="352.0"/>
      <point x="361.0" y="351.0"/>
      <point x="331.0" y="351.0" type="curve" smooth="yes"/>
      <point x="305.0" y="351.0" type="line" smooth="yes"/>
      <point x="277.0" y="351.0"/>
      <point x="254.0" y="354.0"/>
      <point x="242.0" y="355.0" type="curve"/>
      <point x="242.0" y="276.0" type="line"/>
      <point x="254.0" y="277.0"/>
      <point x="277.0" y="280.0"/>
      <point x="305.0" y="280.0" type="curve" smooth="yes"/>
      <point x="331.0" y="280.0" type="line" smooth="yes"/>
      <point x="361.0" y="280.0"/>
      <point x="385.0" y="279.0"/>
      <point x="394.0" y="278.0" type="curve"/>
    </contour>
  </outline>
</glyph>
<glyph name="naira" format="2">
  <advance width="719.0"/>
  <unicode hex="20A6"/>
  <outline>
    <contour>
      <point x="542.0" y="-6.0" type="line"/>
      <point x="613.0" y="-6.0" type="line"/>
      <point x="613.0" y="41.0"/>
      <point x="614.0" y="85.0"/>
      <point x="614.0" y="159.0" type="curve" smooth="yes"/>
      <point x="614.0" y="320.0" type="line" smooth="yes"/>
      <point x="614.0" y="405.0"/>
      <point x="616.0" y="501.0"/>
      <point x="621.0" y="511.0" type="curve"/>
      <point x="686.0" y="530.0" type="line"/>
      <point x="683.0" y="587.0" type="line"/>
      <point x="455.0" y="587.0" type="line"/>
      <point x="452.0" y="530.0" type="line"/>
      <point x="523.0" y="511.0" type="line"/>
      <point x="528.0" y="501.0"/>
      <point x="531.0" y="404.0"/>
      <point x="530.0" y="320.0" type="curve" smooth="yes"/>
      <point x="529.0" y="192.0" type="line"/>
      <point x="563.0" y="192.0" type="line"/>
      <point x="207.0" y="587.0" type="line"/>
      <point x="34.0" y="587.0" type="line"/>
      <point x="31.0" y="530.0" type="line"/>
      <point x="97.0" y="511.0" type="line"/>
      <point x="99.0" y="514.0"/>
      <point x="104.0" y="417.0"/>
      <point x="104.0" y="394.0" type="curve" smooth="yes"/>
      <point x="104.0" y="286.0" type="line" smooth="yes"/>
      <point x="104.0" y="196.0"/>
      <point x="101.0" y="89.0"/>
      <point x="97.0" y="76.0" type="curve"/>
      <point x="31.0" y="57.0" type="line"/>
      <point x="34.0" y="0.0" type="line"/>
      <point x="268.0" y="0.0" type="line"/>
      <point x="271.0" y="57.0" type="line"/>
      <point x="200.0" y="76.0" type="line"/>
      <point x="193.0" y="90.0"/>
      <point x="192.0" y="185.0"/>
      <point x="192.0" y="286.0" type="curve" smooth="yes"/>
      <point x="192.0" y="453.0" type="line"/>
      <point x="134.0" y="453.0" type="line"/>
    </contour>
    <contour>
      <point x="17.0" y="209.0" type="line"/>
      <point x="697.0" y="209.0" type="line"/>
      <point x="697.0" y="278.0" type="line"/>
      <point x="17.0" y="278.0" type="line"/>
    </contour>
    <contour>
      <point x="17.0" y="323.0" type="line"/>
      <point x="697.0" y="323.0" type="line"/>
      <point x="697.0" y="392.0" type="line"/>
      <point x="17.0" y="392.0" type="line"/>
    </contour>
  </outline>
</glyph>
<glyph name="won" format="2">
  <advance width="1007.0"/>
  <unicode hex="20A9"/>
  <outline>
    <contour>
      <point x="48.0" y="298.0" type="line"/>
      <point x="955.0" y="298.0" type="line"/>
      <point x="955.0" y="366.0" type="line"/>
      <point x="48.0" y="366.0" type="line"/>
    </contour>
    <contour>
      <point x="504.0" y="415.0" type="line"/>
      <point x="458.0" y="463.0" type="line"/>
      <point x="334.0" y="146.0" type="line"/>
      <point x="386.0" y="146.0" type="line"/>
      <point x="239.0" y="511.0" type="line"/>
      <point x="286.0" y="530.0" type="line"/>
      <point x="283.0" y="587.0" type="line"/>
      <point x="-1.0" y="587.0" type="line"/>
      <point x="-4.0" y="530.0" type="line"/>
      <point x="47.0" y="511.0" type="line"/>
      <point x="283.0" y="-3.0" type="line"/>
      <point x="343.0" y="-3.0" type="line"/>
    </contour>
    <contour>
      <point x="660.0" y="-3.0" type="line"/>
      <point x="720.0" y="-3.0" type="line"/>
      <point x="954.0" y="511.0" type="line"/>
      <point x="1004.0" y="530.0" type="line"/>
      <point x="1001.0" y="587.0" type="line"/>
      <point x="785.0" y="587.0" type="line"/>
      <point x="782.0" y="530.0" type="line"/>
      <point x="849.0" y="511.0" type="line"/>
      <point x="711.0" y="146.0" type="line"/>
      <point x="759.0" y="146.0" type="line"/>
      <point x="606.0" y="511.0" type="line"/>
      <point x="671.0" y="530.0" type="line"/>
      <point x="668.0" y="587.0" type="line"/>
      <point x="371.0" y="587.0" type="line"/>
      <point x="368.0" y="530.0" type="line"/>
      <point x="419.0" y="511.0" type="line"/>
    </contour>
    <contour>
      <point x="48.0" y="185.0" type="line"/>
      <point x="955.0" y="185.0" type="line"/>
      <point x="955.0" y="253.0" type="line"/>
      <point x="48.0" y="253.0" type="line"/>
    </contour>
  </outline>
</glyph>
<glyph name="dong" format="2">
  <advance width="577.0"/>
  <unicode hex="20AB"/>
  <outline>
    <contour>
      <point x="53.0" y="-106.0" type="line"/>
      <point x="579.0" y="-106.0" type="line"/>
      <point x="579.0" y="-44.0" type="line"/>
      <point x="53.0" y="-44.0" type="line"/>
    </contour>
    <component base="dcroat"/>
  </outline>
</glyph>
<glyph name="kip" format="2">
  <advance width="704.0"/>
  <unicode hex="20AD"/>
  <outline>
    <contour>
      <point x="377.0" y="0.0" type="line"/>
      <point x="717.0" y="0.0" type="line"/>
      <point x="717.0" y="58.0" type="line"/>
      <point x="664.0" y="64.0" type="line"/>
      <point x="657.0" y="72.0"/>
      <point x="643.0" y="82.0"/>
      <point x="589.0" y="151.0" type="curve" smooth="yes"/>
      <point x="444.0" y="340.0" type="line"/>
      <point x="428.0" y="340.0" type="line"/>
      <point x="608.0" y="517.0" type="line"/>
      <point x="681.0" y="528.0" type="line"/>
      <point x="678.0" y="587.0" type="line"/>
      <point x="428.0" y="587.0" type="line"/>
      <point x="425.0" y="530.0" type="line"/>
      <point x="490.0" y="519.0" type="line"/>
      <point x="283.0" y="283.0" type="line"/>
      <point x="391.0" y="115.0" type="line" smooth="yes"/>
      <point x="410.0" y="87.0"/>
      <point x="414.0" y="82.0"/>
      <point x="421.0" y="67.0" type="curve"/>
      <point x="374.0" y="57.0" type="line"/>
    </contour>
    <contour>
      <point x="37.0" y="0.0" type="line"/>
      <point x="319.0" y="0.0" type="line"/>
      <point x="322.0" y="57.0" type="line"/>
      <point x="275.0" y="76.0" type="line"/>
      <point x="272.0" y="83.0"/>
      <point x="270.0" y="152.0"/>
      <point x="270.0" y="234.0" type="curve" smooth="yes"/>
      <point x="270.0" y="354.0" type="line" smooth="yes"/>
      <point x="270.0" y="423.0"/>
      <point x="274.0" y="501.0"/>
      <point x="277.0" y="511.0" type="curve"/>
      <point x="343.0" y="530.0" type="line"/>
      <point x="340.0" y="587.0" type="line"/>
      <point x="34.0" y="587.0" type="line"/>
      <point x="31.0" y="530.0" type="line"/>
      <point x="96.0" y="511.0" type="line"/>
      <point x="100.0" y="505.0"/>
      <point x="104.0" y="431.0"/>
      <point x="104.0" y="354.0" type="curve" smooth="yes"/>
      <point x="104.0" y="234.0" type="line" smooth="yes"/>
      <point x="104.0" y="152.0"/>
      <point x="102.0" y="83.0"/>
      <point x="99.0" y="76.0" type="curve"/>
      <point x="34.0" y="57.0" type="line"/>
    </contour>
    <contour>
      <point x="14.0" y="277.0" type="line"/>
      <point x="623.0" y="277.0" type="line"/>
      <point x="623.0" y="346.0" type="line"/>
      <point x="14.0" y="346.0" type="line"/>
    </contour>
  </outline>
</glyph>
<glyph name="guarani" format="2">
  <advance width="672.0"/>
  <unicode hex="20B2"/>
  <outline>
    <contour>
      <point x="381.0" y="-9.0" type="curve" smooth="yes"/>
      <point x="448.0" y="-9.0"/>
      <point x="526.0" y="7.0"/>
      <point x="606.0" y="44.0" type="curve"/>
      <point x="604.0" y="84.0"/>
      <point x="603.0" y="125.0"/>
      <point x="603.0" y="153.0" type="curve" smooth="yes"/>
      <point x="603.0" y="177.0"/>
      <point x="603.0" y="218.0"/>
      <point x="606.0" y="276.0" type="curve"/>
      <point x="450.0" y="276.0" type="line"/>
      <point x="450.0" y="239.0"/>
      <point x="452.0" y="190.0"/>
      <point x="452.0" y="144.0" type="curve" smooth="yes"/>
      <point x="452.0" y="21.0" type="line"/>
      <point x="470.0" y="77.0" type="line"/>
      <point x="456.0" y="72.0"/>
      <point x="421.0" y="67.0"/>
      <point x="396.0" y="67.0" type="curve" smooth="yes"/>
      <point x="312.0" y="67.0"/>
      <point x="235.0" y="165.0"/>
      <point x="235.0" y="309.0" type="curve" smooth="yes"/>
      <point x="235.0" y="449.0"/>
      <point x="305.0" y="522.0"/>
      <point x="396.0" y="522.0" type="curve" smooth="yes"/>
      <point x="411.0" y="522.0"/>
      <point x="436.0" y="521.0"/>
      <point x="469.0" y="507.0" type="curve"/>
      <point x="502.0" y="410.0" type="line"/>
      <point x="576.0" y="412.0" type="line"/>
      <point x="572.0" y="560.0" type="line"/>
      <point x="535.0" y="580.0"/>
      <point x="470.0" y="596.0"/>
      <point x="408.0" y="596.0" type="curve" smooth="yes"/>
      <point x="210.0" y="596.0"/>
      <point x="41.0" y="491.0"/>
      <point x="41.0" y="275.0" type="curve" smooth="yes"/>
      <point x="41.0" y="101.0"/>
      <point x="172.0" y="-9.0"/>
    </contour>
    <contour>
      <point x="342.0" y="-116.0" type="line"/>
      <point x="424.0" y="-116.0" type="line"/>
      <point x="424.0" y="703.0" type="line"/>
      <point x="342.0" y="703.0" type="line"/>
    </contour>
  </outline>
</glyph>
<glyph name="rupeeIndian" format="2">
  <advance width="571.0"/>
  <unicode hex="20B9"/>
  <outline>
    <contour>
      <point x="434.0" y="-13.0" type="curve" smooth="yes"/>
      <point x="460.0" y="-13.0"/>
      <point x="483.0" y="-11.0"/>
      <point x="510.0" y="-6.0" type="curve"/>
      <point x="511.0" y="47.0" type="line"/>
      <point x="436.0" y="67.0"/>
      <point x="385.0" y="113.0"/>
      <point x="364.0" y="137.0" type="curve" smooth="yes"/>
      <point x="218.0" y="307.0" type="line"/>
      <point x="84.0" y="276.0" type="line"/>
      <point x="142.0" y="153.0" type="line" smooth="yes"/>
      <point x="192.0" y="47.0"/>
      <point x="285.0" y="-13.0"/>
    </contour>
    <contour>
      <point x="180.0" y="559.0" type="curve"/>
      <point x="165.0" y="518.0" type="line"/>
      <point x="210.0" y="518.0"/>
      <point x="254.0" y="491.0"/>
      <point x="254.0" y="431.0" type="curve" smooth="yes"/>
      <point x="254.0" y="358.0"/>
      <point x="197.0" y="338.0"/>
      <point x="156.0" y="338.0" type="curve" smooth="yes"/>
      <point x="58.0" y="338.0" type="line"/>
      <point x="58.0" y="267.0" type="line"/>
      <point x="185.0" y="267.0" type="line" smooth="yes"/>
      <point x="324.0" y="267.0"/>
      <point x="430.0" y="333.0"/>
      <point x="430.0" y="417.0" type="curve" smooth="yes"/>
      <point x="430.0" y="523.0"/>
      <point x="332.0" y="559.0"/>
    </contour>
    <contour>
      <point x="58.0" y="405.0" type="line"/>
      <point x="505.0" y="405.0" type="line"/>
      <point x="505.0" y="473.0" type="line"/>
      <point x="58.0" y="473.0" type="line"/>
    </contour>
    <contour>
      <point x="58.0" y="518.0" type="line"/>
      <point x="505.0" y="518.0" type="line"/>
      <point x="505.0" y="587.0" type="line"/>
      <point x="58.0" y="587.0" type="line"/>
    </contour>
  </outline>
</glyph>
<glyph name="trademark" format="2">
  <advance width="1163.0"/>
  <unicode hex="2122"/>
  <outline>
    <contour>
      <point x="895.0" y="298.0" type="line"/>
      <point x="1138.0" y="298.0" type="line"/>
      <point x="1141.0" y="346.0" type="line"/>
      <point x="1091.0" y="356.0" type="line"/>
      <point x="1077.0" y="630.0" type="line"/>
      <point x="1127.0" y="640.0" type="line"/>
      <point x="1124.0" y="688.0" type="line"/>
      <point x="923.0" y="688.0" type="line"/>
      <point x="809.0" y="430.0" type="line"/>
      <point x="842.0" y="430.0" type="line"/>
      <point x="696.0" y="688.0" type="line"/>
      <point x="507.0" y="688.0" type="line"/>
      <point x="504.0" y="638.0" type="line"/>
      <point x="554.0" y="627.0" type="line"/>
      <point x="551.0" y="356.0" type="line"/>
      <point x="501.0" y="346.0" type="line"/>
      <point x="504.0" y="298.0" type="line"/>
      <point x="676.0" y="298.0" type="line"/>
      <point x="679.0" y="346.0" type="line"/>
      <point x="629.0" y="356.0" type="line"/>
      <point x="626.0" y="666.0" type="line"/>
      <point x="542.0" y="666.0" type="line"/>
      <point x="751.0" y="298.0" type="line"/>
      <point x="824.0" y="298.0" type="line"/>
      <point x="987.0" y="668.0" type="line"/>
      <point x="932.0" y="668.0" type="line"/>
      <point x="937.0" y="356.0" type="line"/>
      <point x="892.0" y="346.0" type="line"/>
    </contour>
    <contour>
      <point x="100.0" y="298.0" type="line"/>
      <point x="400.0" y="298.0" type="line"/>
      <point x="403.0" y="346.0" type="line"/>
      <point x="328.0" y="356.0" type="line"/>
      <point x="325.0" y="387.0"/>
      <point x="326.0" y="427.0"/>
      <point x="326.0" y="467.0" type="curve" smooth="yes"/>
      <point x="326.0" y="487.0" type="line" smooth="yes"/>
      <point x="326.0" y="560.0"/>
      <point x="327.0" y="630.0"/>
      <point x="327.0" y="637.0" type="curve"/>
      <point x="332.0" y="638.0"/>
      <point x="335.0" y="638.0"/>
      <point x="343.0" y="638.0" type="curve" smooth="yes"/>
      <point x="353.0" y="638.0" type="line" smooth="yes"/>
      <point x="371.0" y="638.0"/>
      <point x="374.0" y="637.0"/>
      <point x="393.0" y="636.0" type="curve"/>
      <point x="421.0" y="556.0" type="line"/>
      <point x="482.0" y="560.0" type="line"/>
      <point x="464.0" y="693.0" type="line"/>
      <point x="438.0" y="691.0"/>
      <point x="350.0" y="688.0"/>
      <point x="322.0" y="688.0" type="curve" smooth="yes"/>
      <point x="177.0" y="688.0" type="line" smooth="yes"/>
      <point x="144.0" y="688.0"/>
      <point x="59.0" y="691.0"/>
      <point x="31.0" y="693.0" type="curve"/>
      <point x="19.0" y="559.0" type="line"/>
      <point x="79.0" y="555.0" type="line"/>
      <point x="103.0" y="636.0" type="line"/>
      <point x="122.0" y="637.0"/>
      <point x="128.0" y="638.0"/>
      <point x="147.0" y="638.0" type="curve" smooth="yes"/>
      <point x="157.0" y="638.0" type="line" smooth="yes"/>
      <point x="163.0" y="638.0"/>
      <point x="167.0" y="638.0"/>
      <point x="173.0" y="637.0" type="curve"/>
      <point x="174.0" y="631.0"/>
      <point x="175.0" y="560.0"/>
      <point x="175.0" y="487.0" type="curve" smooth="yes"/>
      <point x="175.0" y="467.0" type="line" smooth="yes"/>
      <point x="175.0" y="427.0"/>
      <point x="175.0" y="387.0"/>
      <point x="172.0" y="356.0" type="curve"/>
      <point x="97.0" y="345.0" type="line"/>
    </contour>
  </outline>
</glyph>
<glyph name="partialdiff" format="2">
  <advance width="563.0"/>
  <unicode hex="2202"/>
  <note>
partialdiff
</note>
  <outline>
    <contour>
      <point x="242.0" y="-11.0" type="curve" smooth="yes"/>
      <point x="402.0" y="-11.0"/>
      <point x="548.0" y="153.0"/>
      <point x="548.0" y="423.0" type="curve" smooth="yes"/>
      <point x="548.0" y="591.0"/>
      <point x="458.0" y="707.0"/>
      <point x="268.0" y="707.0" type="curve" smooth="yes"/>
      <point x="237.0" y="707.0"/>
      <point x="212.0" y="706.0"/>
      <point x="181.0" y="702.0" type="curve"/>
      <point x="181.0" y="642.0" type="line"/>
      <point x="210.0" y="642.0" type="line" smooth="yes"/>
      <point x="342.0" y="642.0"/>
      <point x="390.0" y="576.0"/>
      <point x="390.0" y="471.0" type="curve" smooth="yes"/>
      <point x="390.0" y="440.0"/>
      <point x="386.0" y="405.0"/>
      <point x="377.0" y="365.0" type="curve"/>
      <point x="394.0" y="368.0" type="line"/>
      <point x="384.0" y="419.0"/>
      <point x="341.0" y="457.0"/>
      <point x="275.0" y="457.0" type="curve" smooth="yes"/>
      <point x="149.0" y="457.0"/>
      <point x="36.0" y="342.0"/>
      <point x="36.0" y="184.0" type="curve" smooth="yes"/>
      <point x="36.0" y="62.0"/>
      <point x="117.0" y="-11.0"/>
    </contour>
    <contour>
      <point x="253.0" y="56.0" type="curve" smooth="yes"/>
      <point x="223.0" y="56.0"/>
      <point x="203.0" y="100.0"/>
      <point x="203.0" y="166.0" type="curve" smooth="yes"/>
      <point x="203.0" y="291.0"/>
      <point x="258.0" y="388.0"/>
      <point x="299.0" y="388.0" type="curve" smooth="yes"/>
      <point x="330.0" y="388.0"/>
      <point x="345.0" y="341.0"/>
      <point x="345.0" y="278.0" type="curve" smooth="yes"/>
      <point x="345.0" y="157.0"/>
      <point x="291.0" y="56.0"/>
    </contour>
  </outline>
</glyph>
<glyph name="emptyset" format="2">
  <advance width="540.0"/>
  <unicode hex="2205"/>
  <outline>
    <contour>
      <point x="26.0" y="18.0" type="line"/>
      <point x="74.0" y="-14.0" type="line"/>
      <point x="145.0" y="77.0" type="line"/>
      <point x="183.0" y="56.0"/>
      <point x="225.0" y="46.0"/>
      <point x="270.0" y="46.0" type="curve" smooth="yes"/>
      <point x="415.0" y="46.0"/>
      <point x="534.0" y="159.0"/>
      <point x="534.0" y="297.0" type="curve" smooth="yes"/>
      <point x="534.0" y="370.0"/>
      <point x="500.0" y="431.0"/>
      <point x="455.0" y="477.0" type="curve"/>
      <point x="527.0" y="567.0" type="line"/>
      <point x="478.0" y="604.0" type="line"/>
      <point x="407.0" y="514.0" type="line"/>
      <point x="365.0" y="537.0"/>
      <point x="318.0" y="550.0"/>
      <point x="270.0" y="550.0" type="curve" smooth="yes"/>
      <point x="120.0" y="550.0"/>
      <point x="5.0" y="430.0"/>
      <point x="5.0" y="297.0" type="curve" smooth="yes"/>
      <point x="5.0" y="219.0"/>
      <point x="41.0" y="153.0"/>
      <point x="96.0" y="109.0" type="curve"/>
    </contour>
    <contour>
      <point x="142.0" y="170.0" type="line"/>
      <point x="105.0" y="199.0"/>
      <point x="86.0" y="245.0"/>
      <point x="86.0" y="297.0" type="curve" smooth="yes"/>
      <point x="86.0" y="399.0"/>
      <point x="165.0" y="473.0"/>
      <point x="270.0" y="473.0" type="curve" smooth="yes"/>
      <point x="305.0" y="473.0"/>
      <point x="334.0" y="465.0"/>
      <point x="361.0" y="451.0" type="curve"/>
    </contour>
    <contour>
      <point x="270.0" y="121.0" type="curve" smooth="yes"/>
      <point x="243.0" y="121.0"/>
      <point x="215.0" y="126.0"/>
      <point x="190.0" y="136.0" type="curve"/>
      <point x="410.0" y="418.0" type="line"/>
      <point x="437.0" y="385.0"/>
      <point x="456.0" y="344.0"/>
      <point x="456.0" y="297.0" type="curve" smooth="yes"/>
      <point x="456.0" y="193.0"/>
      <point x="369.0" y="121.0"/>
    </contour>
  </outline>
</glyph>
<glyph name="bulletoperator" format="2">
  <advance width="540.0"/>
  <unicode hex="2219"/>
  <note>
periodcentered
</note>
  <outline>
    <contour>
      <point x="270.0" y="141.0" type="curve" smooth="yes"/>
      <point x="333.0" y="141.0"/>
      <point x="383.0" y="189.0"/>
      <point x="383.0" y="251.0" type="curve" smooth="yes"/>
      <point x="383.0" y="314.0"/>
      <point x="333.0" y="365.0"/>
      <point x="270.0" y="365.0" type="curve" smooth="yes"/>
      <point x="209.0" y="365.0"/>
      <point x="157.0" y="314.0"/>
      <point x="157.0" y="251.0" type="curve" smooth="yes"/>
      <point x="157.0" y="189.0"/>
      <point x="209.0" y="141.0"/>
    </contour>
  </outline>
</glyph>
<glyph name="integral" format="2">
  <advance width="399.0"/>
  <unicode hex="222B"/>
  <outline>
    <contour>
      <point x="89.0" y="-231.0" type="curve" smooth="yes"/>
      <point x="211.0" y="-231.0"/>
      <point x="303.0" y="-132.0"/>
      <point x="292.0" y="79.0" type="curve" smooth="yes"/>
      <point x="262.0" y="613.0" type="line" smooth="yes"/>
      <point x="258.0" y="675.0"/>
      <point x="258.54600682115154" y="721.135987592776"/>
      <point x="289.39190974231815" y="721.135987592776" type="curve" smooth="yes"/>
      <point x="303.48815570091574" y="721.135987592776"/>
      <point x="310.2829147822663" y="689.5576326757216"/>
      <point x="316.91644229219446" y="664.6819045134903" type="curve"/>
      <point x="331.31211831200403" y="653.1653636976425"/>
      <point x="346.8594484133989" y="649.1345744120958"/>
      <point x="368.74087596350955" y="649.1345744120958" type="curve" smooth="yes"/>
      <point x="409.04876881897667" y="649.1345744120958"/>
      <point x="438.0" y="673.8721040845367"/>
      <point x="438.0" y="716.0" type="curve" smooth="yes"/>
      <point x="438.0" y="765.000000000003"/>
      <point x="384.0" y="798.0"/>
      <point x="310.0" y="798.0" type="curve" smooth="yes"/>
      <point x="184.0" y="798.0"/>
      <point x="91.0" y="699.0"/>
      <point x="98.0" y="558.0" type="curve" smooth="yes"/>
      <point x="128.0" y="-7.0" type="line" smooth="yes"/>
      <point x="133.6401042928191" y="-113.22196418142623"/>
      <point x="132.45984689169927" y="-154.32009464464045"/>
      <point x="106.06777418871457" y="-154.32009464464045" type="curve" smooth="yes"/>
      <point x="94.87113728441815" y="-154.32009464464045"/>
      <point x="83.05609765027793" y="-121.99736915526137"/>
      <point x="79.60113540552356" y="-97.812633441981" type="curve"/>
      <point x="67.5833336290898" y="-86.77238372057764"/>
      <point x="54.45447709902328" y="-81.93543657792156"/>
      <point x="33.03371118154655" y="-81.93543657792156" type="curve" smooth="yes"/>
      <point x="-8.425835755505432" y="-81.93543657792156"/>
      <point x="-40.90248085619635" y="-113.0577364786684"/>
      <point x="-40.90248085619635" y="-146.88872677930294" type="curve" smooth="yes"/>
      <point x="-40.90248085619635" y="-192.49422841006003"/>
      <point x="11.728110672228013" y="-231.0"/>
    </contour>
  </outline>
</glyph>
<glyph name="lessequal" format="2">
  <advance width="540.0"/>
  <unicode hex="2264"/>
  <outline>
    <contour>
      <point x="53.0" y="245.0" type="line"/>
      <point x="487.0" y="120.0" type="line"/>
      <point x="487.0" y="224.0" type="line"/>
      <point x="76.0" y="339.0" type="line"/>
      <point x="76.0" y="265.0" type="line"/>
      <point x="487.0" y="379.0" type="line"/>
      <point x="487.0" y="484.0" type="line"/>
      <point x="53.0" y="357.0" type="line"/>
    </contour>
    <contour>
      <point x="487.0" y="100.0" type="line"/>
      <point x="53.0" y="100.0" type="line"/>
      <point x="53.0" y="0.0" type="line"/>
      <point x="487.0" y="0.0" type="line"/>
    </contour>
  </outline>
</glyph>
<glyph name="lozenge" format="2">
  <advance width="540.0"/>
  <unicode hex="25CA"/>
  <outline>
    <contour>
      <point x="498.0" y="248.0" type="line"/>
      <point x="323.0" y="674.0" type="line"/>
      <point x="215.0" y="674.0" type="line"/>
      <point x="43.0" y="248.0" type="line"/>
      <point x="215.0" y="-178.0" type="line"/>
      <point x="323.0" y="-178.0" type="line"/>
    </contour>
    <contour>
      <point x="385.0" y="248.0" type="line"/>
      <point x="269.0" y="-50.0" type="line"/>
      <point x="155.0" y="248.0" type="line"/>
      <point x="269.0" y="547.0" type="line"/>
    </contour>
  </outline>
</glyph>
<glyph name="leftanglebracket-math" format="2">
  <advance width="540.0"/>
  <unicode hex="27E8"/>
  <outline>
    <contour>
      <point x="145.0" y="244.0" type="line"/>
      <point x="280.0" y="-160.0" type="line"/>
      <point x="393.0" y="-160.0" type="line"/>
      <point x="260.0" y="244.0" type="line"/>
      <point x="393.0" y="648.0" type="line"/>
      <point x="280.0" y="648.0" type="line"/>
    </contour>
  </outline>
</glyph>
<glyph name="T_h" format="2">
  <advance width="1141.0"/>
  <note>
T_h
</note>
  <outline>
    <contour>
      <point x="1073.0" y="70.0" type="line"/>
      <point x="1070.0" y="80.0"/>
      <point x="1069.0" y="127.0"/>
      <point x="1069.0" y="169.0" type="curve" smooth="yes"/>
      <point x="1069.0" y="270.0" type="line" smooth="yes"/>
      <point x="1069.0" y="382.0"/>
      <point x="1007.0" y="454.0"/>
      <point x="915.0" y="454.0" type="curve" smooth="yes"/>
      <point x="860.0" y="454.0"/>
      <point x="803.0" y="425.0"/>
      <point x="765.0" y="370.0" type="curve"/>
      <point x="762.0" y="371.0" type="line"/>
      <point x="762.0" y="451.0"/>
      <point x="765.0" y="518.0"/>
      <point x="770.0" y="596.0" type="curve"/>
      <point x="738.0" y="593.0"/>
      <point x="660.0" y="587.0"/>
      <point x="603.0" y="587.0" type="curve" smooth="yes"/>
      <point x="206.0" y="587.0" type="line" smooth="yes"/>
      <point x="167.0" y="587.0"/>
      <point x="63.0" y="593.0"/>
      <point x="38.0" y="593.0" type="curve"/>
      <point x="18.0" y="404.0" type="line"/>
      <point x="91.0" y="398.0" type="line"/>
      <point x="126.0" y="517.0" type="line"/>
      <point x="148.0" y="520.0"/>
      <point x="156.0" y="521.0"/>
      <point x="177.0" y="521.0" type="curve" smooth="yes"/>
      <point x="213.0" y="521.0" type="line" smooth="yes"/>
      <point x="224.0" y="521.0"/>
      <point x="236.0" y="520.0"/>
      <point x="239.0" y="516.0" type="curve"/>
      <point x="240.0" y="504.0"/>
      <point x="242.0" y="417.0"/>
      <point x="242.0" y="309.0" type="curve" smooth="yes"/>
      <point x="242.0" y="242.0" type="line" smooth="yes"/>
      <point x="242.0" y="174.0"/>
      <point x="240.0" y="113.0"/>
      <point x="238.0" y="76.0" type="curve"/>
      <point x="149.0" y="59.0" type="line"/>
      <point x="152.0" y="0.0" type="line"/>
      <point x="500.0" y="0.0" type="line"/>
      <point x="503.0" y="59.0" type="line"/>
      <point x="414.0" y="76.0" type="line"/>
      <point x="412.0" y="113.0"/>
      <point x="410.0" y="174.0"/>
      <point x="410.0" y="242.0" type="curve" smooth="yes"/>
      <point x="410.0" y="309.0" type="line" smooth="yes"/>
      <point x="410.0" y="409.0"/>
      <point x="412.0" y="504.0"/>
      <point x="413.0" y="518.0" type="curve"/>
      <point x="423.0" y="520.0"/>
      <point x="437.0" y="521.0"/>
      <point x="456.0" y="521.0" type="curve" smooth="yes"/>
      <point x="529.0" y="521.0" type="line" smooth="yes"/>
      <point x="546.0" y="521.0"/>
      <point x="575.0" y="518.0"/>
      <point x="597.0" y="515.0" type="curve"/>
      <point x="599.0" y="481.0"/>
      <point x="604.0" y="466.0"/>
      <point x="604.0" y="360.0" type="curve" smooth="yes"/>
      <point x="604.0" y="232.0" type="line" smooth="yes"/>
      <point x="604.0" y="195.0"/>
      <point x="600.0" y="101.0"/>
      <point x="598.0" y="70.0" type="curve"/>
      <point x="536.0" y="52.0" type="line"/>
      <point x="539.0" y="0.0" type="line"/>
      <point x="825.0" y="0.0" type="line"/>
      <point x="828.0" y="52.0" type="line"/>
      <point x="770.0" y="70.0" type="line"/>
      <point x="767.0" y="81.0"/>
      <point x="766.0" y="129.0"/>
      <point x="766.0" y="163.0" type="curve" smooth="yes"/>
      <point x="766.0" y="308.0" type="line"/>
      <point x="785.0" y="330.0"/>
      <point x="810.0" y="341.0"/>
      <point x="835.0" y="341.0" type="curve" smooth="yes"/>
      <point x="878.0" y="341.0"/>
      <point x="908.0" y="312.0"/>
      <point x="908.0" y="242.0" type="curve" smooth="yes"/>
      <point x="908.0" y="173.0" type="line" smooth="yes"/>
      <point x="908.0" y="148.0"/>
      <point x="906.0" y="95.0"/>
      <point x="903.0" y="70.0" type="curve"/>
      <point x="849.0" y="52.0" type="line"/>
      <point x="852.0" y="0.0" type="line"/>
      <point x="1132.0" y="0.0" type="line"/>
      <point x="1135.0" y="52.0" type="line"/>
    </contour>
  </outline>
</glyph>
<glyph name="breveinvertedcomb.case" format="2">
  <anchor x="300.0" y="660.0" name="_top"/>
  <anchor x="300.0" y="861.0" name="top"/>
  <outline>
    <contour>
      <point x="171.0" y="709.0" type="line"/>
      <point x="186.0" y="736.0"/>
      <point x="235.0" y="754.0"/>
      <point x="292.0" y="754.0" type="curve" smooth="yes"/>
      <point x="356.0" y="754.0"/>
      <point x="404.0" y="736.0"/>
      <point x="421.0" y="709.0" type="curve"/>
      <point x="501.0" y="734.0" type="line"/>
      <point x="483.0" y="801.0"/>
      <point x="400.0" y="847.0"/>
      <point x="299.0" y="847.0" type="curve" smooth="yes"/>
      <point x="198.0" y="847.0"/>
      <point x="117.0" y="801.0"/>
      <point x="99.0" y="734.0" type="curve"/>
    </contour>
  </outline>
</glyph>
<glyph name="caroncomb.alt" format="2">
  <anchor x="223.0" y="688.0" name="_topright"/>
  <outline>
    <contour>
      <point x="251.0" y="435.0" type="line"/>
      <point x="339.0" y="467.0"/>
      <point x="397.0" y="543.0"/>
      <point x="397.0" y="611.0" type="curve" smooth="yes"/>
      <point x="397.0" y="671.0"/>
      <point x="346.0" y="693.0"/>
      <point x="302.0" y="693.0" type="curve" smooth="yes"/>
      <point x="257.0" y="693.0"/>
      <point x="223.0" y="665.0"/>
      <point x="223.0" y="629.0" type="curve" smooth="yes"/>
      <point x="223.0" y="558.0"/>
      <point x="296.0" y="573.0"/>
      <point x="296.0" y="539.0" type="curve" smooth="yes"/>
      <point x="296.0" y="518.0"/>
      <point x="276.0" y="497.0"/>
      <point x="226.0" y="476.0" type="curve"/>
    </contour>
  </outline>
</glyph>
<glyph name="cedillacomb.case" format="2">
  <note>
uni0327
</note>
  <anchor x="300.0" y="0.0" name="_bottom"/>
  <outline>
    <contour>
      <point x="290.0" y="-223.0" type="curve" smooth="yes"/>
      <point x="365.0" y="-223.0"/>
      <point x="425.0" y="-180.0"/>
      <point x="425.0" y="-121.0" type="curve" smooth="yes"/>
      <point x="425.0" y="-66.0"/>
      <point x="372.0" y="-34.0"/>
      <point x="301.0" y="-34.0" type="curve"/>
      <point x="300.0" y="-58.0" type="line"/>
      <point x="359.0" y="11.0" type="line"/>
      <point x="293.0" y="11.0" type="line"/>
      <point x="235.0" y="-82.0" type="line"/>
      <point x="254.0" y="-101.0" type="line"/>
      <point x="299.0" y="-98.0"/>
      <point x="328.0" y="-111.0"/>
      <point x="328.0" y="-138.0" type="curve" smooth="yes"/>
      <point x="328.0" y="-155.0"/>
      <point x="315.0" y="-172.0"/>
      <point x="283.0" y="-172.0" type="curve" smooth="yes"/>
      <point x="258.0" y="-172.0"/>
      <point x="231.0" y="-162.0"/>
      <point x="209.0" y="-148.0" type="curve"/>
      <point x="185.0" y="-195.0" type="line"/>
      <point x="215.0" y="-212.0"/>
      <point x="252.0" y="-223.0"/>
    </contour>
  </outline>
</glyph>
<glyph name="dotaccentcomb.case" format="2">
  <note>
uni0307.cap
</note>
  <anchor x="300.0" y="660.0" name="_top"/>
  <anchor x="300.0" y="833.0" name="top"/>
  <outline>
    <contour>
      <point x="301.0" y="696.0" type="curve" smooth="yes"/>
      <point x="361.0" y="696.0"/>
      <point x="392.0" y="739.0"/>
      <point x="392.0" y="783.0" type="curve" smooth="yes"/>
      <point x="392.0" y="828.0"/>
      <point x="361.0" y="870.0"/>
      <point x="301.0" y="870.0" type="curve" smooth="yes"/>
      <point x="240.0" y="870.0"/>
      <point x="208.0" y="828.0"/>
      <point x="208.0" y="783.0" type="curve" smooth="yes"/>
      <point x="208.0" y="739.0"/>
      <point x="240.0" y="696.0"/>
    </contour>
  </outline>
</glyph>
<glyph name="dotbelowcomb.case" format="2">
  <note>
uni0323
</note>
  <anchor x="300.0" y="0.0" name="_bottom"/>
  <anchor x="300.0" y="-220.0" name="bottom"/>
  <outline>
    <contour>
      <point x="301.0" y="-219.0" type="curve" smooth="yes"/>
      <point x="361.0" y="-219.0"/>
      <point x="392.0" y="-176.0"/>
      <point x="392.0" y="-132.0" type="curve" smooth="yes"/>
      <point x="392.0" y="-88.0"/>
      <point x="361.0" y="-46.0"/>
      <point x="301.0" y="-46.0" type="curve" smooth="yes"/>
      <point x="240.0" y="-46.0"/>
      <point x="208.0" y="-88.0"/>
      <point x="208.0" y="-132.0" type="curve" smooth="yes"/>
      <point x="208.0" y="-176.0"/>
      <point x="240.0" y="-219.0"/>
    </contour>
  </outline>
</glyph>
<glyph name="eight.dnom" format="2">
  <advance width="400.0"/>
  <note>
uni2088
</note>
  <outline>
    <contour>
      <point x="190.0" y="-6.0" type="curve" smooth="yes"/>
      <point x="316.0" y="-6.0"/>
      <point x="392.0" y="41.0"/>
      <point x="392.0" y="119.0" type="curve" smooth="yes"/>
      <point x="392.0" y="248.0"/>
      <point x="157.0" y="218.0"/>
      <point x="157.0" y="294.0" type="curve" smooth="yes"/>
      <point x="157.0" y="321.0"/>
      <point x="176.0" y="335.0"/>
      <point x="200.0" y="335.0" type="curve" smooth="yes"/>
      <point x="226.0" y="335.0"/>
      <point x="247.0" y="320.0"/>
      <point x="247.0" y="289.0" type="curve" smooth="yes"/>
      <point x="247.0" y="272.0"/>
      <point x="245.0" y="257.0"/>
      <point x="234.0" y="232.0" type="curve"/>
      <point x="260.0" y="219.0" type="line"/>
      <point x="322.0" y="229.0"/>
      <point x="377.0" y="242.0"/>
      <point x="377.0" y="298.0" type="curve" smooth="yes"/>
      <point x="377.0" y="360.0"/>
      <point x="301.0" y="394.0"/>
      <point x="210.0" y="394.0" type="curve" smooth="yes"/>
      <point x="110.0" y="394.0"/>
      <point x="24.0" y="346.0"/>
      <point x="24.0" y="270.0" type="curve" smooth="yes"/>
      <point x="24.0" y="133.0"/>
      <point x="257.0" y="161.0"/>
      <point x="257.0" y="91.0" type="curve" smooth="yes"/>
      <point x="257.0" y="70.0"/>
      <point x="240.0" y="57.0"/>
      <point x="204.0" y="57.0" type="curve" smooth="yes"/>
      <point x="149.0" y="57.0"/>
      <point x="147.0" y="87.0"/>
      <point x="147.0" y="101.0" type="curve" smooth="yes"/>
      <point x="147.0" y="117.0"/>
      <point x="153.0" y="140.0"/>
      <point x="164.0" y="159.0" type="curve"/>
      <point x="148.0" y="169.0" type="line"/>
      <point x="53.0" y="166.0"/>
      <point x="8.0" y="135.0"/>
      <point x="8.0" y="89.0" type="curve" smooth="yes"/>
      <point x="8.0" y="38.0"/>
      <point x="77.0" y="-6.0"/>
    </contour>
  </outline>
</glyph>
<glyph name="eight.numr" format="2">
  <advance width="400.0"/>
  <note>
uni2088
</note>
  <outline>
    <contour>
      <point x="190.0" y="193.0" type="curve" smooth="yes"/>
      <point x="316.0" y="193.0"/>
      <point x="392.0" y="240.0"/>
      <point x="392.0" y="318.0" type="curve" smooth="yes"/>
      <point x="392.0" y="447.0"/>
      <point x="157.0" y="417.0"/>
      <point x="157.0" y="493.0" type="curve" smooth="yes"/>
      <point x="157.0" y="520.0"/>
      <point x="176.0" y="534.0"/>
      <point x="200.0" y="534.0" type="curve" smooth="yes"/>
      <point x="226.0" y="534.0"/>
      <point x="247.0" y="519.0"/>
      <point x="247.0" y="488.0" type="curve" smooth="yes"/>
      <point x="247.0" y="471.0"/>
      <point x="245.0" y="456.0"/>
      <point x="234.0" y="431.0" type="curve"/>
      <point x="260.0" y="418.0" type="line"/>
      <point x="322.0" y="428.0"/>
      <point x="377.0" y="441.0"/>
      <point x="377.0" y="497.0" type="curve" smooth="yes"/>
      <point x="377.0" y="559.0"/>
      <point x="301.0" y="593.0"/>
      <point x="210.0" y="593.0" type="curve" smooth="yes"/>
      <point x="110.0" y="593.0"/>
      <point x="24.0" y="545.0"/>
      <point x="24.0" y="469.0" type="curve" smooth="yes"/>
      <point x="24.0" y="332.0"/>
      <point x="257.0" y="360.0"/>
      <point x="257.0" y="290.0" type="curve" smooth="yes"/>
      <point x="257.0" y="269.0"/>
      <point x="240.0" y="256.0"/>
      <point x="204.0" y="256.0" type="curve" smooth="yes"/>
      <point x="149.0" y="256.0"/>
      <point x="147.0" y="286.0"/>
      <point x="147.0" y="300.0" type="curve" smooth="yes"/>
      <point x="147.0" y="316.0"/>
      <point x="153.0" y="339.0"/>
      <point x="164.0" y="358.0" type="curve"/>
      <point x="148.0" y="368.0" type="line"/>
      <point x="53.0" y="365.0"/>
      <point x="8.0" y="334.0"/>
      <point x="8.0" y="288.0" type="curve" smooth="yes"/>
      <point x="8.0" y="237.0"/>
      <point x="77.0" y="193.0"/>
    </contour>
  </outline>
</glyph>
<glyph name="f_i" format="2">
  <advance width="635.0"/>
  <note>
    f_i
  </note>
  <outline>
    <contour>
      <point x="16.0" y="0.0" type="line"/>
      <point x="302.0" y="0.0" type="line"/>
      <point x="305.0" y="52.0" type="line"/>
      <point x="249.0" y="70.0" type="line"/>
      <point x="247.0" y="85.0"/>
      <point x="242.0" y="116.0"/>
      <point x="242.0" y="252.0" type="curve" smooth="yes"/>
      <point x="242.0" y="444.0" type="line"/>
      <point x="242.0" y="483.0" type="line"/>
      <point x="242.0" y="586.0"/>
      <point x="282.25062217620706" y="630.9006887898915"/>
      <point x="341.31959359692473" y="630.9006887898915" type="curve" smooth="yes"/>
      <point x="382.615153197371" y="630.9006887898915"/>
      <point x="408.1796860762131" y="599.3425898775886"/>
      <point x="424.8310115591362" y="547.5653933260185" type="curve"/>
      <point x="440.54113841093726" y="537.5616354203864"/>
      <point x="459.5623682315007" y="531.6442456289853"/>
      <point x="485.42204327922923" y="531.6442456289853" type="curve" smooth="yes"/>
      <point x="527.7364848395969" y="531.6442456289853"/>
      <point x="565.7881254204169" y="555.4348959788224"/>
      <point x="565.7881254204169" y="602.2229133418602" type="curve" smooth="yes"/>
      <point x="565.7881254204169" y="647.9931133047326"/>
      <point x="503.0" y="698.0"/>
      <point x="381.0" y="698.0" type="curve" smooth="yes"/>
      <point x="174.0" y="698.0"/>
      <point x="79.0" y="578.0"/>
      <point x="79.0" y="457.0" type="curve" smooth="yes"/>
      <point x="79.0" y="207.0" type="line" smooth="yes"/>
      <point x="79.0" y="116.0"/>
      <point x="76.0" y="76.0"/>
      <point x="75.0" y="70.0" type="curve"/>
      <point x="13.0" y="52.0" type="line"/>
    </contour>
    <contour>
      <point x="334.0" y="0.0" type="line"/>
      <point x="623.0" y="0.0" type="line"/>
      <point x="626.0" y="52.0" type="line"/>
      <point x="561.0" y="70.0" type="line"/>
      <point x="559.0" y="86.0"/>
      <point x="557.0" y="140.0"/>
      <point x="557.0" y="163.0" type="curve" smooth="yes"/>
      <point x="557.0" y="291.0" type="line" smooth="yes"/>
      <point x="557.0" y="349.0"/>
      <point x="558.474256952682" y="380.6938101357582"/>
      <point x="563.474256952682" y="436.6938101357582" type="curve"/>
      <point x="535.5591327458797" y="452.82443327962267" type="line"/>
      <point x="387.5977576776063" y="444.0" type="line"/>
      <point x="127.0" y="444.0" type="line"/>
      <point x="79.0" y="449.0" type="line"/>
      <point x="4.0" y="427.0" type="line"/>
      <point x="4.0" y="372.0" type="line"/>
      <point x="385.0" y="372.0" type="line"/>
      <point x="391.0" y="330.0"/>
      <point x="393.0" y="311.0"/>
      <point x="393.0" y="287.0" type="curve" smooth="yes"/>
      <point x="392.0" y="167.0" type="line" smooth="yes"/>
      <point x="393.0" y="168.0"/>
      <point x="389.0" y="97.0"/>
      <point x="387.0" y="70.0" type="curve"/>
      <point x="331.0" y="52.0" type="line"/>
    </contour>
  </outline>
</glyph>
<glyph name="f_l" format="2">
  <advance width="667.0"/>
  <note>
    f_l
  </note>
  <outline>
    <contour>
      <point x="326.0" y="0.0" type="line"/>
      <point x="329.0" y="51.0" type="line"/>
      <point x="247.0" y="70.0" type="line"/>
      <point x="241.0" y="129.0"/>
      <point x="240.0" y="211.0"/>
      <point x="240.0" y="283.0" type="curve"/>
      <point x="239.0" y="372.0" type="line"/>
      <point x="237.0" y="444.0" type="line"/>
      <point x="237.0" y="513.0" type="line" smooth="yes"/>
      <point x="237.0" y="566.2456957624886"/>
      <point x="243.6964863448202" y="636.8861272256236"/>
      <point x="272.2547690616018" y="636.8861272256236" type="curve" smooth="yes"/>
      <point x="294.46874121982046" y="636.8861272256236"/>
      <point x="316.93514487983657" y="612.6527030530217"/>
      <point x="323.93254610967574" y="566.2578124745755" type="curve"/>
      <point x="331.4942158898673" y="561.5255632542044"/>
      <point x="352.4993777298091" y="556.6129096538796"/>
      <point x="368.4311712466158" y="556.6129096538796" type="curve" smooth="yes"/>
      <point x="410.0823690432769" y="556.6129096538796"/>
      <point x="431.28661519430193" y="578.5744503103001"/>
      <point x="431.28661519430193" y="611.1381140422341" type="curve" smooth="yes"/>
      <point x="431.28661519430193" y="662.6341404090131"/>
      <point x="377.16206997542577" y="698.0"/>
      <point x="303.3038437827481" y="698.0" type="curve" smooth="yes"/>
      <point x="173.04918885501252" y="698.0"/>
      <point x="76.0" y="617.2812870699881"/>
      <point x="76.0" y="458.0" type="curve" smooth="yes"/>
      <point x="76.0" y="372.0" type="line"/>
      <point x="77.0" y="285.0" type="line"/>
      <point x="77.0" y="149.0"/>
      <point x="77.0" y="142.0"/>
      <point x="75.0" y="70.0" type="curve"/>
      <point x="13.0" y="52.0" type="line"/>
      <point x="16.0" y="0.0" type="line"/>
    </contour>
    <contour>
      <point x="4.0" y="372.0" type="line"/>
      <point x="341.0" y="372.0" type="line"/>
      <point x="341.0" y="444.0" type="line"/>
      <point x="125.0" y="444.0" type="line"/>
      <point x="76.0" y="449.0" type="line"/>
      <point x="4.0" y="427.0" type="line"/>
    </contour>
    <contour>
      <point x="357.0" y="0.0" type="line"/>
      <point x="656.0" y="0.0" type="line"/>
      <point x="659.0" y="54.0" type="line"/>
      <point x="594.0" y="70.0" type="line"/>
      <point x="591.0" y="86.0"/>
      <point x="590.0" y="151.0"/>
      <point x="590.0" y="254.0" type="curve"/>
      <point x="591.0" y="391.0" type="line" smooth="yes"/>
      <point x="592.0" y="537.0"/>
      <point x="590.0" y="598.0"/>
      <point x="597.0" y="680.0" type="curve"/>
      <point x="564.0" y="700.0" type="line"/>
      <point x="343.0" y="645.0" type="line"/>
      <point x="345.0" y="594.0" type="line"/>
      <point x="419.0" y="584.0" type="line"/>
      <point x="423.0" y="526.0"/>
      <point x="425.0" y="447.0"/>
      <point x="425.0" y="360.0" type="curve" smooth="yes"/>
      <point x="425.0" y="232.0" type="line" smooth="yes"/>
      <point x="425.0" y="193.0"/>
      <point x="421.0" y="99.0"/>
      <point x="419.0" y="70.0" type="curve"/>
      <point x="354.0" y="54.0" type="line"/>
    </contour>
  </outline>
</glyph>
<glyph name="five.dnom" format="2">
  <advance width="400.0"/>
  <note>
uni2085
</note>
  <outline>
    <contour>
      <point x="153.0" y="-6.0" type="curve" smooth="yes"/>
      <point x="301.0" y="-6.0"/>
      <point x="361.0" y="65.0"/>
      <point x="361.0" y="128.0" type="curve" smooth="yes"/>
      <point x="361.0" y="204.0"/>
      <point x="281.0" y="251.0"/>
      <point x="135.0" y="251.0" type="curve"/>
      <point x="140.0" y="235.0" type="line"/>
      <point x="146.0" y="286.0" type="line"/>
      <point x="333.0" y="286.0" type="line"/>
      <point x="341.0" y="388.0" type="line"/>
      <point x="97.0" y="388.0" type="line"/>
      <point x="70.0" y="148.0" type="line"/>
      <point x="170.0" y="150.0"/>
      <point x="213.0" y="129.0"/>
      <point x="213.0" y="91.0" type="curve" smooth="yes"/>
      <point x="213.0" y="58.0"/>
      <point x="178.0" y="39.0"/>
      <point x="147.0" y="61.0" type="curve"/>
      <point x="175.0" y="42.0" type="line"/>
      <point x="119.0" y="91.0" type="line" smooth="yes"/>
      <point x="100.0" y="105.0"/>
      <point x="85.0" y="114.0"/>
      <point x="68.0" y="114.0" type="curve" smooth="yes"/>
      <point x="37.0" y="114.0"/>
      <point x="20.0" y="92.0"/>
      <point x="20.0" y="67.0" type="curve" smooth="yes"/>
      <point x="20.0" y="26.0"/>
      <point x="77.0" y="-6.0"/>
    </contour>
  </outline>
</glyph>
